AnekTamil-Light.ufo
<glyph name="exclam" format="2">
  <advance width="450.5"/>
  <unicode hex="0021"/>
  <outline>
    <contour>
      <point x="275.76" y="383.2" type="line"/>
      <point x="290.3" y="1278.0" type="line"/>
      <point x="159.73" y="1278.0" type="line"/>
      <point x="174.74" y="383.2" type="line"/>
    </contour>
    <contour>
      <point x="224.78" y="-16.77" type="curve" smooth="yes"/>
      <point x="280.75" y="-16.77"/>
      <point x="307.94" y="16.01"/>
      <point x="307.94" y="75.21000000000001" type="curve" smooth="yes"/>
      <point x="307.94" y="85.21000000000001" type="line" smooth="yes"/>
      <point x="307.94" y="143.41"/>
      <point x="280.75" y="175.72"/>
      <point x="224.78" y="175.72" type="curve" smooth="yes"/>
      <point x="169.22" y="175.72"/>
      <point x="142.56" y="143.41"/>
      <point x="142.56" y="85.21000000000001" type="curve" smooth="yes"/>
      <point x="142.56" y="75.21000000000001" type="line" smooth="yes"/>
      <point x="142.56" y="16.01"/>
      <point x="169.22" y="-16.77"/>
    </contour>
  </outline>
</glyph>
<glyph name="numbersign" format="2">
  <advance width="1181.41"/>
  <unicode hex="0023"/>
  <outline>
    <contour>
      <point x="236.9" y="0.0" type="line"/>
      <point x="338.09" y="0.0" type="line"/>
      <point x="495.39" y="1278.0" type="line"/>
      <point x="394.2" y="1278.0" type="line"/>
    </contour>
    <contour>
      <point x="71.34" y="349.55" type="line"/>
      <point x="1052.6" y="349.55" type="line"/>
      <point x="1052.6" y="440.38" type="line"/>
      <point x="71.34" y="440.38" type="line"/>
    </contour>
    <contour>
      <point x="689.61" y="0.0" type="line"/>
      <point x="791.8" y="0.0" type="line"/>
      <point x="945.57" y="1278.0" type="line"/>
      <point x="843.85" y="1278.0" type="line"/>
    </contour>
    <contour>
      <point x="131.81" y="844.38" type="line"/>
      <point x="1110.6" y="844.38" type="line"/>
      <point x="1110.6" y="935.21" type="line"/>
      <point x="131.81" y="935.21" type="line"/>
    </contour>
  </outline>
</glyph>
<glyph name="dollar" format="2">
  <advance width="1033.96"/>
  <unicode hex="0024"/>
  <anchor x="508.48" y="0.0" name="bottom"/>
  <anchor x="508.48" y="1278.0" name="top"/>
  <outline>
    <contour>
      <point x="566.11" y="1234.01" type="line"/>
      <point x="566.11" y="1493.11" type="line"/>
      <point x="456.97" y="1493.11" type="line"/>
      <point x="456.97" y="1234.01" type="line"/>
    </contour>
    <contour>
      <point x="566.11" y="-220.58" type="line"/>
      <point x="566.11" y="59.89" type="line"/>
      <point x="456.97" y="59.89" type="line"/>
      <point x="456.97" y="-220.58" type="line"/>
    </contour>
    <component base="S"/>
  </outline>
</glyph>
<glyph name="percent" format="2">
  <advance width="1441.27"/>
  <unicode hex="0025"/>
  <outline>
    <contour>
      <point x="282.87" y="0.0" type="line"/>
      <point x="399.31" y="0.0" type="line"/>
      <point x="1160.52" y="1278.0" type="line"/>
      <point x="1044.08" y="1278.0" type="line"/>
    </contour>
    <contour>
      <point x="1087.08" y="-22.240000000000002" type="curve" smooth="yes"/>
      <point x="1252.75" y="-22.240000000000002"/>
      <point x="1344.35" y="80.88"/>
      <point x="1344.35" y="250.19" type="curve" smooth="yes"/>
      <point x="1344.35" y="345.3" type="line" smooth="yes"/>
      <point x="1344.35" y="515.08"/>
      <point x="1253.22" y="616.67"/>
      <point x="1087.08" y="616.67" type="curve" smooth="yes"/>
      <point x="921.47" y="616.67"/>
      <point x="830.4" y="514.02"/>
      <point x="830.4" y="345.3" type="curve" smooth="yes"/>
      <point x="830.4" y="250.19" type="line" smooth="yes"/>
      <point x="830.4" y="80.88"/>
      <point x="920.47" y="-22.240000000000002"/>
    </contour>
    <contour>
      <point x="1087.08" y="64.35" type="curve" smooth="yes"/>
      <point x="986.87" y="64.35"/>
      <point x="931.12" y="129.45"/>
      <point x="931.12" y="247.6" type="curve" smooth="yes"/>
      <point x="931.12" y="347.36" type="line" smooth="yes"/>
      <point x="931.12" y="465.04"/>
      <point x="985.87" y="530.61"/>
      <point x="1087.08" y="530.61" type="curve" smooth="yes"/>
      <point x="1187.35" y="530.61"/>
      <point x="1242.57" y="465.04"/>
      <point x="1242.57" y="347.36" type="curve" smooth="yes"/>
      <point x="1242.57" y="247.6" type="line" smooth="yes"/>
      <point x="1242.57" y="129.45"/>
      <point x="1188.35" y="64.35"/>
    </contour>
    <contour>
      <point x="353.54" y="661.86" type="curve" smooth="yes"/>
      <point x="519.21" y="661.86"/>
      <point x="610.81" y="764.98"/>
      <point x="610.81" y="933.23" type="curve" smooth="yes"/>
      <point x="610.81" y="1028.87" type="line" smooth="yes"/>
      <point x="610.81" y="1197.59"/>
      <point x="519.68" y="1299.71"/>
      <point x="353.54" y="1299.71" type="curve" smooth="yes"/>
      <point x="186.93" y="1299.71"/>
      <point x="96.33" y="1197.59"/>
      <point x="96.33" y="1028.87" type="curve" smooth="yes"/>
      <point x="96.33" y="933.23" type="line" smooth="yes"/>
      <point x="96.33" y="764.45"/>
      <point x="186.93" y="661.86"/>
    </contour>
    <contour>
      <point x="353.54" y="747.92" type="curve" smooth="yes"/>
      <point x="253.33" y="747.92"/>
      <point x="197.58" y="812.49"/>
      <point x="197.58" y="930.64" type="curve" smooth="yes"/>
      <point x="197.58" y="1030.93" type="line" smooth="yes"/>
      <point x="197.58" y="1148.08"/>
      <point x="252.33" y="1214.18"/>
      <point x="353.54" y="1214.18" type="curve" smooth="yes"/>
      <point x="453.81" y="1214.18"/>
      <point x="509.03" y="1148.08"/>
      <point x="509.03" y="1030.93" type="curve" smooth="yes"/>
      <point x="509.03" y="930.64" type="line" smooth="yes"/>
      <point x="509.03" y="812.49"/>
      <point x="454.28" y="747.92"/>
    </contour>
  </outline>
</glyph>
<glyph name="ampersand" format="2">
  <advance width="1227.83"/>
  <unicode hex="0026"/>
  <outline>
    <contour>
      <point x="1088.62" y="0.0" type="curve"/>
      <point x="1235.49" y="0.0" type="line"/>
      <point x="1235.49" y="9.89" type="line"/>
      <point x="1142.77" y="105.2"/>
      <point x="1038.83" y="209.2"/>
      <point x="951.46" y="294.92" type="curve"/>
      <point x="921.79" y="327.18" type="line"/>
      <point x="444.56" y="781.12" type="line" smooth="yes"/>
      <point x="367.09000000000003" y="855.59"/>
      <point x="325.33" y="918.64"/>
      <point x="325.33" y="1001.27" type="curve" smooth="yes"/>
      <point x="325.33" y="1007.68" type="line" smooth="yes"/>
      <point x="325.33" y="1118.24"/>
      <point x="393.14" y="1189.57"/>
      <point x="564.4" y="1189.57" type="curve" smooth="yes"/>
      <point x="703.15" y="1189.57"/>
      <point x="811.33" y="1148.87"/>
      <point x="893.63" y="1100.23" type="curve"/>
      <point x="880.74" y="1214.84" type="line"/>
      <point x="812.79" y="1257.6"/>
      <point x="702.79" y="1298.71"/>
      <point x="545.73" y="1298.71" type="curve" smooth="yes"/>
      <point x="306.13" y="1298.71"/>
      <point x="197.35" y="1186.94"/>
      <point x="197.35" y="1010.39" type="curve" smooth="yes"/>
      <point x="197.35" y="1002.92" type="line" smooth="yes"/>
      <point x="197.35" y="896.27"/>
      <point x="239.23" y="823.92"/>
      <point x="325.35" y="737.15" type="curve"/>
      <point x="343.54" y="715.78" type="line"/>
      <point x="847.67" y="240.71" type="line"/>
      <point x="865.15" y="221.23" type="line"/>
      <point x="912.55" y="174.83"/>
      <point x="1034.87" y="54.22"/>
    </contour>
    <contour>
      <point x="508.25" y="-21.18" type="curve" smooth="yes"/>
      <point x="711.79" y="-21.18"/>
      <point x="841.44" y="63.81"/>
      <point x="942.15" y="209.09" type="curve"/>
      <point x="973.59" y="243.0" type="line"/>
      <point x="1058.43" y="381.3"/>
      <point x="1108.61" y="565.54"/>
      <point x="1132.61" y="789.42" type="curve"/>
      <point x="1012.05" y="789.42" type="line"/>
      <point x="993.76" y="603.68"/>
      <point x="955.53" y="446.52"/>
      <point x="889.47" y="323.41" type="curve"/>
      <point x="858.15" y="281.91" type="line"/>
      <point x="779.34" y="155.35"/>
      <point x="674.53" y="84.25"/>
      <point x="518.73" y="84.25" type="curve" smooth="yes"/>
      <point x="328.0" y="84.25"/>
      <point x="227.08" y="180.23000000000002"/>
      <point x="227.08" y="366.72" type="curve" smooth="yes"/>
      <point x="227.08" y="408.47" type="line" smooth="yes"/>
      <point x="227.08" y="551.91"/>
      <point x="275.07" y="637.3"/>
      <point x="397.98" y="693.23" type="curve"/>
      <point x="331.11" y="780.0" type="line"/>
      <point x="160.93" y="694.58"/>
      <point x="99.63" y="577.53"/>
      <point x="99.63" y="398.58" type="curve" smooth="yes"/>
      <point x="99.63" y="356.71" type="line" smooth="yes"/>
      <point x="99.63" y="113.06"/>
      <point x="237.93" y="-21.18"/>
    </contour>
  </outline>
</glyph>
<glyph name="quotesingle" format="2">
  <advance width="340.57"/>
  <unicode hex="0027"/>
  <outline>
    <contour>
      <point x="218.35" y="849.8" type="line"/>
      <point x="230.83" y="1326.35" type="line"/>
      <point x="109.74" y="1326.35" type="line"/>
      <point x="122.16" y="849.8" type="line"/>
    </contour>
  </outline>
</glyph>
<glyph name="parenleft" format="2">
  <advance width="567.86"/>
  <unicode hex="0028"/>
  <outline>
    <contour>
      <point x="269.18" y="624.92" type="line" smooth="yes"/>
      <point x="269.18" y="926.5"/>
      <point x="343.12" y="1146.52"/>
      <point x="504.36" y="1350.53" type="curve"/>
      <point x="376.15" y="1350.53" type="line"/>
      <point x="224.03" y="1154.7"/>
      <point x="151.15" y="938.8"/>
      <point x="151.15" y="628.98" type="curve" smooth="yes"/>
      <point x="151.15" y="481.84" type="line" smooth="yes"/>
      <point x="151.15" y="170.43"/>
      <point x="222.44" y="-44.94"/>
      <point x="375.09" y="-240.24" type="curve"/>
      <point x="504.36" y="-240.24" type="line"/>
      <point x="343.12" y="-34.7"/>
      <point x="269.18" y="184.32"/>
      <point x="269.18" y="486.43" type="curve" smooth="yes"/>
    </contour>
  </outline>
</glyph>
<glyph name="parenright" format="2">
  <advance width="568.92"/>
  <unicode hex="0029"/>
  <outline>
    <contour>
      <point x="299.74" y="624.92" type="curve" smooth="yes"/>
      <point x="299.74" y="486.43" type="line" smooth="yes"/>
      <point x="299.74" y="184.32"/>
      <point x="225.8" y="-34.7"/>
      <point x="64.56" y="-240.24" type="curve"/>
      <point x="193.83" y="-240.24" type="line"/>
      <point x="346.48" y="-44.94"/>
      <point x="417.77" y="170.43"/>
      <point x="417.77" y="481.84" type="curve" smooth="yes"/>
      <point x="417.77" y="628.98" type="line" smooth="yes"/>
      <point x="417.77" y="938.8"/>
      <point x="344.89" y="1154.7"/>
      <point x="192.77" y="1350.53" type="curve"/>
      <point x="64.56" y="1350.53" type="line"/>
      <point x="225.8" y="1146.52"/>
      <point x="299.74" y="926.5"/>
    </contour>
  </outline>
</glyph>
<glyph name="asterisk" format="2">
  <advance width="759.6"/>
  <unicode hex="002A"/>
  <outline>
    <contour>
      <point x="222.38" y="681.6" type="line"/>
      <point x="380.12" y="903.46" type="line"/>
      <point x="378.95" y="903.46" type="line"/>
      <point x="536.75" y="681.6" type="line"/>
      <point x="621.81" y="741.64" type="line"/>
      <point x="442.94" y="950.08" type="line"/>
      <point x="442.06" y="947.5" type="line"/>
      <point x="696.56" y="1007.6" type="line"/>
      <point x="671.19" y="1106.67" type="line"/>
      <point x="418.63" y="1019.08" type="line"/>
      <point x="420.8" y="1016.38" type="line"/>
      <point x="434.81" y="1278.0" type="line"/>
      <point x="325.26" y="1278.0" type="line"/>
      <point x="339.27" y="1016.38" type="line"/>
      <point x="340.5" y="1019.08" type="line"/>
      <point x="87.94" y="1106.67" type="line"/>
      <point x="63.04" y="1007.6" type="line"/>
      <point x="317.01" y="947.5" type="line"/>
      <point x="316.13" y="950.08" type="line"/>
      <point x="137.26" y="741.64" type="line"/>
    </contour>
  </outline>
</glyph>
<glyph name="plus" format="2">
  <advance width="998.36"/>
  <unicode hex="002B"/>
  <outline>
    <contour>
      <point x="552.63" y="204.11" type="line"/>
      <point x="552.63" y="1042.12" type="line"/>
      <point x="446.2" y="1042.12" type="line"/>
      <point x="446.2" y="204.11" type="line"/>
    </contour>
    <contour>
      <point x="108.87" y="573.49" type="line"/>
      <point x="889.49" y="573.49" type="line"/>
      <point x="889.49" y="672.74" type="line"/>
      <point x="108.87" y="672.74" type="line"/>
    </contour>
  </outline>
</glyph>
<glyph name="comma" format="2">
  <advance width="351.41"/>
  <unicode hex="002C"/>
  <outline>
    <contour>
      <point x="238.13" y="255.33" type="curve"/>
      <point x="120.63" y="255.33" type="line"/>
      <point x="126.1" y="216.62"/>
      <point x="128.57" y="178.62"/>
      <point x="128.57" y="136.97" type="curve" smooth="yes"/>
      <point x="128.57" y="-10.209999999999997"/>
      <point x="96.1" y="-126.86"/>
      <point x="22.99" y="-236.86" type="curve"/>
      <point x="106.41" y="-268.4" type="line"/>
      <point x="208.89" y="-143.63"/>
      <point x="247.66" y="-14.739999999999998"/>
      <point x="247.66" y="141.68" type="curve" smooth="yes"/>
      <point x="247.66" y="188.62"/>
      <point x="241.66" y="232.09"/>
    </contour>
  </outline>
</glyph>
<glyph name="hyphen" format="2">
  <advance width="832.78"/>
  <unicode hex="002D"/>
  <outline>
    <contour>
      <point x="133.27" y="477.25" type="line"/>
      <point x="699.98" y="477.25" type="line"/>
      <point x="699.98" y="578.03" type="line"/>
      <point x="133.27" y="578.03" type="line"/>
    </contour>
  </outline>
</glyph>
<glyph name="period" format="2">
  <advance width="357.82"/>
  <unicode hex="002E"/>
  <outline>
    <contour>
      <point x="178.44" y="-16.77" type="curve" smooth="yes"/>
      <point x="234.41" y="-16.77"/>
      <point x="261.6" y="16.01"/>
      <point x="261.6" y="75.21000000000001" type="curve" smooth="yes"/>
      <point x="261.6" y="85.21000000000001" type="line" smooth="yes"/>
      <point x="261.6" y="143.41"/>
      <point x="234.41" y="175.72"/>
      <point x="178.44" y="175.72" type="curve" smooth="yes"/>
      <point x="122.88" y="175.72"/>
      <point x="96.22" y="143.41"/>
      <point x="96.22" y="85.21000000000001" type="curve" smooth="yes"/>
      <point x="96.22" y="75.21000000000001" type="line" smooth="yes"/>
      <point x="96.22" y="16.01"/>
      <point x="122.88" y="-16.77"/>
    </contour>
  </outline>
</glyph>
<glyph name="slash" format="2">
  <advance width="810.52"/>
  <unicode hex="002F"/>
  <outline>
    <contour>
      <point x="44.97" y="-236.83" type="line"/>
      <point x="160.23000000000002" y="-236.83" type="line"/>
      <point x="765.55" y="1339.24" type="line"/>
      <point x="650.82" y="1339.24" type="line"/>
    </contour>
  </outline>
</glyph>
<glyph name="zero" format="2">
  <advance width="1109.17"/>
  <unicode hex="0030"/>
  <outline>
    <contour>
      <point x="554.32" y="-22.240000000000002" type="curve" smooth="yes"/>
      <point x="846.29" y="-22.240000000000002"/>
      <point x="994.6" y="149.18"/>
      <point x="994.6" y="462.26" type="curve"/>
      <point x="994.6" y="814.8" type="line"/>
      <point x="994.6" y="1127.82"/>
      <point x="846.29" y="1300.24"/>
      <point x="554.32" y="1300.24" type="curve" smooth="yes"/>
      <point x="262.35" y="1300.24"/>
      <point x="114.57" y="1127.82"/>
      <point x="114.57" y="814.8" type="curve"/>
      <point x="114.57" y="462.26" type="line"/>
      <point x="114.57" y="149.18"/>
      <point x="262.88" y="-22.240000000000002"/>
    </contour>
    <contour>
      <point x="554.32" y="83.19" type="curve" smooth="yes"/>
      <point x="343.06" y="83.19"/>
      <point x="241.02" y="216.64"/>
      <point x="241.02" y="457.02" type="curve" smooth="yes"/>
      <point x="241.02" y="819.98" type="line" smooth="yes"/>
      <point x="241.02" y="1061.36"/>
      <point x="342.53" y="1194.81"/>
      <point x="554.32" y="1194.81" type="curve" smooth="yes"/>
      <point x="766.11" y="1194.81"/>
      <point x="868.15" y="1061.36"/>
      <point x="868.15" y="819.98" type="curve" smooth="yes"/>
      <point x="868.15" y="457.02" type="line" smooth="yes"/>
      <point x="868.15" y="216.64"/>
      <point x="766.11" y="83.19"/>
    </contour>
  </outline>
</glyph>
<glyph name="one" format="2">
  <advance width="656.33"/>
  <unicode hex="0031"/>
  <outline>
    <contour>
      <point x="372.79" y="0.0" type="line"/>
      <point x="497.12" y="0.0" type="line"/>
      <point x="497.12" y="1278.0" type="line"/>
      <point x="364.81" y="1278.0" type="line"/>
      <point x="57.99" y="1082.85" type="line"/>
      <point x="54.4" y="958.88" type="line"/>
      <point x="360.2" y="1152.31" type="line"/>
      <point x="372.79" y="1152.31" type="line"/>
    </contour>
  </outline>
</glyph>
<glyph name="two" format="2">
  <advance width="926.03"/>
  <unicode hex="0032"/>
  <outline>
    <contour>
      <point x="74.87" y="0.0" type="line"/>
      <point x="842.28" y="0.0" type="line"/>
      <point x="842.28" y="107.02000000000001" type="line"/>
      <point x="175.72" y="107.02000000000001" type="line"/>
      <point x="227.17000000000002" y="81.01" type="line"/>
      <point x="227.17000000000002" y="114.61" type="line"/>
      <point x="503.19" y="396.67" type="line" smooth="yes"/>
      <point x="700.42" y="597.24"/>
      <point x="821.46" y="732.23"/>
      <point x="821.46" y="936.81" type="curve" smooth="yes"/>
      <point x="821.46" y="950.34" type="line" smooth="yes"/>
      <point x="821.46" y="1174.23"/>
      <point x="693.86" y="1298.18"/>
      <point x="442.42" y="1298.18" type="curve" smooth="yes"/>
      <point x="281.83" y="1298.18"/>
      <point x="166.12" y="1243.07"/>
      <point x="91.88" y="1193.72" type="curve"/>
      <point x="79.52" y="1078.64" type="line"/>
      <point x="168.93" y="1137.75"/>
      <point x="284.05" y="1189.57"/>
      <point x="420.22" y="1189.57" type="curve" smooth="yes"/>
      <point x="607.32" y="1189.57"/>
      <point x="695.01" y="1098.35"/>
      <point x="695.01" y="937.09" type="curve" smooth="yes"/>
      <point x="695.01" y="926.15" type="line" smooth="yes"/>
      <point x="695.01" y="757.77"/>
      <point x="580.56" y="635.91"/>
      <point x="395.69" y="448.23" type="curve" smooth="yes"/>
      <point x="74.87" y="122.61" type="line"/>
    </contour>
  </outline>
</glyph>
<glyph name="three" format="2">
  <advance width="973.14"/>
  <unicode hex="0033"/>
  <outline>
    <contour>
      <point x="448.82" y="-20.65" type="curve" smooth="yes"/>
      <point x="740.91" y="-20.65"/>
      <point x="875.16" y="113.53"/>
      <point x="875.16" y="333.19" type="curve" smooth="yes"/>
      <point x="875.16" y="371.42" type="line" smooth="yes"/>
      <point x="875.16" y="547.0"/>
      <point x="794.64" y="646.69"/>
      <point x="597.55" y="667.47" type="curve"/>
      <point x="598.85" y="653.05" type="line"/>
      <point x="601.67" y="667.07" type="line"/>
      <point x="788.52" y="684.26"/>
      <point x="864.22" y="794.01"/>
      <point x="864.22" y="950.18" type="curve" smooth="yes"/>
      <point x="864.22" y="974.41" type="line" smooth="yes"/>
      <point x="864.22" y="1178.65"/>
      <point x="743.38" y="1298.18"/>
      <point x="471.18" y="1298.18" type="curve" smooth="yes"/>
      <point x="301.53" y="1298.18"/>
      <point x="176.06" y="1250.95"/>
      <point x="100.58" y="1202.54" type="curve"/>
      <point x="88.75" y="1091.05" type="line"/>
      <point x="178.46" y="1144.75"/>
      <point x="302.23" y="1191.16"/>
      <point x="452.69" y="1191.16" type="curve" smooth="yes"/>
      <point x="657.55" y="1191.16"/>
      <point x="738.3" y="1109.24"/>
      <point x="738.3" y="957.98" type="curve" smooth="yes"/>
      <point x="738.3" y="936.46" type="line" smooth="yes"/>
      <point x="738.3" y="799.72"/>
      <point x="667.54" y="713.45"/>
      <point x="464.97" y="710.39" type="curve" smooth="yes"/>
      <point x="246.98" y="706.8" type="line"/>
      <point x="246.98" y="607.96" type="line"/>
      <point x="460.68" y="605.37" type="line" smooth="yes"/>
      <point x="670.13" y="602.78"/>
      <point x="747.65" y="525.45"/>
      <point x="747.65" y="369.89" type="curve" smooth="yes"/>
      <point x="747.65" y="340.55" type="line" smooth="yes"/>
      <point x="747.65" y="183.29"/>
      <point x="657.2" y="89.55000000000001"/>
      <point x="439.81" y="89.55000000000001" type="curve" smooth="yes"/>
      <point x="295.69" y="89.55000000000001"/>
      <point x="168.4" y="133.96"/>
      <point x="81.22" y="186.31" type="curve"/>
      <point x="94.11" y="62.34" type="line"/>
      <point x="159.35" y="26.99"/>
      <point x="286.23" y="-20.65"/>
    </contour>
  </outline>
</glyph>
<glyph name="four" format="2">
  <advance width="1018.47"/>
  <unicode hex="0034"/>
  <outline>
    <contour>
      <point x="690.34" y="0.0" type="line"/>
      <point x="809.9" y="0.0" type="line"/>
      <point x="809.9" y="1278.0" type="line"/>
      <point x="591.29" y="1278.0" type="line"/>
      <point x="58.23" y="387.47" type="line"/>
      <point x="58.23" y="258.21" type="line"/>
      <point x="986.53" y="258.21" type="line"/>
      <point x="986.53" y="363.7" type="line"/>
      <point x="133.7" y="363.7" type="line"/>
      <point x="182.03" y="314.67" type="line"/>
      <point x="182.03" y="376.82" type="line"/>
      <point x="666.17" y="1188.82" type="line"/>
      <point x="694.52" y="1188.82" type="line"/>
      <point x="690.34" y="916.62" type="line"/>
    </contour>
  </outline>
</glyph>
<glyph name="five" format="2">
  <advance width="1029.5"/>
  <unicode hex="0035"/>
  <outline>
    <contour>
      <point x="503.29" y="-20.65" type="curve" smooth="yes"/>
      <point x="794.04" y="-20.65"/>
      <point x="929.46" y="127.95"/>
      <point x="929.46" y="367.2" type="curve" smooth="yes"/>
      <point x="929.46" y="445.71" type="line" smooth="yes"/>
      <point x="929.46" y="674.07"/>
      <point x="817.05" y="810.43"/>
      <point x="587.93" y="810.43" type="curve" smooth="yes"/>
      <point x="420.94" y="810.43"/>
      <point x="315.6" y="735.26"/>
      <point x="258.55" y="635.62" type="curve"/>
      <point x="258.07" y="633.27" type="line"/>
      <point x="261.07" y="833.23" type="line"/>
      <point x="261.07" y="1171.92" type="line"/>
      <point x="898.45" y="1171.92" type="line"/>
      <point x="898.45" y="1278.0" type="line"/>
      <point x="140.86" y="1278.0" type="line"/>
      <point x="140.86" y="562.1" type="line"/>
      <point x="248.24" y="541.97" type="line"/>
      <point x="315.05" y="646.3"/>
      <point x="412.03" y="706.53"/>
      <point x="549.42" y="706.53" type="curve" smooth="yes"/>
      <point x="724.62" y="706.53"/>
      <point x="805.13" y="607.26"/>
      <point x="805.13" y="441.12" type="curve" smooth="yes"/>
      <point x="805.13" y="368.73" type="line" smooth="yes"/>
      <point x="805.13" y="192.06"/>
      <point x="707.74" y="90.08000000000001"/>
      <point x="493.75" y="90.08000000000001" type="curve" smooth="yes"/>
      <point x="342.34" y="90.08000000000001"/>
      <point x="223.32999999999998" y="135.55"/>
      <point x="137.21" y="186.9" type="curve"/>
      <point x="151.1" y="64.52" type="line"/>
      <point x="217.28" y="26.17"/>
      <point x="335.76" y="-20.65"/>
    </contour>
  </outline>
</glyph>
<glyph name="six" format="2">
  <advance width="1062.16"/>
  <unicode hex="0036"/>
  <outline>
    <contour>
      <point x="551.9" y="-22.240000000000002" type="curve" smooth="yes"/>
      <point x="825.16" y="-22.240000000000002"/>
      <point x="963.53" y="131.0"/>
      <point x="963.53" y="361.72" type="curve" smooth="yes"/>
      <point x="963.53" y="435.7" type="line" smooth="yes"/>
      <point x="963.53" y="672.42"/>
      <point x="842.41" y="811.19"/>
      <point x="606.05" y="811.19" type="curve" smooth="yes"/>
      <point x="392.25" y="811.19"/>
      <point x="273.09000000000003" y="694.22"/>
      <point x="233.97" y="544.84" type="curve"/>
      <point x="210.84" y="544.84" type="line"/>
      <point x="228.13" y="440.99" type="line"/>
      <point x="274.36" y="604.14"/>
      <point x="393.41" y="709.94"/>
      <point x="572.9" y="709.94" type="curve" smooth="yes"/>
      <point x="759.52" y="709.94"/>
      <point x="840.26" y="603.43"/>
      <point x="840.26" y="433.17" type="curve" smooth="yes"/>
      <point x="840.26" y="363.31" type="line" smooth="yes"/>
      <point x="840.26" y="198.99"/>
      <point x="747.69" y="83.19"/>
      <point x="554.02" y="83.19" type="curve" smooth="yes"/>
      <point x="352.64" y="83.19"/>
      <point x="234.31" y="205.88"/>
      <point x="234.31" y="447.5" type="curve"/>
      <point x="234.31" y="797.72" type="line" smooth="yes"/>
      <point x="234.31" y="1052.47"/>
      <point x="348.54" y="1189.57"/>
      <point x="586.99" y="1189.57" type="curve" smooth="yes"/>
      <point x="735.11" y="1189.57"/>
      <point x="825.35" y="1152.16"/>
      <point x="911.41" y="1101.34" type="curve"/>
      <point x="898.46" y="1216.48" type="line"/>
      <point x="826.63" y="1256.89"/>
      <point x="725.09" y="1298.18"/>
      <point x="569.5" y="1298.18" type="curve" smooth="yes"/>
      <point x="265.06" y="1298.18"/>
      <point x="110.51" y="1116.34"/>
      <point x="110.51" y="800.9" type="curve" smooth="yes"/>
      <point x="110.51" y="459.69" type="line" smooth="yes"/>
      <point x="110.51" y="142.95"/>
      <point x="272.17" y="-22.240000000000002"/>
    </contour>
  </outline>
</glyph>
<glyph name="seven" format="2">
  <advance width="903.45"/>
  <unicode hex="0037"/>
  <outline>
    <contour>
      <point x="225.32" y="0.0" type="line"/>
      <point x="361.6" y="0.0" type="line"/>
      <point x="841.75" y="1170.27" type="line"/>
      <point x="841.75" y="1278.0" type="line"/>
      <point x="62.99" y="1278.0" type="line"/>
      <point x="62.99" y="1171.92" type="line"/>
      <point x="711.65" y="1171.92" type="line"/>
    </contour>
  </outline>
</glyph>
<glyph name="eight" format="2">
  <advance width="1097.56"/>
  <unicode hex="0038"/>
  <outline>
    <contour>
      <point x="548.25" y="-25.12" type="curve" smooth="yes"/>
      <point x="862.0" y="-25.12"/>
      <point x="995.17" y="109.78"/>
      <point x="995.17" y="322.83" type="curve" smooth="yes"/>
      <point x="995.17" y="351.65" type="line" smooth="yes"/>
      <point x="995.17" y="535.58"/>
      <point x="888.72" y="638.81"/>
      <point x="713.22" y="665.53" type="curve"/>
      <point x="713.22" y="667.54" type="line"/>
      <point x="880.08" y="685.14"/>
      <point x="980.29" y="785.43"/>
      <point x="980.29" y="949.47" type="curve" smooth="yes"/>
      <point x="980.29" y="977.29" type="line" smooth="yes"/>
      <point x="980.29" y="1182.17"/>
      <point x="841.05" y="1301.18"/>
      <point x="548.25" y="1301.18" type="curve" smooth="yes"/>
      <point x="257.04" y="1301.18"/>
      <point x="118.27" y="1182.17"/>
      <point x="118.27" y="977.29" type="curve" smooth="yes"/>
      <point x="118.27" y="949.47" type="line" smooth="yes"/>
      <point x="118.27" y="785.43"/>
      <point x="218.01" y="685.14"/>
      <point x="384.87" y="667.54" type="curve"/>
      <point x="384.87" y="665.53" type="line"/>
      <point x="210.37" y="639.34"/>
      <point x="102.92" y="536.11"/>
      <point x="102.92" y="351.65" type="curve" smooth="yes"/>
      <point x="102.92" y="322.83" type="line" smooth="yes"/>
      <point x="102.92" y="107.13"/>
      <point x="240.8" y="-25.12"/>
    </contour>
    <contour>
      <point x="549.84" y="80.31" type="curve" smooth="yes"/>
      <point x="332.52" y="80.31"/>
      <point x="228.84" y="175.71"/>
      <point x="228.84" y="332.02" type="curve" smooth="yes"/>
      <point x="228.84" y="361.6" type="line" smooth="yes"/>
      <point x="228.84" y="512.5"/>
      <point x="333.53" y="603.25"/>
      <point x="546.13" y="614.38" type="curve"/>
      <point x="762.44" y="603.78"/>
      <point x="869.25" y="513.56"/>
      <point x="869.25" y="361.6" type="curve" smooth="yes"/>
      <point x="869.25" y="332.02" type="line" smooth="yes"/>
      <point x="869.25" y="176.24"/>
      <point x="766.63" y="80.31"/>
    </contour>
    <contour>
      <point x="551.43" y="705.56" type="curve"/>
      <point x="353.07" y="710.33"/>
      <point x="242.07" y="791.9"/>
      <point x="242.07" y="942.64" type="curve" smooth="yes"/>
      <point x="242.07" y="966.57" type="line" smooth="yes"/>
      <point x="242.07" y="1112.47"/>
      <point x="339.93" y="1197.34"/>
      <point x="548.25" y="1197.34" type="curve" smooth="yes"/>
      <point x="758.16" y="1197.34"/>
      <point x="856.49" y="1112.47"/>
      <point x="856.49" y="966.57" type="curve" smooth="yes"/>
      <point x="856.49" y="942.64" type="line" smooth="yes"/>
      <point x="856.49" y="791.9"/>
      <point x="743.96" y="710.33"/>
    </contour>
  </outline>
</glyph>
<glyph name="nine" format="2">
  <advance width="1060.28"/>
  <unicode hex="0039"/>
  <outline>
    <contour>
      <point x="513.14" y="1299.77" type="curve" smooth="yes"/>
      <point x="238.94" y="1299.77"/>
      <point x="98.63" y="1145.12"/>
      <point x="98.63" y="914.4" type="curve" smooth="yes"/>
      <point x="98.63" y="839.88" type="line" smooth="yes"/>
      <point x="98.63" y="605.34"/>
      <point x="218.4" y="464.22"/>
      <point x="467.05" y="464.22" type="curve" smooth="yes"/>
      <point x="670.15" y="464.22"/>
      <point x="787.72" y="578.37"/>
      <point x="826.31" y="723.99" type="curve"/>
      <point x="849.44" y="723.99" type="line"/>
      <point x="832.15" y="827.84" type="line"/>
      <point x="786.51" y="668.45"/>
      <point x="669.05" y="565.47"/>
      <point x="501.26" y="565.47" type="curve" smooth="yes"/>
      <point x="303.94" y="565.47"/>
      <point x="221.9" y="673.92"/>
      <point x="221.9" y="844.94" type="curve" smooth="yes"/>
      <point x="221.9" y="913.28" type="line" smooth="yes"/>
      <point x="221.9" y="1077.13"/>
      <point x="315.0" y="1194.34"/>
      <point x="511.02" y="1194.34" type="curve" smooth="yes"/>
      <point x="723.05" y="1194.34"/>
      <point x="825.97" y="1070.83"/>
      <point x="825.97" y="832.04" type="curve"/>
      <point x="825.97" y="473.27" type="line" smooth="yes"/>
      <point x="825.97" y="221.47"/>
      <point x="712.74" y="87.96000000000001"/>
      <point x="464.23" y="87.96000000000001" type="curve" smooth="yes"/>
      <point x="321.99" y="87.96000000000001"/>
      <point x="230.99" y="124.43"/>
      <point x="145.99" y="171.9" type="curve"/>
      <point x="159.94" y="51.05" type="line"/>
      <point x="228.24" y="15.58"/>
      <point x="326.54" y="-21.71"/>
      <point x="476.42" y="-21.71" type="curve" smooth="yes"/>
      <point x="795.04" y="-21.71"/>
      <point x="949.3" y="154.95"/>
      <point x="949.3" y="470.09" type="curve" smooth="yes"/>
      <point x="949.3" y="822.38" type="line" smooth="yes"/>
      <point x="949.3" y="1133.29"/>
      <point x="801.11" y="1299.77"/>
    </contour>
  </outline>
</glyph>
<glyph name="less" format="2">
  <advance width="1034.64"/>
  <unicode hex="003C"/>
  <outline>
    <contour>
      <point x="200.58" y="632.29" type="line"/>
      <point x="889.49" y="833.54" type="line"/>
      <point x="889.49" y="941.5" type="line"/>
      <point x="108.87" y="707.7" type="line"/>
      <point x="108.87" y="537.47" type="line"/>
      <point x="889.49" y="303.67" type="line"/>
      <point x="889.49" y="411.63" type="line"/>
      <point x="200.58" y="612.88" type="line"/>
    </contour>
  </outline>
</glyph>
<glyph name="equal" format="2">
  <advance width="1032.41"/>
  <unicode hex="003D"/>
  <outline>
    <contour>
      <point x="126.16" y="368.02" type="line"/>
      <point x="906.25" y="368.02" type="line"/>
      <point x="906.25" y="466.68" type="line"/>
      <point x="126.16" y="466.68" type="line"/>
    </contour>
    <contour>
      <point x="126.16" y="779.08" type="line"/>
      <point x="906.25" y="779.08" type="line"/>
      <point x="906.25" y="877.74" type="line"/>
      <point x="126.16" y="877.74" type="line"/>
    </contour>
  </outline>
</glyph>
<glyph name="greater" format="2">
  <advance width="1034.64"/>
  <unicode hex="003E"/>
  <outline>
    <contour>
      <point x="834.06" y="632.29" type="line"/>
      <point x="834.06" y="612.88" type="line"/>
      <point x="145.15" y="411.63" type="line"/>
      <point x="145.15" y="303.67" type="line"/>
      <point x="925.77" y="537.47" type="line"/>
      <point x="925.77" y="707.7" type="line"/>
      <point x="145.15" y="941.5" type="line"/>
      <point x="145.15" y="833.54" type="line"/>
    </contour>
  </outline>
</glyph>
<glyph name="question" format="2">
  <advance width="879.88"/>
  <unicode hex="003F"/>
  <outline>
    <contour>
      <point x="263.43" y="327.91" type="line"/>
      <point x="374.22" y="327.91" type="line"/>
      <point x="374.22" y="585.96" type="line"/>
      <point x="313.3" y="543.53" type="line"/>
      <point x="416.36" y="550.47" type="line"/>
      <point x="676.01" y="576.52"/>
      <point x="781.49" y="686.4"/>
      <point x="781.49" y="894.35" type="curve" smooth="yes"/>
      <point x="781.49" y="979.4" type="line" smooth="yes"/>
      <point x="781.49" y="1183.88"/>
      <point x="671.3" y="1297.18"/>
      <point x="418.58" y="1297.18" type="curve" smooth="yes"/>
      <point x="262.23" y="1297.18"/>
      <point x="140.7" y="1245.54"/>
      <point x="73.58" y="1201.31" type="curve"/>
      <point x="59.629999999999995" y="1094.0" type="line"/>
      <point x="146.4" y="1147.17"/>
      <point x="261.57" y="1192.22"/>
      <point x="396.85" y="1192.22" type="curve" smooth="yes"/>
      <point x="587.88" y="1192.22"/>
      <point x="658.63" y="1114.65"/>
      <point x="658.63" y="965.68" type="curve" smooth="yes"/>
      <point x="658.63" y="890.17" type="line" smooth="yes"/>
      <point x="658.63" y="738.44"/>
      <point x="582.59" y="650.63"/>
      <point x="376.44" y="630.58" type="curve" smooth="yes"/>
      <point x="263.43" y="624.17" type="line"/>
    </contour>
    <contour>
      <point x="318.06" y="-17.3" type="curve" smooth="yes"/>
      <point x="373.5" y="-17.3"/>
      <point x="400.69" y="15.48"/>
      <point x="400.69" y="73.62" type="curve" smooth="yes"/>
      <point x="400.69" y="83.09" type="line" smooth="yes"/>
      <point x="400.69" y="140.76"/>
      <point x="373.5" y="172.54000000000002"/>
      <point x="318.06" y="172.54000000000002" type="curve" smooth="yes"/>
      <point x="264.09" y="172.54000000000002"/>
      <point x="237.43" y="140.76"/>
      <point x="237.43" y="83.09" type="curve" smooth="yes"/>
      <point x="237.43" y="73.62" type="line" smooth="yes"/>
      <point x="237.43" y="15.48"/>
      <point x="264.09" y="-17.3"/>
    </contour>
  </outline>
</glyph>
<glyph name="at" format="2">
  <advance width="1646.76"/>
  <unicode hex="0040"/>
  <outline>
    <contour>
      <point x="742.93" y="73.23" type="curve" smooth="yes"/>
      <point x="892.04" y="73.23"/>
      <point x="975.61" y="156.98"/>
      <point x="1008.91" y="275.43" type="curve"/>
      <point x="1036.4" y="275.43" type="line"/>
      <point x="1019.1" y="365.6" type="line"/>
      <point x="987.87" y="248.75"/>
      <point x="904.3" y="170.89"/>
      <point x="793.74" y="170.89" type="curve" smooth="yes"/>
      <point x="681.24" y="170.89"/>
      <point x="621.55" y="233.52"/>
      <point x="621.55" y="353.67" type="curve" smooth="yes"/>
      <point x="621.55" y="382.01"/>
      <point x="624.84" y="426.1"/>
      <point x="638.4300000000001" y="552.7" type="curve" smooth="yes"/>
      <point x="655.78" y="715.78"/>
      <point x="719.94" y="813.29"/>
      <point x="858.97" y="813.29" type="curve" smooth="yes"/>
      <point x="967.48" y="813.29"/>
      <point x="1043.75" y="744.42"/>
      <point x="1044.22" y="611.86" type="curve" smooth="yes"/>
      <point x="1044.22" y="603.86"/>
      <point x="1044.22" y="595.33"/>
      <point x="1043.69" y="586.8" type="curve"/>
      <point x="1083.12" y="693.47" type="line"/>
      <point x="1052.51" y="693.47" type="line"/>
      <point x="1048.61" y="825.26"/>
      <point x="971.63" y="907.83"/>
      <point x="828.7" y="907.83" type="curve" smooth="yes"/>
      <point x="635.28" y="907.83"/>
      <point x="544.93" y="773.46"/>
      <point x="520.81" y="538.04" type="curve" smooth="yes"/>
      <point x="507.69" y="411.85"/>
      <point x="503.93" y="366.82"/>
      <point x="503.93" y="334.36" type="curve" smooth="yes"/>
      <point x="503.93" y="166.35"/>
      <point x="590.93" y="73.23"/>
    </contour>
    <contour>
      <point x="986.51" y="87.17" type="line"/>
      <point x="1095.18" y="99.3" type="line"/>
      <point x="1182.07" y="891.3" type="line"/>
      <point x="1070.81" y="891.3" type="line"/>
      <point x="1070.28" y="885.47" type="line"/>
      <point x="1052.81" y="687.89" type="line"/>
      <point x="1049.75" y="665.53" type="line"/>
      <point x="1011.57" y="319.89" type="line"/>
      <point x="1013.63" y="297.82" type="line"/>
    </contour>
    <contour>
      <point x="1068.52" y="174.88" type="curve"/>
      <point x="986.51" y="87.17" type="line"/>
      <point x="1026.46" y="80.11"/>
      <point x="1059.89" y="78.11"/>
      <point x="1108.13" y="78.64" type="curve" smooth="yes"/>
      <point x="1366.47" y="80.23"/>
      <point x="1485.3" y="197.35"/>
      <point x="1518.01" y="469.69" type="curve" smooth="yes"/>
      <point x="1532.25" y="584.24"/>
      <point x="1538.25" y="658.46"/>
      <point x="1540.72" y="699.35" type="curve" smooth="yes"/>
      <point x="1564.36" y="1106.89"/>
      <point x="1312.94" y="1326.89"/>
      <point x="885.85" y="1326.89" type="curve" smooth="yes"/>
      <point x="411.89" y="1326.89"/>
      <point x="182.86" y="1063.88"/>
      <point x="135.97" y="587.92" type="curve" smooth="yes"/>
      <point x="122.72999999999999" y="458.77"/>
      <point x="113.97" y="357.28"/>
      <point x="110.68" y="269.35" type="curve" smooth="yes"/>
      <point x="97.99" y="-128.77"/>
      <point x="346.52" y="-345.47"/>
      <point x="790.32" y="-345.47" type="curve" smooth="yes"/>
      <point x="1040.09" y="-345.47"/>
      <point x="1222.73" y="-289.24"/>
      <point x="1356.15" y="-201.67000000000002" type="curve"/>
      <point x="1373.16" y="-96.43" type="line"/>
      <point x="1245.21" y="-190.06"/>
      <point x="1053.56" y="-255.76"/>
      <point x="798.03" y="-255.76" type="curve" smooth="yes"/>
      <point x="409.45" y="-255.76"/>
      <point x="202.3" y="-65.55"/>
      <point x="214.52" y="272.12" type="curve" smooth="yes"/>
      <point x="217.81" y="354.93"/>
      <point x="227.04" y="450.12"/>
      <point x="241.34" y="593.45" type="curve" smooth="yes"/>
      <point x="279.58" y="998.3"/>
      <point x="469.1" y="1238.24"/>
      <point x="881.26" y="1238.24" type="curve" smooth="yes"/>
      <point x="1256.31" y="1238.24"/>
      <point x="1460.87" y="1041.43"/>
      <point x="1437.35" y="698.23" type="curve" smooth="yes"/>
      <point x="1434.88" y="662.46"/>
      <point x="1427.35" y="578.82"/>
      <point x="1413.64" y="473.4" type="curve" smooth="yes"/>
      <point x="1387.7" y="256.52"/>
      <point x="1305.55" y="170.0"/>
      <point x="1140.11" y="170.0" type="curve" smooth="yes"/>
      <point x="1106.58" y="170.0"/>
      <point x="1091.17" y="171.47"/>
    </contour>
  </outline>
</glyph>
<glyph name="A" format="2">
  <advance width="1140.46"/>
  <unicode hex="0041"/>
  <anchor x="570.73" y="0.0" name="bottom"/>
  <anchor x="1126.65" y="0.0" name="ogonek"/>
  <anchor x="570.73" y="1278.0" name="top"/>
  <outline>
    <contour>
      <point x="57.98" y="0.0" type="line"/>
      <point x="184.84" y="0.0" type="line"/>
      <point x="556.79" y="1191.94" type="line"/>
      <point x="582.73" y="1191.94" type="line"/>
      <point x="955.62" y="0.0" type="line"/>
      <point x="1082.48" y="0.0" type="line"/>
      <point x="671.6800000000001" y="1278.0" type="line"/>
      <point x="467.84" y="1278.0" type="line"/>
    </contour>
    <contour>
      <point x="277.32" y="401.65" type="line"/>
      <point x="861.61" y="401.65" type="line"/>
      <point x="861.61" y="506.08" type="line"/>
      <point x="277.32" y="506.08" type="line"/>
    </contour>
  </outline>
</glyph>
<glyph name="B" format="2">
  <advance width="1149.03"/>
  <unicode hex="0042"/>
  <anchor x="575.31" y="0.0" name="bottom"/>
  <anchor x="575.31" y="1278.0" name="top"/>
  <outline>
    <contour>
      <point x="244.34" y="0.0" type="line"/>
      <point x="679.36" y="0.0" type="line" smooth="yes"/>
      <point x="943.33" y="0.0"/>
      <point x="1051.58" y="126.41"/>
      <point x="1051.58" y="330.37" type="curve" smooth="yes"/>
      <point x="1051.58" y="375.42" type="line" smooth="yes"/>
      <point x="1051.58" y="552.71"/>
      <point x="971.06" y="655.05"/>
      <point x="777.15" y="676.36" type="curve"/>
      <point x="779.97" y="676.49" type="line"/>
      <point x="949.59" y="692.26"/>
      <point x="1025.64" y="787.95"/>
      <point x="1025.64" y="949.47" type="curve" smooth="yes"/>
      <point x="1025.64" y="970.29" type="line" smooth="yes"/>
      <point x="1025.64" y="1162.3"/>
      <point x="923.39" y="1278.0"/>
      <point x="663.54" y="1278.0" type="curve" smooth="yes"/>
      <point x="242.22" y="1278.0" type="line"/>
      <point x="242.22" y="1174.63" type="line"/>
      <point x="653.47" y="1174.63" type="line" smooth="yes"/>
      <point x="836.85" y="1174.63"/>
      <point x="900.78" y="1090.3"/>
      <point x="900.78" y="953.33" type="curve" smooth="yes"/>
      <point x="900.78" y="933.1" type="line" smooth="yes"/>
      <point x="900.78" y="794.07"/>
      <point x="831.44" y="708.68"/>
      <point x="654.94" y="708.68" type="curve" smooth="yes"/>
      <point x="246.63" y="708.68" type="line"/>
      <point x="246.63" y="608.96" type="line"/>
      <point x="656.0" y="608.96" type="line" smooth="yes"/>
      <point x="855.2" y="608.96"/>
      <point x="925.13" y="522.1"/>
      <point x="925.13" y="376.6" type="curve" smooth="yes"/>
      <point x="925.13" y="336.2" type="line" smooth="yes"/>
      <point x="925.13" y="193.17000000000002"/>
      <point x="855.67" y="103.9"/>
      <point x="668.23" y="103.9" type="curve" smooth="yes"/>
      <point x="244.34" y="103.9" type="line"/>
    </contour>
    <contour>
      <point x="162.21" y="0.0" type="line"/>
      <point x="285.48" y="0.0" type="line"/>
      <point x="285.48" y="1278.0" type="line"/>
      <point x="162.21" y="1278.0" type="line"/>
    </contour>
  </outline>
</glyph>
<glyph name="C" format="2">
  <advance width="1008.78"/>
  <unicode hex="0043"/>
  <anchor x="542.79" y="0.0" name="bottom"/>
  <anchor x="542.79" y="1278.0" name="top"/>
  <outline>
    <contour>
      <point x="569.55" y="-21.71" type="curve" smooth="yes"/>
      <point x="725.9" y="-21.71"/>
      <point x="841.49" y="32.28"/>
      <point x="908.73" y="83.51" type="curve"/>
      <point x="919.56" y="204.36" type="line"/>
      <point x="838.62" y="141.25"/>
      <point x="731.15" y="91.08000000000001"/>
      <point x="587.04" y="91.08000000000001" type="curve" smooth="yes"/>
      <point x="354.89" y="91.08000000000001"/>
      <point x="238.08" y="232.71"/>
      <point x="238.08" y="480.56" type="curve" smooth="yes"/>
      <point x="238.08" y="801.09" type="line" smooth="yes"/>
      <point x="238.08" y="1049.88"/>
      <point x="354.42" y="1190.04"/>
      <point x="579.16" y="1190.04" type="curve" smooth="yes"/>
      <point x="724.39" y="1190.04"/>
      <point x="830.09" y="1136.93"/>
      <point x="909.56" y="1077.82" type="curve"/>
      <point x="898.26" y="1196.02" type="line"/>
      <point x="831.49" y="1245.78"/>
      <point x="718.08" y="1299.71"/>
      <point x="564.85" y="1299.71" type="curve" smooth="yes"/>
      <point x="263.7" y="1299.71"/>
      <point x="111.63" y="1120.17"/>
      <point x="111.63" y="802.68" type="curve" smooth="yes"/>
      <point x="111.63" y="476.85" type="line" smooth="yes"/>
      <point x="111.63" y="158.77"/>
      <point x="263.7" y="-21.71"/>
    </contour>
  </outline>
</glyph>
<glyph name="D" format="2">
  <advance width="1167.74"/>
  <unicode hex="0044"/>
  <anchor x="577.25" y="0.0" name="bottom"/>
  <anchor x="592.37" y="639.0" name="center"/>
  <anchor x="577.25" y="1278.0" name="top"/>
  <outline>
    <contour>
      <point x="244.22" y="0.0" type="line"/>
      <point x="567.38" y="0.0" type="line" smooth="yes"/>
      <point x="888.52" y="0.0"/>
      <point x="1057.76" y="175.65"/>
      <point x="1057.76" y="492.01" type="curve" smooth="yes"/>
      <point x="1057.76" y="787.05" type="line" smooth="yes"/>
      <point x="1057.76" y="1103.35"/>
      <point x="887.99" y="1278.0"/>
      <point x="567.38" y="1278.0" type="curve" smooth="yes"/>
      <point x="242.75" y="1278.0" type="line"/>
      <point x="242.75" y="1173.04" type="line"/>
      <point x="563.2" y="1173.04" type="line" smooth="yes"/>
      <point x="806.1" y="1173.04"/>
      <point x="932.37" y="1036.77"/>
      <point x="932.37" y="786.05" type="curve" smooth="yes"/>
      <point x="932.37" y="493.01" type="line" smooth="yes"/>
      <point x="932.37" y="243.29"/>
      <point x="806.1" y="106.02000000000001"/>
      <point x="563.2" y="106.02000000000001" type="curve" smooth="yes"/>
      <point x="244.22" y="106.02000000000001" type="line"/>
    </contour>
    <contour>
      <point x="162.21" y="0.0" type="line"/>
      <point x="285.48" y="0.0" type="line"/>
      <point x="285.48" y="1278.0" type="line"/>
      <point x="162.21" y="1278.0" type="line"/>
    </contour>
  </outline>
</glyph>
<glyph name="E" format="2">
  <advance width="1035.73"/>
  <unicode hex="0045"/>
  <anchor x="552.24" y="0.0" name="bottom"/>
  <anchor x="969.61" y="0.0" name="ogonek"/>
  <anchor x="552.24" y="1278.0" name="top"/>
  <anchor x="22.82" y="1278.0" name="topleft"/>
  <outline>
    <contour>
      <point x="162.21" y="0.0" type="line"/>
      <point x="285.48" y="0.0" type="line"/>
      <point x="285.48" y="1278.0" type="line"/>
      <point x="162.21" y="1278.0" type="line"/>
    </contour>
    <contour>
      <point x="199.59" y="0.0" type="line"/>
      <point x="931.92" y="0.0" type="line"/>
      <point x="931.92" y="105.49000000000001" type="line"/>
      <point x="199.59" y="105.49000000000001" type="line"/>
    </contour>
    <contour>
      <point x="232.03" y="600.9" type="line"/>
      <point x="911.33" y="600.9" type="line"/>
      <point x="911.33" y="705.33" type="line"/>
      <point x="232.03" y="705.33" type="line"/>
    </contour>
    <contour>
      <point x="198.12" y="1173.04" type="line"/>
      <point x="925.86" y="1173.04" type="line"/>
      <point x="925.86" y="1278.0" type="line"/>
      <point x="198.12" y="1278.0" type="line"/>
    </contour>
  </outline>
</glyph>
<glyph name="F" format="2">
  <advance width="992.55"/>
  <unicode hex="0046"/>
  <anchor x="496.54" y="0.0" name="bottom"/>
  <anchor x="496.54" y="1278.0" name="top"/>
  <outline>
    <contour>
      <point x="162.21" y="0.0" type="line"/>
      <point x="286.54" y="0.0" type="line"/>
      <point x="286.54" y="1278.0" type="line"/>
      <point x="162.21" y="1278.0" type="line"/>
    </contour>
    <contour>
      <point x="232.03" y="560.06" type="line"/>
      <point x="890.62" y="560.06" type="line"/>
      <point x="890.62" y="665.55" type="line"/>
      <point x="232.03" y="665.55" type="line"/>
    </contour>
    <contour>
      <point x="198.12" y="1172.51" type="line"/>
      <point x="905.15" y="1172.51" type="line"/>
      <point x="905.15" y="1278.0" type="line"/>
      <point x="198.12" y="1278.0" type="line"/>
    </contour>
  </outline>
</glyph>
<glyph name="G" format="2">
  <advance width="1161.69"/>
  <unicode hex="0047"/>
  <anchor x="576.26" y="0.0" name="bottom"/>
  <anchor x="576.26" y="1278.0" name="top"/>
  <outline>
    <contour>
      <point x="547.99" y="-22.240000000000002" type="curve" smooth="yes"/>
      <point x="767.51" y="-22.240000000000002"/>
      <point x="867.67" y="95.86"/>
      <point x="900.2" y="223.56" type="curve"/>
      <point x="1020.24" y="222.09" type="line"/>
      <point x="1020.24" y="703.32" type="line"/>
      <point x="600.85" y="703.32" type="line"/>
      <point x="600.85" y="599.36" type="line"/>
      <point x="921.45" y="599.36" type="line"/>
      <point x="898.03" y="645.86" type="line"/>
      <point x="898.03" y="310.73" type="line"/>
      <point x="863.68" y="187.64"/>
      <point x="762.05" y="85.84"/>
      <point x="583.85" y="85.84" type="curve" smooth="yes"/>
      <point x="354.0" y="85.84"/>
      <point x="238.08" y="224.23000000000002"/>
      <point x="238.08" y="470.25" type="curve" smooth="yes"/>
      <point x="238.08" y="784.8" type="line" smooth="yes"/>
      <point x="238.08" y="1047.18"/>
      <point x="364.48" y="1191.63"/>
      <point x="616.53" y="1191.63" type="curve" smooth="yes"/>
      <point x="782.23" y="1191.63"/>
      <point x="904.82" y="1137.46"/>
      <point x="995.06" y="1075.88" type="curve"/>
      <point x="982.7" y="1190.49" type="line"/>
      <point x="905.69" y="1243.72"/>
      <point x="777.39" y="1299.71"/>
      <point x="597.92" y="1299.71" type="curve" smooth="yes"/>
      <point x="278.59" y="1299.71"/>
      <point x="111.63" y="1115.82"/>
      <point x="111.63" y="786.92" type="curve" smooth="yes"/>
      <point x="111.63" y="469.25" type="line" smooth="yes"/>
      <point x="111.63" y="155.71"/>
      <point x="261.1" y="-22.240000000000002"/>
    </contour>
    <contour>
      <point x="904.68" y="264.47" type="line"/>
      <point x="898.03" y="0.0" type="line"/>
      <point x="1020.24" y="0.0" type="line"/>
      <point x="1020.24" y="264.47" type="line"/>
    </contour>
  </outline>
</glyph>
<glyph name="H" format="2">
  <advance width="1223.45"/>
  <unicode hex="0048"/>
  <anchor x="611.96" y="0.0" name="bottom"/>
  <anchor x="611.96" y="639.0" name="center"/>
  <anchor x="611.96" y="1278.0" name="top"/>
  <anchor x="22.82" y="1278.0" name="topleft"/>
  <outline>
    <contour>
      <point x="287.07" y="0.0" type="line"/>
      <point x="287.07" y="1278.0" type="line"/>
      <point x="162.21" y="1278.0" type="line"/>
      <point x="162.21" y="0.0" type="line"/>
    </contour>
    <contour>
      <point x="1061.24" y="0.0" type="line"/>
      <point x="1061.24" y="1278.0" type="line"/>
      <point x="936.38" y="1278.0" type="line"/>
      <point x="936.38" y="0.0" type="line"/>
    </contour>
    <contour>
      <point x="233.5" y="713.33" type="line"/>
      <point x="233.5" y="607.84" type="line"/>
      <point x="988.06" y="607.84" type="line"/>
      <point x="988.06" y="713.33" type="line"/>
    </contour>
  </outline>
</glyph>
<glyph name="J" format="2">
  <advance width="825.76"/>
  <unicode hex="004A"/>
  <anchor x="413.88" y="0.0" name="bottom"/>
  <anchor x="609.09" y="1278.0" name="top"/>
  <outline>
    <contour>
      <point x="316.87" y="-15.120000000000001" type="curve" smooth="yes"/>
      <point x="575.95" y="-15.120000000000001"/>
      <point x="672.55" y="113.01"/>
      <point x="672.55" y="353.33" type="curve" smooth="yes"/>
      <point x="672.55" y="1278.0" type="line"/>
      <point x="547.69" y="1278.0" type="line"/>
      <point x="547.69" y="360.16" type="line" smooth="yes"/>
      <point x="547.69" y="181.36"/>
      <point x="484.29" y="94.49000000000001"/>
      <point x="294.61" y="94.49000000000001" type="curve" smooth="yes"/>
      <point x="216.44" y="94.49000000000001"/>
      <point x="139.39" y="110.9"/>
      <point x="67.22" y="143.66" type="curve"/>
      <point x="77.52" y="30.05" type="line"/>
      <point x="144.52" y="1.17"/>
      <point x="229.99" y="-15.120000000000001"/>
    </contour>
  </outline>
</glyph>
<glyph name="K" format="2">
  <advance width="1114.69"/>
  <unicode hex="004B"/>
  <anchor x="568.14" y="0.0" name="bottom"/>
  <anchor x="568.14" y="1278.0" name="top"/>
  <outline>
    <contour>
      <point x="914.02" y="0.0" type="line"/>
      <point x="1063.48" y="0.0" type="line"/>
      <point x="528.22" y="677.13" type="line"/>
      <point x="529.22" y="642.29" type="line"/>
      <point x="1050.95" y="1278.0" type="line"/>
      <point x="906.61" y="1278.0" type="line"/>
      <point x="435.56" y="703.39" type="line"/>
      <point x="275.3" y="703.39" type="line"/>
      <point x="275.3" y="602.67" type="line"/>
      <point x="435.56" y="602.67" type="line"/>
    </contour>
    <contour>
      <point x="162.21" y="0.0" type="line"/>
      <point x="286.01" y="0.0" type="line"/>
      <point x="286.01" y="1278.0" type="line"/>
      <point x="162.21" y="1278.0" type="line"/>
    </contour>
  </outline>
</glyph>
<glyph name="L" format="2">
  <advance width="968.19"/>
  <unicode hex="004C"/>
  <anchor x="527.41" y="0.0" name="bottom"/>
  <anchor x="469.11" y="649.29" name="center"/>
  <anchor x="225.14" y="1278.0" name="top"/>
  <anchor x="671.46" y="1278.0" name="topright"/>
  <outline>
    <contour>
      <point x="287.07" y="0.0" type="line"/>
      <point x="287.07" y="1278.0" type="line"/>
      <point x="162.21" y="1278.0" type="line"/>
      <point x="162.21" y="0.0" type="line"/>
    </contour>
    <contour>
      <point x="226.62" y="106.55000000000001" type="line"/>
      <point x="226.62" y="0.0" type="line"/>
      <point x="904.61" y="0.0" type="line"/>
      <point x="904.61" y="106.55000000000001" type="line"/>
    </contour>
  </outline>
</glyph>
<glyph name="M" format="2">
  <advance width="1473.28"/>
  <unicode hex="004D"/>
  <anchor x="737.14" y="0.0" name="bottom"/>
  <anchor x="737.14" y="1278.0" name="top"/>
  <outline>
    <contour>
      <point x="138.45" y="0.0" type="line"/>
      <point x="260.6" y="0.0" type="line"/>
      <point x="281.65" y="571.5699999999999" type="line"/>
      <point x="302.76" y="1150.66" type="line"/>
      <point x="321.58" y="1150.66" type="line"/>
      <point x="666.22" y="146.59" type="line"/>
      <point x="807.06" y="146.59" type="line"/>
      <point x="1151.7" y="1150.66" type="line"/>
      <point x="1170.99" y="1150.66" type="line"/>
      <point x="1191.57" y="572.5699999999999" type="line"/>
      <point x="1213.15" y="0.0" type="line"/>
      <point x="1334.83" y="0.0" type="line"/>
      <point x="1281.78" y="1278.0" type="line"/>
      <point x="1080.18" y="1278.0" type="line"/>
      <point x="744.08" y="296.72" type="line"/>
      <point x="729.2" y="296.72" type="line"/>
      <point x="393.1" y="1278.0" type="line"/>
      <point x="191.97" y="1278.0" type="line"/>
    </contour>
  </outline>
</glyph>
<glyph name="N" format="2">
  <advance width="1223.45"/>
  <unicode hex="004E"/>
  <anchor x="613.55" y="0.0" name="bottom"/>
  <anchor x="613.55" y="1278.0" name="top"/>
  <outline>
    <contour>
      <point x="356.46000000000004" y="1278.0" type="line"/>
      <point x="162.21" y="1278.0" type="line"/>
      <point x="162.21" y="0.0" type="line"/>
      <point x="283.89" y="0.0" type="line"/>
      <point x="283.89" y="557.63" type="line"/>
      <point x="278.71" y="1153.78" type="line"/>
      <point x="291.65" y="1153.78" type="line"/>
      <point x="870.7" y="0.0" type="line"/>
      <point x="1061.24" y="0.0" type="line"/>
      <point x="1061.24" y="1278.0" type="line"/>
      <point x="939.56" y="1278.0" type="line"/>
      <point x="939.56" y="695.27" type="line"/>
      <point x="944.74" y="131.05" type="line"/>
      <point x="931.8" y="131.05" type="line"/>
    </contour>
  </outline>
</glyph>
<glyph name="O" format="2">
  <advance width="1175.93"/>
  <unicode hex="004F"/>
  <anchor x="588.2" y="0.0" name="bottom"/>
  <anchor x="588.2" y="639.0" name="center"/>
  <anchor x="821.01" y="5.0" name="ogonek"/>
  <anchor x="588.2" y="1278.0" name="top"/>
  <anchor x="6.47" y="1278.0" name="topleft"/>
  <anchor x="982.39" y="1278.0" name="topright"/>
  <outline>
    <contour>
      <point x="587.73" y="-22.240000000000002" type="curve" smooth="yes"/>
      <point x="897.7" y="-22.240000000000002"/>
      <point x="1064.3" y="159.18"/>
      <point x="1064.3" y="483.02" type="curve" smooth="yes"/>
      <point x="1064.3" y="795.51" type="line" smooth="yes"/>
      <point x="1064.3" y="1118.82"/>
      <point x="897.7" y="1300.24"/>
      <point x="587.73" y="1300.24" type="curve" smooth="yes"/>
      <point x="277.23" y="1300.24"/>
      <point x="111.63" y="1118.82"/>
      <point x="111.63" y="795.51" type="curve" smooth="yes"/>
      <point x="111.63" y="483.02" type="line" smooth="yes"/>
      <point x="111.63" y="159.18"/>
      <point x="277.23" y="-22.240000000000002"/>
    </contour>
    <contour>
      <point x="587.73" y="83.19" type="curve" smooth="yes"/>
      <point x="357.0" y="83.19"/>
      <point x="238.08" y="226.64"/>
      <point x="238.08" y="478.78" type="curve" smooth="yes"/>
      <point x="238.08" y="800.22" type="line" smooth="yes"/>
      <point x="238.08" y="1052.89"/>
      <point x="357.0" y="1194.81"/>
      <point x="587.73" y="1194.81" type="curve" smooth="yes"/>
      <point x="818.4" y="1194.81"/>
      <point x="937.85" y="1052.89"/>
      <point x="937.85" y="800.22" type="curve" smooth="yes"/>
      <point x="937.85" y="478.78" type="line" smooth="yes"/>
      <point x="937.85" y="226.64"/>
      <point x="818.4" y="83.19"/>
    </contour>
  </outline>
</glyph>
<glyph name="P" format="2">
  <advance width="1105.33"/>
  <unicode hex="0050"/>
  <anchor x="550.43" y="0.0" name="bottom"/>
  <anchor x="550.43" y="1278.0" name="top"/>
  <outline>
    <contour>
      <point x="241.57" y="442.9" type="line"/>
      <point x="618.84" y="442.9" type="line" smooth="yes"/>
      <point x="892.57" y="442.9"/>
      <point x="1012.29" y="585.43"/>
      <point x="1012.29" y="814.8" type="curve" smooth="yes"/>
      <point x="1012.29" y="909.45" type="line" smooth="yes"/>
      <point x="1012.29" y="1136.88"/>
      <point x="893.57" y="1278.0"/>
      <point x="620.78" y="1278.0" type="curve" smooth="yes"/>
      <point x="240.1" y="1278.0" type="line"/>
      <point x="240.1" y="1174.57" type="line"/>
      <point x="617.72" y="1174.57" type="line" smooth="yes"/>
      <point x="809.09" y="1174.57"/>
      <point x="887.96" y="1073.89"/>
      <point x="887.96" y="905.86" type="curve" smooth="yes"/>
      <point x="887.96" y="818.39" type="line" smooth="yes"/>
      <point x="887.96" y="650.54"/>
      <point x="808.62" y="547.33"/>
      <point x="615.25" y="547.33" type="curve" smooth="yes"/>
      <point x="241.57" y="547.33" type="line"/>
    </contour>
    <contour>
      <point x="162.21" y="0.0" type="line"/>
      <point x="285.48" y="0.0" type="line"/>
      <point x="285.48" y="461.44" type="line"/>
      <point x="284.95" y="516.66" type="line"/>
      <point x="284.95" y="1278.0" type="line"/>
      <point x="162.21" y="1278.0" type="line"/>
    </contour>
  </outline>
</glyph>
<glyph name="Q" format="2">
  <advance width="1177.46"/>
  <unicode hex="0051"/>
  <anchor x="588.73" y="0.0" name="bottom"/>
  <anchor x="588.73" y="1278.0" name="top"/>
  <outline>
    <contour>
      <point x="1175.7" y="-34.01" type="line"/>
      <point x="1175.7" y="77.54" type="line"/>
      <point x="743.64" y="71.30000000000001" type="line"/>
      <point x="752.1" y="74.72" type="line"/>
      <point x="928.21" y="100.49000000000001"/>
      <point x="1064.3" y="225.83"/>
      <point x="1064.3" y="499.04" type="curve" smooth="yes"/>
      <point x="1064.3" y="795.51" type="line" smooth="yes"/>
      <point x="1064.3" y="1120.23"/>
      <point x="898.17" y="1300.24"/>
      <point x="587.73" y="1300.24" type="curve" smooth="yes"/>
      <point x="276.76" y="1300.24"/>
      <point x="111.63" y="1120.23"/>
      <point x="111.63" y="795.51" type="curve" smooth="yes"/>
      <point x="111.63" y="483.02" type="line" smooth="yes"/>
      <point x="111.63" y="161.65"/>
      <point x="278.64" y="-12.59"/>
      <point x="640.16" y="-21.3" type="curve" smooth="yes"/>
    </contour>
    <contour>
      <point x="621.08" y="83.72" type="line" smooth="yes"/>
      <point x="376.0" y="88.49000000000001"/>
      <point x="238.08" y="227.11"/>
      <point x="238.08" y="478.78" type="curve" smooth="yes"/>
      <point x="238.08" y="800.22" type="line" smooth="yes"/>
      <point x="238.08" y="1053.83"/>
      <point x="357.0" y="1194.81"/>
      <point x="587.73" y="1194.81" type="curve" smooth="yes"/>
      <point x="818.4" y="1194.81"/>
      <point x="937.85" y="1053.83"/>
      <point x="937.85" y="800.22" type="curve" smooth="yes"/>
      <point x="937.85" y="477.84" type="line" smooth="yes"/>
      <point x="937.85" y="224.06"/>
      <point x="804.64" y="115.07"/>
      <point x="640.85" y="83.19" type="curve"/>
    </contour>
  </outline>
</glyph>
<glyph name="R" format="2">
  <advance width="1136.68"/>
  <unicode hex="0052"/>
  <anchor x="579.31" y="0.0" name="bottom"/>
  <anchor x="568.84" y="1278.0" name="top"/>
  <outline>
    <contour>
      <point x="915.19" y="0.0" type="line"/>
      <point x="1044.23" y="0.0" type="line"/>
      <point x="999.82" y="280.06" type="line" smooth="yes"/>
      <point x="969.82" y="471.54"/>
      <point x="917.88" y="591.12"/>
      <point x="697.76" y="606.65" type="curve"/>
      <point x="752.15" y="586.58" type="line"/>
      <point x="753.09" y="599.42" type="line"/>
      <point x="946.77" y="616.49"/>
      <point x="1024.17" y="735.24"/>
      <point x="1024.17" y="907.11" type="curve" smooth="yes"/>
      <point x="1024.17" y="943.34" type="line" smooth="yes"/>
      <point x="1024.17" y="1150.0"/>
      <point x="911.45" y="1278.0"/>
      <point x="649.54" y="1278.0" type="curve" smooth="yes"/>
      <point x="241.69" y="1278.0" type="line"/>
      <point x="241.69" y="1174.1" type="line"/>
      <point x="633.76" y="1174.1" type="line" smooth="yes"/>
      <point x="823.79" y="1174.1"/>
      <point x="898.25" y="1080.59"/>
      <point x="898.25" y="924.32" type="curve" smooth="yes"/>
      <point x="898.25" y="891.15" type="line" smooth="yes"/>
      <point x="898.25" y="733.29"/>
      <point x="826.2" y="631.96"/>
      <point x="639.17" y="631.96" type="curve" smooth="yes"/>
      <point x="246.63" y="630.96" type="line"/>
      <point x="246.63" y="531.24" type="line"/>
      <point x="611.59" y="530.71" type="line" smooth="yes"/>
      <point x="806.38" y="530.18"/>
      <point x="854.2" y="420.21"/>
      <point x="876.96" y="266.05" type="curve" smooth="yes"/>
    </contour>
    <contour>
      <point x="162.21" y="0.0" type="line"/>
      <point x="285.48" y="0.0" type="line"/>
      <point x="285.48" y="551.25" type="line"/>
      <point x="284.95" y="598.99" type="line"/>
      <point x="284.95" y="1278.0" type="line"/>
      <point x="162.21" y="1278.0" type="line"/>
    </contour>
  </outline>
</glyph>
<glyph name="S" format="2">
  <advance width="1033.96"/>
  <unicode hex="0053"/>
  <anchor x="508.48" y="0.0" name="bottom"/>
  <anchor x="508.48" y="1278.0" name="top"/>
  <outline>
    <contour>
      <point x="506.06" y="-21.18" type="curve" smooth="yes"/>
      <point x="790.03" y="-21.18"/>
      <point x="935.04" y="98.06"/>
      <point x="935.04" y="322.78" type="curve" smooth="yes"/>
      <point x="935.04" y="345.13" type="line" smooth="yes"/>
      <point x="935.04" y="560.79"/>
      <point x="833.79" y="641.61"/>
      <point x="548.33" y="705.97" type="curve" smooth="yes"/>
      <point x="288.95" y="764.03"/>
      <point x="221.9" y="829.9"/>
      <point x="221.9" y="968.69" type="curve" smooth="yes"/>
      <point x="221.9" y="973.63" type="line" smooth="yes"/>
      <point x="221.9" y="1110.77"/>
      <point x="305.94" y="1191.69"/>
      <point x="512.62" y="1191.69" type="curve" smooth="yes"/>
      <point x="677.67" y="1191.69"/>
      <point x="801.85" y="1144.93"/>
      <point x="894.15" y="1087.05" type="curve"/>
      <point x="882.26" y="1203.78" type="line"/>
      <point x="805.31" y="1251.07"/>
      <point x="677.25" y="1298.71"/>
      <point x="497.13" y="1298.71" type="curve" smooth="yes"/>
      <point x="226.23" y="1298.71"/>
      <point x="95.45" y="1181.47"/>
      <point x="95.45" y="977.34" type="curve" smooth="yes"/>
      <point x="95.45" y="969.22" type="line" smooth="yes"/>
      <point x="95.45" y="768.85"/>
      <point x="194.35" y="674.2"/>
      <point x="487.28" y="609.9" type="curve" smooth="yes"/>
      <point x="730.54" y="557.84"/>
      <point x="808.59" y="497.62"/>
      <point x="808.59" y="344.13" type="curve" smooth="yes"/>
      <point x="808.59" y="324.9" type="line" smooth="yes"/>
      <point x="808.59" y="169.35"/>
      <point x="706.2" y="89.02000000000001"/>
      <point x="498.52" y="89.02000000000001" type="curve" smooth="yes"/>
      <point x="332.17" y="89.02000000000001"/>
      <point x="192.87" y="142.96"/>
      <point x="91.75" y="206.66" type="curve"/>
      <point x="104.64" y="81.1" type="line"/>
      <point x="182.0" y="33.87"/>
      <point x="321.71" y="-21.18"/>
    </contour>
  </outline>
</glyph>
<glyph name="T" format="2">
  <advance width="1044.51"/>
  <unicode hex="0054"/>
  <anchor x="522.49" y="0.0" name="bottom"/>
  <anchor x="522.49" y="639.0" name="center"/>
  <anchor x="522.49" y="1278.0" name="top"/>
  <outline>
    <contour>
      <point x="460.09" y="0.0" type="line"/>
      <point x="584.95" y="0.0" type="line"/>
      <point x="584.95" y="1259.45" type="line"/>
      <point x="460.09" y="1259.45" type="line"/>
    </contour>
    <contour>
      <point x="68.58" y="1172.98" type="line"/>
      <point x="975.93" y="1172.98" type="line"/>
      <point x="975.93" y="1278.0" type="line"/>
      <point x="68.58" y="1278.0" type="line"/>
    </contour>
  </outline>
</glyph>
<glyph name="U" format="2">
  <advance width="1203.92"/>
  <unicode hex="0055"/>
  <anchor x="601.96" y="0.0" name="bottom"/>
  <anchor x="830.41" y="5.0" name="ogonek"/>
  <anchor x="601.96" y="1278.0" name="top"/>
  <anchor x="1173.52" y="1278.0" name="topright"/>
  <outline>
    <contour>
      <point x="601.96" y="-22.240000000000002" type="curve" smooth="yes"/>
      <point x="907.7" y="-22.240000000000002"/>
      <point x="1052.18" y="144.47"/>
      <point x="1052.18" y="451.43" type="curve" smooth="yes"/>
      <point x="1052.18" y="1278.0" type="line"/>
      <point x="927.32" y="1278.0" type="line"/>
      <point x="927.32" y="448.25" type="line" smooth="yes"/>
      <point x="927.32" y="214.05"/>
      <point x="827.87" y="85.31"/>
      <point x="601.96" y="85.31" type="curve" smooth="yes"/>
      <point x="376.05" y="85.31"/>
      <point x="276.6" y="214.05"/>
      <point x="276.6" y="448.25" type="curve" smooth="yes"/>
      <point x="276.6" y="1278.0" type="line"/>
      <point x="151.74" y="1278.0" type="line"/>
      <point x="151.74" y="451.43" type="line" smooth="yes"/>
      <point x="151.74" y="144.47"/>
      <point x="296.28" y="-22.240000000000002"/>
    </contour>
  </outline>
</glyph>
<glyph name="V" format="2">
  <advance width="1120.34"/>
  <unicode hex="0056"/>
  <anchor x="560.67" y="0.0" name="bottom"/>
  <anchor x="560.67" y="1278.0" name="top"/>
  <outline>
    <contour>
      <point x="457.72" y="0.0" type="line"/>
      <point x="663.62" y="0.0" type="line"/>
      <point x="1063.3" y="1278.0" type="line"/>
      <point x="932.73" y="1278.0" type="line"/>
      <point x="572.14" y="95.54" type="line"/>
      <point x="548.2" y="95.54" type="line"/>
      <point x="187.61" y="1278.0" type="line"/>
      <point x="57.04" y="1278.0" type="line"/>
    </contour>
  </outline>
</glyph>
<glyph name="W" format="2">
  <advance width="1613.05"/>
  <unicode hex="0057"/>
  <anchor x="807.26" y="0.0" name="bottom"/>
  <anchor x="807.26" y="1278.0" name="top"/>
  <outline>
    <contour>
      <point x="349.6" y="0.0" type="line"/>
      <point x="554.03" y="0.0" type="line"/>
      <point x="724.27" y="781.13" type="line"/>
      <point x="798.79" y="1140.16" type="line"/>
      <point x="814.79" y="1140.16" type="line"/>
      <point x="889.31" y="781.13" type="line"/>
      <point x="1061.02" y="0.0" type="line"/>
      <point x="1263.98" y="0.0" type="line"/>
      <point x="1539.07" y="1278.0" type="line"/>
      <point x="1412.15" y="1278.0" type="line"/>
      <point x="1196.16" y="242.48000000000002" type="line"/>
      <point x="1169.2" y="105.02000000000001" type="line"/>
      <point x="1148.91" y="105.02000000000001" type="line"/>
      <point x="1123.01" y="242.48000000000002" type="line"/>
      <point x="901.56" y="1243.18" type="line"/>
      <point x="712.02" y="1243.18" type="line"/>
      <point x="490.98" y="242.95000000000002" type="line"/>
      <point x="464.61" y="105.02000000000001" type="line"/>
      <point x="444.85" y="105.02000000000001" type="line"/>
      <point x="417.89" y="242.95000000000002" type="line"/>
      <point x="201.9" y="1278.0" type="line"/>
      <point x="73.98" y="1278.0" type="line"/>
    </contour>
  </outline>
</glyph>
<glyph name="X" format="2">
  <advance width="1115.04"/>
  <unicode hex="0058"/>
  <anchor x="558.02" y="0.0" name="bottom"/>
  <anchor x="558.02" y="1278.0" name="top"/>
  <outline>
    <contour>
      <point x="62.39" y="0.0" type="line"/>
      <point x="201.2" y="0.0" type="line"/>
      <point x="551.96" y="587.95" type="line"/>
      <point x="564.08" y="587.95" type="line"/>
      <point x="914.31" y="0.0" type="line"/>
      <point x="1052.65" y="0.0" type="line"/>
      <point x="647.03" y="676.07" type="line"/>
      <point x="647.03" y="645.64" type="line"/>
      <point x="1045.53" y="1278.0" type="line"/>
      <point x="908.84" y="1278.0" type="line"/>
      <point x="564.08" y="726.46" type="line"/>
      <point x="552.49" y="726.46" type="line"/>
      <point x="206.73000000000002" y="1278.0" type="line"/>
      <point x="70.51" y="1278.0" type="line"/>
      <point x="469.01" y="645.64" type="line"/>
      <point x="469.01" y="676.07" type="line"/>
    </contour>
  </outline>
</glyph>
<glyph name="Y" format="2">
  <advance width="1077.69"/>
  <unicode hex="0059"/>
  <anchor x="539.08" y="0.0" name="bottom"/>
  <anchor x="539.08" y="1278.0" name="top"/>
  <anchor x="22.82" y="1278.0" name="topleft"/>
  <outline>
    <contour>
      <point x="485.04" y="397.85" type="line"/>
      <point x="593.18" y="397.85" type="line"/>
      <point x="1030.77" y="1278.0" type="line"/>
      <point x="898.2" y="1278.0" type="line"/>
      <point x="645.01" y="760.83" type="line"/>
      <point x="545.14" y="547.01" type="line"/>
      <point x="533.08" y="547.01" type="line"/>
      <point x="433.21" y="760.83" type="line"/>
      <point x="179.49" y="1278.0" type="line"/>
      <point x="46.92" y="1278.0" type="line"/>
    </contour>
    <contour>
      <point x="477.74" y="0.0" type="line"/>
      <point x="600.48" y="0.0" type="line"/>
      <point x="600.48" y="517.11" type="line"/>
      <point x="477.74" y="517.11" type="line"/>
    </contour>
  </outline>
</glyph>
<glyph name="Z" format="2">
  <advance width="1025.67"/>
  <unicode hex="005A"/>
  <anchor x="513.6" y="0.0" name="bottom"/>
  <anchor x="513.6" y="639.0" name="center"/>
  <anchor x="513.6" y="1278.0" name="top"/>
  <outline>
    <contour>
      <point x="932.57" y="106.02000000000001" type="line"/>
      <point x="237.74" y="106.02000000000001" type="line"/>
      <point x="925.98" y="1181.22" type="line"/>
      <point x="925.98" y="1278.0" type="line"/>
      <point x="98.22" y="1278.0" type="line"/>
      <point x="98.22" y="1173.51" type="line"/>
      <point x="781.4" y="1173.51" type="line"/>
      <point x="93.63" y="98.31" type="line"/>
      <point x="93.63" y="0.0" type="line"/>
      <point x="932.57" y="0.0" type="line"/>
    </contour>
  </outline>
</glyph>
<glyph name="bracketleft" format="2">
  <advance width="604.84"/>
  <unicode hex="005B"/>
  <outline>
    <contour>
      <point x="163.21" y="-240.24" type="line"/>
      <point x="547.49" y="-240.24" type="line"/>
      <point x="547.49" y="-146.29" type="line"/>
      <point x="277.06" y="-146.29" type="line"/>
      <point x="277.06" y="1256.58" type="line"/>
      <point x="547.49" y="1256.58" type="line"/>
      <point x="547.49" y="1350.53" type="line"/>
      <point x="163.21" y="1350.53" type="line"/>
    </contour>
  </outline>
</glyph>
<glyph name="backslash" format="2">
  <advance width="810.52"/>
  <unicode hex="005C"/>
  <outline>
    <contour>
      <point x="765.55" y="-236.83" type="line"/>
      <point x="159.7" y="1339.24" type="line"/>
      <point x="44.97" y="1339.24" type="line"/>
      <point x="650.29" y="-236.83" type="line"/>
    </contour>
  </outline>
</glyph>
<glyph name="bracketright" format="2">
  <advance width="604.84"/>
  <unicode hex="005D"/>
  <outline>
    <contour>
      <point x="441.63" y="-240.24" type="line"/>
      <point x="441.63" y="1350.53" type="line"/>
      <point x="57.35" y="1350.53" type="line"/>
      <point x="57.35" y="1256.58" type="line"/>
      <point x="327.78" y="1256.58" type="line"/>
      <point x="327.78" y="-146.29" type="line"/>
      <point x="57.35" y="-146.29" type="line"/>
      <point x="57.35" y="-240.24" type="line"/>
    </contour>
  </outline>
</glyph>
<glyph name="asciicircum" format="2">
  <advance width="826.45"/>
  <unicode hex="005E"/>
  <outline>
    <contour>
      <point x="329.08" y="1278.0" type="line"/>
      <point x="65.39" y="614.35" type="line"/>
      <point x="174.76" y="614.35" type="line"/>
      <point x="405.02" y="1199.95" type="line"/>
      <point x="420.9" y="1199.95" type="line"/>
      <point x="651.69" y="614.35" type="line"/>
      <point x="761.06" y="614.35" type="line"/>
      <point x="496.84000000000003" y="1278.0" type="line"/>
    </contour>
  </outline>
</glyph>
<glyph name="underscore" format="2">
  <advance width="914.98"/>
  <unicode hex="005F"/>
  <outline>
    <contour>
      <point x="62.69" y="-187.28" type="line"/>
      <point x="852.29" y="-187.28" type="line"/>
      <point x="852.29" y="-91.68" type="line"/>
      <point x="62.69" y="-91.68" type="line"/>
    </contour>
  </outline>
</glyph>
<glyph name="grave" format="2">
  <advance width="537.19"/>
  <unicode hex="0060"/>
  <anchor x="385.92" y="974.71" name="_top"/>
  <anchor x="381.98" y="1315.14" name="top"/>
  <outline>
    <contour>
      <point x="239.15" y="1364.24" type="line"/>
      <point x="102.11" y="1364.24" type="line"/>
      <point x="102.11" y="1361.71" type="line"/>
      <point x="329.47" y="1101.46" type="line"/>
      <point x="438.96" y="1101.46" type="line"/>
      <point x="438.96" y="1103.52" type="line"/>
    </contour>
  </outline>
</glyph>
<glyph name="a" format="2">
  <advance width="971.92"/>
  <unicode hex="0061"/>
  <anchor x="476.61" y="0.0" name="bottom"/>
  <anchor x="888.29" y="0.0" name="ogonek"/>
  <anchor x="476.61" y="974.71" name="top"/>
  <outline>
    <contour>
      <point x="724.85" y="0.0" type="line"/>
      <point x="846.06" y="0.0" type="line"/>
      <point x="846.06" y="644.56" type="line" smooth="yes"/>
      <point x="846.06" y="861.87"/>
      <point x="741.0" y="995.83"/>
      <point x="480.25" y="995.83" type="curve" smooth="yes"/>
      <point x="318.72" y="995.83"/>
      <point x="200.89" y="941.66"/>
      <point x="129.35" y="894.72" type="curve"/>
      <point x="117.46" y="788.06" type="line"/>
      <point x="204.41" y="842.76"/>
      <point x="321.0" y="893.46"/>
      <point x="462.76" y="893.46" type="curve" smooth="yes"/>
      <point x="644.45" y="893.46"/>
      <point x="726.38" y="809.42"/>
      <point x="726.38" y="642.5" type="curve"/>
      <point x="725.85" y="576.58" type="line"/>
      <point x="725.85" y="262.47" type="line"/>
      <point x="730.97" y="243.28" type="line"/>
    </contour>
    <contour>
      <point x="383.04" y="-20.59" type="curve" smooth="yes"/>
      <point x="601.5" y="-20.59"/>
      <point x="704.89" y="101.68"/>
      <point x="729.84" y="240.54" type="curve"/>
      <point x="754.56" y="240.54" type="line"/>
      <point x="731.32" y="327.36" type="line"/>
      <point x="704.85" y="188.93"/>
      <point x="599.22" y="81.31"/>
      <point x="419.31" y="81.31" type="curve" smooth="yes"/>
      <point x="277.17" y="81.31"/>
      <point x="203.37" y="145.41"/>
      <point x="203.37" y="264.96" type="curve" smooth="yes"/>
      <point x="203.37" y="283.19" type="line" smooth="yes"/>
      <point x="203.37" y="395.69"/>
      <point x="269.94" y="448.97"/>
      <point x="435.49" y="472.67" type="curve" smooth="yes"/>
      <point x="752.27" y="518.31" type="line"/>
      <point x="745.97" y="609.55" type="line"/>
      <point x="420.01" y="561.91" type="line" smooth="yes"/>
      <point x="182.35" y="527.38"/>
      <point x="82.63" y="447.85"/>
      <point x="82.63" y="276.42" type="curve" smooth="yes"/>
      <point x="82.63" y="249.71" type="line" smooth="yes"/>
      <point x="82.63" y="74.65"/>
      <point x="189.57" y="-20.59"/>
    </contour>
  </outline>
</glyph>
<glyph name="b" format="2">
  <advance width="1059.21"/>
  <unicode hex="0062"/>
  <anchor x="536.43" y="0.0" name="bottom"/>
  <anchor x="536.43" y="1326.35" name="top"/>
  <outline>
    <contour>
      <point x="589.29" y="-20.59" type="curve" smooth="yes"/>
      <point x="829.29" y="-20.59"/>
      <point x="957.64" y="127.65"/>
      <point x="957.64" y="403.66" type="curve" smooth="yes"/>
      <point x="957.64" y="572.76" type="line" smooth="yes"/>
      <point x="957.64" y="847.18"/>
      <point x="830.29" y="995.3"/>
      <point x="594.94" y="995.3" type="curve" smooth="yes"/>
      <point x="394.24" y="995.3"/>
      <point x="285.62" y="877.91"/>
      <point x="259.2" y="732.82" type="curve"/>
      <point x="224.35" y="732.82" type="line"/>
      <point x="255.6" y="644.41" type="line"/>
      <point x="283.54" y="791.25"/>
      <point x="395.34000000000003" y="895.52"/>
      <point x="555.43" y="895.52" type="curve" smooth="yes"/>
      <point x="737.92" y="895.52"/>
      <point x="835.84" y="786.37"/>
      <point x="835.84" y="581.24" type="curve" smooth="yes"/>
      <point x="835.84" y="397.3" type="line" smooth="yes"/>
      <point x="835.84" y="189.99"/>
      <point x="736.98" y="81.31"/>
      <point x="557.9" y="81.31" type="curve" smooth="yes"/>
      <point x="394.92" y="81.31"/>
      <point x="268.42" y="176.41"/>
      <point x="259.07" y="366.26" type="curve"/>
      <point x="218.52" y="252.7" type="line"/>
      <point x="258.61" y="252.7" type="line"/>
      <point x="278.1" y="87.15"/>
      <point x="402.54" y="-20.59"/>
    </contour>
    <contour>
      <point x="141.86" y="0.0" type="line"/>
      <point x="263.13" y="0.0" type="line"/>
      <point x="256.54" y="244.04" type="line"/>
      <point x="259.07" y="283.95" type="line"/>
      <point x="259.07" y="695.12" type="line"/>
      <point x="258.07" y="722.07" type="line"/>
      <point x="262.6" y="1001.19" type="line"/>
      <point x="262.6" y="1326.35" type="line"/>
      <point x="141.86" y="1326.35" type="line"/>
    </contour>
  </outline>
</glyph>
<glyph name="c" format="2">
  <advance width="863.13"/>
  <unicode hex="0063"/>
  <anchor x="477.6" y="0.0" name="bottom"/>
  <anchor x="477.6" y="974.71" name="top"/>
  <outline>
    <contour>
      <point x="499.02" y="-21.12" type="curve" smooth="yes"/>
      <point x="631.89" y="-21.12"/>
      <point x="724.66" y="22.52"/>
      <point x="781.43" y="64.81" type="curve"/>
      <point x="793.26" y="175.59" type="line"/>
      <point x="727.55" y="125.42"/>
      <point x="641.14" y="83.31"/>
      <point x="516.39" y="83.31" type="curve" smooth="yes"/>
      <point x="319.53" y="83.31"/>
      <point x="222.84" y="199.82"/>
      <point x="222.84" y="409.43" type="curve" smooth="yes"/>
      <point x="222.84" y="567.75" type="line" smooth="yes"/>
      <point x="222.84" y="779.01"/>
      <point x="320.0" y="893.99"/>
      <point x="514.98" y="893.99" type="curve" smooth="yes"/>
      <point x="636.85" y="893.99"/>
      <point x="721.67" y="852.82"/>
      <point x="784.73" y="802.18" type="curve"/>
      <point x="773.37" y="911.43" type="line"/>
      <point x="719.6" y="951.78"/>
      <point x="627.89" y="996.36"/>
      <point x="499.02" y="996.36" type="curve" smooth="yes"/>
      <point x="232.52" y="996.36"/>
      <point x="101.03999999999999" y="843.41"/>
      <point x="101.03999999999999" y="569.87" type="curve" smooth="yes"/>
      <point x="101.03999999999999" y="406.31" type="line" smooth="yes"/>
      <point x="101.03999999999999" y="132.36"/>
      <point x="231.99" y="-21.12"/>
    </contour>
  </outline>
</glyph>
<glyph name="d" format="2">
  <advance width="1059.21"/>
  <unicode hex="0064"/>
  <anchor x="522.78" y="0.0" name="bottom"/>
  <anchor x="522.78" y="488.12" name="center"/>
  <anchor x="522.78" y="1326.35" name="top"/>
  <anchor x="1085.14" y="1326.35" name="topright"/>
  <outline>
    <contour>
      <point x="464.27" y="-20.59" type="curve" smooth="yes"/>
      <point x="665.5" y="-20.59"/>
      <point x="774.65" y="96.8"/>
      <point x="801.07" y="241.89" type="curve"/>
      <point x="836.45" y="241.89" type="line"/>
      <point x="803.61" y="332.42" type="line"/>
      <point x="775.67" y="185.58"/>
      <point x="663.87" y="81.31"/>
      <point x="504.31" y="81.31" type="curve" smooth="yes"/>
      <point x="321.29" y="81.31"/>
      <point x="223.37" y="190.46"/>
      <point x="223.37" y="395.06" type="curve" smooth="yes"/>
      <point x="223.37" y="581.12" type="line" smooth="yes"/>
      <point x="223.37" y="786.84"/>
      <point x="322.76" y="895.52"/>
      <point x="502.9" y="895.52" type="curve" smooth="yes"/>
      <point x="666.94" y="895.52"/>
      <point x="791.32" y="798.3"/>
      <point x="800.14" y="610.57" type="curve"/>
      <point x="839.63" y="722.01" type="line"/>
      <point x="799.54" y="722.01" type="line"/>
      <point x="780.05" y="887.56"/>
      <point x="656.14" y="995.3"/>
      <point x="469.92" y="995.3" type="curve" smooth="yes"/>
      <point x="228.86" y="995.3"/>
      <point x="101.57" y="847.06"/>
      <point x="101.57" y="571.05" type="curve" smooth="yes"/>
      <point x="101.57" y="401.95" type="line" smooth="yes"/>
      <point x="101.57" y="127.53"/>
      <point x="228.92" y="-20.59"/>
    </contour>
    <contour>
      <point x="796.08" y="0.0" type="line"/>
      <point x="917.35" y="0.0" type="line"/>
      <point x="917.35" y="1326.35" type="line"/>
      <point x="796.61" y="1326.35" type="line"/>
      <point x="796.61" y="1001.19" type="line"/>
      <point x="801.14" y="724.19" type="line"/>
      <point x="800.14" y="695.12" type="line"/>
      <point x="800.14" y="283.95" type="line"/>
      <point x="802.67" y="244.04" type="line"/>
    </contour>
  </outline>
</glyph>
<glyph name="e" format="2">
  <advance width="982.86"/>
  <unicode hex="0065"/>
  <anchor x="505.43" y="0.0" name="bottom"/>
  <anchor x="778.72" y="6.59" name="ogonek"/>
  <anchor x="500.02" y="974.71" name="top"/>
  <outline>
    <contour>
      <point x="529.5" y="-21.12" type="curve" smooth="yes"/>
      <point x="665.33" y="-21.12"/>
      <point x="780.51" y="16.17"/>
      <point x="864.28" y="73.81" type="curve"/>
      <point x="876.17" y="183.0" type="line"/>
      <point x="780.52" y="119.6"/>
      <point x="672.93" y="82.78"/>
      <point x="547.46" y="82.78" type="curve" smooth="yes"/>
      <point x="326.93" y="82.78"/>
      <point x="221.78" y="195.41"/>
      <point x="221.78" y="375.25" type="curve" smooth="yes"/>
      <point x="221.78" y="476.35" type="line"/>
      <point x="221.25" y="492.3" type="line"/>
      <point x="221.25" y="587.12" type="line" smooth="yes"/>
      <point x="221.25" y="789.19"/>
      <point x="314.58" y="899.52"/>
      <point x="497.84" y="899.52" type="curve" smooth="yes"/>
      <point x="680.69" y="899.52"/>
      <point x="776.08" y="789.78"/>
      <point x="776.08" y="592.53" type="curve" smooth="yes"/>
      <point x="776.08" y="548.58"/>
      <point x="775.55" y="495.51"/>
      <point x="774.49" y="436.85" type="curve"/>
      <point x="885.87" y="436.85" type="line"/>
      <point x="890.99" y="476.56"/>
      <point x="893.11" y="514.16"/>
      <point x="893.11" y="552.64" type="curve" smooth="yes"/>
      <point x="893.11" y="588.23" type="line" smooth="yes"/>
      <point x="893.11" y="844.29"/>
      <point x="756.75" y="999.3"/>
      <point x="497.84" y="999.3" type="curve" smooth="yes"/>
      <point x="239.17" y="999.3"/>
      <point x="101.03999999999999" y="848.35"/>
      <point x="101.03999999999999" y="577.05" type="curve" smooth="yes"/>
      <point x="101.03999999999999" y="386.97" type="line" smooth="yes"/>
      <point x="101.03999999999999" y="125.3"/>
      <point x="249.46" y="-21.12"/>
    </contour>
    <contour>
      <point x="164.15" y="436.85" type="line"/>
      <point x="858.56" y="436.85" type="line"/>
      <point x="858.56" y="530.27" type="line"/>
      <point x="164.15" y="530.27" type="line"/>
    </contour>
  </outline>
</glyph>
<glyph name="f" format="2">
  <advance width="751.41"/>
  <unicode hex="0066"/>
  <anchor x="378.59" y="0.0" name="bottom"/>
  <anchor x="378.59" y="1313.0" name="top"/>
  <outline>
    <contour>
      <point x="463.58" y="1351.06" type="curve" smooth="yes"/>
      <point x="252.69" y="1351.06"/>
      <point x="158.68" y="1257.12"/>
      <point x="158.68" y="1112.89" type="curve" smooth="yes"/>
      <point x="158.68" y="1107.89" type="line" smooth="yes"/>
      <point x="158.68" y="1034.47"/>
      <point x="189.22" y="976.06"/>
      <point x="222.3" y="940.83" type="curve"/>
      <point x="222.3" y="925.35" type="line"/>
      <point x="306.71" y="929.82" type="line"/>
      <point x="291.71" y="967.4"/>
      <point x="276.77" y="1014.39"/>
      <point x="276.77" y="1067.26" type="curve" smooth="yes"/>
      <point x="276.77" y="1072.2" type="line" smooth="yes"/>
      <point x="276.77" y="1181.88"/>
      <point x="336.17" y="1249.22"/>
      <point x="497.5" y="1249.22" type="curve" smooth="yes"/>
      <point x="582.67" y="1249.22"/>
      <point x="646.02" y="1231.87"/>
      <point x="715.13" y="1207.11" type="curve"/>
      <point x="702.71" y="1304.12" type="line"/>
      <point x="635.71" y="1331.59"/>
      <point x="562.23" y="1351.06"/>
    </contour>
    <contour>
      <point x="191.21" y="0.0" type="line"/>
      <point x="311.95" y="0.0" type="line"/>
      <point x="311.95" y="899.33" type="line"/>
      <point x="191.21" y="899.33" type="line"/>
    </contour>
    <contour>
      <point x="22.17" y="842.16" type="line"/>
      <point x="697.89" y="842.16" type="line"/>
      <point x="709.25" y="939.88" type="line"/>
      <point x="285.58" y="939.88" type="line"/>
      <point x="237.54" y="939.35" type="line"/>
      <point x="22.17" y="939.88" type="line"/>
    </contour>
  </outline>
</glyph>
<glyph name="g" format="2">
  <advance width="1012.44"/>
  <unicode hex="0067"/>
  <anchor x="509.07" y="-346.65" name="bottom"/>
  <anchor x="507.6" y="976.83" name="top"/>
  <outline>
    <contour>
      <point x="507.13" y="286.6" type="curve"/>
      <point x="762.68" y="286.6"/>
      <point x="896.16" y="397.19"/>
      <point x="896.16" y="607.36" type="curve" smooth="yes"/>
      <point x="896.16" y="640.92" type="line" smooth="yes"/>
      <point x="896.16" y="785.84"/>
      <point x="831.46" y="884.46"/>
      <point x="668.52" y="911.7" type="curve"/>
      <point x="668.99" y="915.18" type="line"/>
      <point x="988.93" y="906.94" type="line"/>
      <point x="988.93" y="1004.48" type="line"/>
      <point x="503.96" y="991.24" type="line" smooth="yes"/>
      <point x="221.87" y="983.59"/>
      <point x="109.8" y="852.3"/>
      <point x="109.8" y="654.29" type="curve" smooth="yes"/>
      <point x="109.8" y="620.43" type="line" smooth="yes"/>
      <point x="109.8" y="403.9"/>
      <point x="250.93" y="286.6"/>
    </contour>
    <contour>
      <point x="500.54" y="-275.05" type="line" smooth="yes"/>
      <point x="312.39" y="-275.05"/>
      <point x="189.48000000000002" y="-237.35"/>
      <point x="189.48000000000002" y="-121.32" type="curve" smooth="yes"/>
      <point x="189.48000000000002" y="-118.85" type="line" smooth="yes"/>
      <point x="189.48000000000002" y="-18.29"/>
      <point x="279.45" y="26.35"/>
      <point x="409.76" y="44.23" type="curve"/>
      <point x="368.28" y="42.7" type="line"/>
      <point x="637.59" y="18.99" type="line" smooth="yes"/>
      <point x="781.97" y="6.58"/>
      <point x="836.19" y="-38.05"/>
      <point x="836.19" y="-121.56" type="curve" smooth="yes"/>
      <point x="836.19" y="-125.03" type="line" smooth="yes"/>
      <point x="836.19" y="-235.47"/>
      <point x="712.4" y="-275.05"/>
      <point x="521.78" y="-275.05" type="curve" smooth="yes"/>
    </contour>
    <contour>
      <point x="494.18" y="-373.71" type="curve" smooth="yes"/>
      <point x="519.66" y="-373.71" type="line" smooth="yes"/>
      <point x="781.98" y="-373.71"/>
      <point x="951.1" y="-302.99"/>
      <point x="951.1" y="-126.21" type="curve" smooth="yes"/>
      <point x="951.1" y="-121.68" type="line" smooth="yes"/>
      <point x="951.1" y="18.29"/>
      <point x="864.15" y="91.28999999999999"/>
      <point x="661.67" y="111.47" type="curve" smooth="yes"/>
      <point x="426.96" y="134.65" type="line" smooth="yes"/>
      <point x="292.23" y="147.59"/>
      <point x="243.77" y="171.58"/>
      <point x="243.77" y="222.39" type="curve" smooth="yes"/>
      <point x="243.77" y="223.39" type="line" smooth="yes"/>
      <point x="243.77" y="269.61"/>
      <point x="278.17" y="294.31"/>
      <point x="383.96" y="295.78" type="curve"/>
      <point x="459.9" y="294.19" type="line"/>
      <point x="298.55" y="336.67" type="line"/>
      <point x="298.55" y="318.9" type="line"/>
      <point x="181.32999999999998" y="313.13"/>
      <point x="130.86" y="269.07"/>
      <point x="130.86" y="195.42" type="curve" smooth="yes"/>
      <point x="130.86" y="194.42" type="line" smooth="yes"/>
      <point x="130.86" y="120.01"/>
      <point x="185.85" y="74.95"/>
      <point x="310.11" y="58.71" type="curve"/>
      <point x="311.05" y="56.23" type="line"/>
      <point x="181.25" y="41.11"/>
      <point x="75.63" y="-16.54"/>
      <point x="75.63" y="-143.17" type="curve" smooth="yes"/>
      <point x="75.63" y="-147.17" type="line" smooth="yes"/>
      <point x="75.63" y="-314.82"/>
      <point x="240.16" y="-373.71"/>
    </contour>
    <contour>
      <point x="505.54" y="378.43" type="curve" smooth="yes"/>
      <point x="318.81" y="378.43"/>
      <point x="226.3" y="462.94"/>
      <point x="226.3" y="623.08" type="curve" smooth="yes"/>
      <point x="226.3" y="655.88" type="line" smooth="yes"/>
      <point x="226.3" y="800.85"/>
      <point x="305.52" y="900.47"/>
      <point x="503.54" y="900.47" type="curve" smooth="yes"/>
      <point x="510.89" y="900.47" type="line" smooth="yes"/>
      <point x="689.74" y="900.47"/>
      <point x="781.25" y="812.08"/>
      <point x="781.25" y="657.35" type="curve" smooth="yes"/>
      <point x="781.25" y="621.67" type="line" smooth="yes"/>
      <point x="781.25" y="462.47"/>
      <point x="687.27" y="378.43"/>
    </contour>
  </outline>
</glyph>
<glyph name="h" format="2">
  <advance width="1049.92"/>
  <unicode hex="0068"/>
  <anchor x="525.96" y="0.0" name="bottom"/>
  <anchor x="525.96" y="657.0" name="center"/>
  <anchor x="202.73" y="1326.35" name="top"/>
  <outline>
    <contour>
      <point x="800.2" y="0.0" type="line"/>
      <point x="921.47" y="0.0" type="line"/>
      <point x="921.47" y="624.12" type="line" smooth="yes"/>
      <point x="921.47" y="859.01"/>
      <point x="830.7" y="995.3"/>
      <point x="596.06" y="995.3" type="curve" smooth="yes"/>
      <point x="394.9" y="995.3"/>
      <point x="285.15" y="876.97"/>
      <point x="259.2" y="735.17" type="curve"/>
      <point x="226.18" y="735.17" type="line"/>
      <point x="257.19" y="645.7" type="line"/>
      <point x="284.19" y="787.72"/>
      <point x="385.05" y="893.4"/>
      <point x="554.31" y="893.4" type="curve" smooth="yes"/>
      <point x="735.98" y="893.4"/>
      <point x="800.2" y="785.42"/>
      <point x="800.2" y="611.52" type="curve" smooth="yes"/>
    </contour>
    <contour>
      <point x="141.86" y="0.0" type="line"/>
      <point x="263.13" y="0.0" type="line"/>
      <point x="263.13" y="712.24" type="line"/>
      <point x="258.07" y="722.48" type="line"/>
      <point x="262.6" y="1002.13" type="line"/>
      <point x="262.6" y="1326.35" type="line"/>
      <point x="141.86" y="1326.35" type="line"/>
    </contour>
  </outline>
</glyph>
<glyph name="i" format="2">
  <advance width="411.93"/>
  <unicode hex="0069"/>
  <anchor x="206.2" y="0.0" name="bottom"/>
  <anchor x="308.83" y="0.0" name="ogonek"/>
  <outline>
    <contour>
      <point x="145.32999999999998" y="0.0" type="line"/>
      <point x="266.6" y="0.0" type="line"/>
      <point x="266.6" y="974.71" type="line"/>
      <point x="145.32999999999998" y="974.71" type="line"/>
    </contour>
    <contour>
      <point x="206.2" y="1153.49" type="curve" smooth="yes"/>
      <point x="260.17" y="1153.49"/>
      <point x="286.89" y="1183.15"/>
      <point x="286.89" y="1238.17" type="curve" smooth="yes"/>
      <point x="286.89" y="1244.52" type="line" smooth="yes"/>
      <point x="286.89" y="1298.01"/>
      <point x="260.17" y="1328.73"/>
      <point x="206.2" y="1328.73" type="curve" smooth="yes"/>
      <point x="151.7" y="1328.73"/>
      <point x="125.03999999999999" y="1298.01"/>
      <point x="125.03999999999999" y="1244.52" type="curve" smooth="yes"/>
      <point x="125.03999999999999" y="1238.17" type="line" smooth="yes"/>
      <point x="125.03999999999999" y="1183.68"/>
      <point x="151.7" y="1153.49"/>
    </contour>
  </outline>
</glyph>
<glyph name="j" format="2">
  <advance width="443.51"/>
  <unicode hex="006A"/>
  <outline>
    <contour>
      <point x="176.91" y="90.10000000000001" type="line"/>
      <point x="298.18" y="90.10000000000001" type="line"/>
      <point x="298.18" y="974.71" type="line"/>
      <point x="176.91" y="974.71" type="line"/>
    </contour>
    <contour>
      <point x="237.78" y="1153.49" type="curve" smooth="yes"/>
      <point x="291.75" y="1153.49"/>
      <point x="318.47" y="1183.15"/>
      <point x="318.47" y="1238.17" type="curve" smooth="yes"/>
      <point x="318.47" y="1244.52" type="line" smooth="yes"/>
      <point x="318.47" y="1298.01"/>
      <point x="291.75" y="1328.73"/>
      <point x="237.78" y="1328.73" type="curve" smooth="yes"/>
      <point x="183.28" y="1328.73"/>
      <point x="156.62" y="1298.01"/>
      <point x="156.62" y="1244.52" type="curve" smooth="yes"/>
      <point x="156.62" y="1238.17" type="line" smooth="yes"/>
      <point x="156.62" y="1183.68"/>
      <point x="183.28" y="1153.49"/>
    </contour>
    <component base="jbottom"/>
  </outline>
</glyph>
<glyph name="k" format="2">
  <advance width="962.18"/>
  <unicode hex="006B"/>
  <anchor x="498.61" y="0.0" name="bottom"/>
  <anchor x="491.26" y="1326.35" name="top"/>
  <outline>
    <contour>
      <point x="776.33" y="0.0" type="line"/>
      <point x="923.73" y="0.0" type="line"/>
      <point x="444.89" y="540.83" type="line"/>
      <point x="444.89" y="506.76" type="line"/>
      <point x="904.38" y="974.71" type="line"/>
      <point x="758.1" y="974.71" type="line"/>
      <point x="357.23" y="567.62" type="line"/>
      <point x="247.48000000000002" y="567.62" type="line"/>
      <point x="247.48000000000002" y="471.08" type="line"/>
      <point x="356.7" y="471.08" type="line"/>
    </contour>
    <contour>
      <point x="141.86" y="0.0" type="line"/>
      <point x="262.6" y="0.0" type="line"/>
      <point x="262.6" y="1326.35" type="line"/>
      <point x="141.86" y="1326.35" type="line"/>
    </contour>
  </outline>
</glyph>
<glyph name="l" format="2">
  <advance width="414.87"/>
  <unicode hex="006C"/>
  <anchor x="208.2" y="0.0" name="bottom"/>
  <anchor x="208.2" y="657.0" name="center"/>
  <anchor x="208.2" y="1326.35" name="top"/>
  <anchor x="436.86" y="1326.35" name="topright"/>
  <outline>
    <contour>
      <point x="146.8" y="0.0" type="line"/>
      <point x="268.07" y="0.0" type="line"/>
      <point x="268.07" y="1326.35" type="line"/>
      <point x="146.8" y="1326.35" type="line"/>
    </contour>
  </outline>
</glyph>
<glyph name="m" format="2">
  <advance width="1614.57"/>
  <unicode hex="006D"/>
  <anchor x="807.02" y="0.0" name="bottom"/>
  <anchor x="807.02" y="974.71" name="top"/>
  <outline>
    <contour>
      <point x="1364.85" y="0.0" type="line"/>
      <point x="1486.12" y="0.0" type="line"/>
      <point x="1486.12" y="626.77" type="line" smooth="yes"/>
      <point x="1486.12" y="860.07"/>
      <point x="1401.35" y="995.3"/>
      <point x="1183.06" y="995.3" type="curve" smooth="yes"/>
      <point x="990.12" y="995.3"/>
      <point x="888.14" y="875.26"/>
      <point x="860.6" y="742.22" type="curve"/>
      <point x="843.71" y="742.22" type="line"/>
      <point x="867.36" y="651.34" type="line"/>
      <point x="891.89" y="788.66"/>
      <point x="987.69" y="893.4"/>
      <point x="1141.31" y="893.4" type="curve" smooth="yes"/>
      <point x="1306.1" y="893.4"/>
      <point x="1364.85" y="786.48"/>
      <point x="1364.85" y="614.17" type="curve" smooth="yes"/>
    </contour>
    <contour>
      <point x="141.86" y="0.0" type="line"/>
      <point x="263.13" y="0.0" type="line"/>
      <point x="263.13" y="726.66" type="line"/>
      <point x="257.01" y="733.02" type="line"/>
      <point x="263.13" y="974.71" type="line"/>
      <point x="141.86" y="974.71" type="line"/>
    </contour>
    <contour>
      <point x="753.62" y="0.0" type="line"/>
      <point x="874.36" y="0.0" type="line"/>
      <point x="874.36" y="632.24" type="line" smooth="yes"/>
      <point x="874.36" y="662.24"/>
      <point x="871.77" y="693.48"/>
      <point x="866.71" y="721.3" type="curve"/>
      <point x="842.24" y="902.18"/>
      <point x="751.36" y="995.3"/>
      <point x="572.24" y="995.3" type="curve" smooth="yes"/>
      <point x="383.84000000000003" y="995.3"/>
      <point x="283.09000000000003" y="876.97"/>
      <point x="258.14" y="735.17" type="curve"/>
      <point x="229.3" y="735.17" type="line"/>
      <point x="256.13" y="645.23" type="line"/>
      <point x="281.13" y="787.72"/>
      <point x="374.58" y="893.4"/>
      <point x="531.02" y="893.4" type="curve" smooth="yes"/>
      <point x="695.34" y="893.4"/>
      <point x="753.62" y="786.48"/>
      <point x="753.62" y="613.7" type="curve" smooth="yes"/>
    </contour>
  </outline>
</glyph>
<glyph name="n" format="2">
  <advance width="1049.92"/>
  <unicode hex="006E"/>
  <anchor x="525.96" y="0.0" name="bottom"/>
  <anchor x="525.96" y="974.71" name="top"/>
  <outline>
    <contour>
      <point x="800.2" y="0.0" type="line"/>
      <point x="921.47" y="0.0" type="line"/>
      <point x="921.47" y="624.12" type="line" smooth="yes"/>
      <point x="921.47" y="859.01"/>
      <point x="830.7" y="995.3"/>
      <point x="596.06" y="995.3" type="curve" smooth="yes"/>
      <point x="393.25" y="995.3"/>
      <point x="284.62" y="876.97"/>
      <point x="258.14" y="735.17" type="curve"/>
      <point x="230.71" y="735.17" type="line"/>
      <point x="256.13" y="645.23" type="line"/>
      <point x="283.13" y="787.72"/>
      <point x="384.99" y="893.4"/>
      <point x="554.31" y="893.4" type="curve" smooth="yes"/>
      <point x="735.98" y="893.4"/>
      <point x="800.2" y="785.42"/>
      <point x="800.2" y="611.52" type="curve" smooth="yes"/>
    </contour>
    <contour>
      <point x="141.86" y="0.0" type="line"/>
      <point x="263.13" y="0.0" type="line"/>
      <point x="263.13" y="727.6" type="line"/>
      <point x="257.01" y="733.96" type="line"/>
      <point x="263.13" y="974.71" type="line"/>
      <point x="141.86" y="974.71" type="line"/>
    </contour>
  </outline>
</glyph>
<glyph name="o" format="2">
  <advance width="1026.09"/>
  <unicode hex="006F"/>
  <anchor x="513.31" y="0.0" name="bottom"/>
  <anchor x="520.19" y="356.29" name="center"/>
  <anchor x="733.93" y="2.6500000000000004" name="ogonek"/>
  <anchor x="513.31" y="974.71" name="top"/>
  <anchor x="891.9" y="974.71" name="topright"/>
  <outline>
    <contour>
      <point x="513.31" y="-24.06" type="curve" smooth="yes"/>
      <point x="782.51" y="-24.06"/>
      <point x="925.05" y="129.24"/>
      <point x="925.05" y="408.78" type="curve"/>
      <point x="925.05" y="568.46" type="line"/>
      <point x="925.05" y="847.0"/>
      <point x="782.51" y="999.3"/>
      <point x="513.31" y="999.3" type="curve" smooth="yes"/>
      <point x="244.11" y="999.3"/>
      <point x="101.03999999999999" y="847.0"/>
      <point x="101.03999999999999" y="568.46" type="curve"/>
      <point x="101.03999999999999" y="408.78" type="line"/>
      <point x="101.03999999999999" y="129.71"/>
      <point x="243.64" y="-24.06"/>
    </contour>
    <contour>
      <point x="513.31" y="75.72" type="curve" smooth="yes"/>
      <point x="323.76" y="75.72"/>
      <point x="222.84" y="190.58"/>
      <point x="222.84" y="402.42" type="curve" smooth="yes"/>
      <point x="222.84" y="574.82" type="line" smooth="yes"/>
      <point x="222.84" y="784.66"/>
      <point x="323.76" y="899.52"/>
      <point x="513.31" y="899.52" type="curve" smooth="yes"/>
      <point x="702.86" y="899.52"/>
      <point x="803.78" y="784.66"/>
      <point x="803.78" y="574.82" type="curve" smooth="yes"/>
      <point x="803.78" y="402.42" type="line" smooth="yes"/>
      <point x="803.78" y="190.58"/>
      <point x="702.39" y="75.72"/>
    </contour>
  </outline>
</glyph>
<glyph name="p" format="2">
  <advance width="1059.21"/>
  <unicode hex="0070"/>
  <anchor x="537.43" y="0.0" name="bottom"/>
  <anchor x="537.43" y="974.71" name="top"/>
  <outline>
    <contour>
      <point x="589.29" y="-20.59" type="curve" smooth="yes"/>
      <point x="830.35" y="-20.59"/>
      <point x="957.64" y="127.65"/>
      <point x="957.64" y="403.66" type="curve" smooth="yes"/>
      <point x="957.64" y="572.76" type="line" smooth="yes"/>
      <point x="957.64" y="847.18"/>
      <point x="830.29" y="995.3"/>
      <point x="594.94" y="995.3" type="curve" smooth="yes"/>
      <point x="393.71" y="995.3"/>
      <point x="284.56" y="877.91"/>
      <point x="258.14" y="732.82" type="curve"/>
      <point x="222.76" y="732.82" type="line"/>
      <point x="255.6" y="644.41" type="line"/>
      <point x="283.54" y="791.25"/>
      <point x="395.34000000000003" y="895.52"/>
      <point x="554.9" y="895.52" type="curve" smooth="yes"/>
      <point x="737.92" y="895.52"/>
      <point x="835.84" y="786.37"/>
      <point x="835.84" y="581.77" type="curve" smooth="yes"/>
      <point x="835.84" y="395.71" type="line" smooth="yes"/>
      <point x="835.84" y="189.99"/>
      <point x="736.45" y="81.31"/>
      <point x="556.31" y="81.31" type="curve" smooth="yes"/>
      <point x="392.27" y="81.31"/>
      <point x="267.89" y="176.41"/>
      <point x="259.07" y="366.26" type="curve"/>
      <point x="219.58" y="252.7" type="line"/>
      <point x="259.67" y="252.7" type="line"/>
      <point x="279.16" y="87.15"/>
      <point x="403.07" y="-20.59"/>
    </contour>
    <contour>
      <point x="141.86" y="-344.0" type="line"/>
      <point x="262.6" y="-344.0" type="line"/>
      <point x="262.6" y="-18.020000000000003" type="line"/>
      <point x="257.6" y="251.46" type="line"/>
      <point x="259.07" y="278.65" type="line"/>
      <point x="259.07" y="691.94" type="line"/>
      <point x="257.01" y="731.61" type="line"/>
      <point x="263.13" y="974.71" type="line"/>
      <point x="141.86" y="974.71" type="line"/>
    </contour>
  </outline>
</glyph>
<glyph name="q" format="2">
  <advance width="1059.21"/>
  <unicode hex="0071"/>
  <anchor x="522.78" y="0.0" name="bottom"/>
  <anchor x="522.78" y="974.71" name="top"/>
  <outline>
    <contour>
      <point x="464.27" y="-20.59" type="curve" smooth="yes"/>
      <point x="664.97" y="-20.59"/>
      <point x="773.59" y="96.8"/>
      <point x="800.01" y="241.89" type="curve"/>
      <point x="834.86" y="241.89" type="line"/>
      <point x="803.61" y="332.42" type="line"/>
      <point x="775.67" y="185.58"/>
      <point x="663.87" y="81.31"/>
      <point x="503.78" y="81.31" type="curve" smooth="yes"/>
      <point x="321.29" y="81.31"/>
      <point x="223.37" y="190.46"/>
      <point x="223.37" y="395.59" type="curve" smooth="yes"/>
      <point x="223.37" y="579.53" type="line" smooth="yes"/>
      <point x="223.37" y="786.84"/>
      <point x="322.23" y="895.52"/>
      <point x="501.31" y="895.52" type="curve" smooth="yes"/>
      <point x="664.29" y="895.52"/>
      <point x="790.79" y="800.42"/>
      <point x="800.14" y="610.57" type="curve"/>
      <point x="840.69" y="722.01" type="line"/>
      <point x="800.6" y="722.01" type="line"/>
      <point x="781.11" y="887.56"/>
      <point x="656.67" y="995.3"/>
      <point x="469.92" y="995.3" type="curve" smooth="yes"/>
      <point x="229.92" y="995.3"/>
      <point x="101.57" y="847.06"/>
      <point x="101.57" y="571.05" type="curve" smooth="yes"/>
      <point x="101.57" y="401.95" type="line" smooth="yes"/>
      <point x="101.57" y="127.53"/>
      <point x="228.92" y="-20.59"/>
    </contour>
    <contour>
      <point x="796.61" y="-344.0" type="line"/>
      <point x="917.35" y="-344.0" type="line"/>
      <point x="917.35" y="974.71" type="line"/>
      <point x="796.08" y="974.71" type="line"/>
      <point x="802.2" y="731.61" type="line"/>
      <point x="800.14" y="691.94" type="line"/>
      <point x="800.14" y="280.77" type="line"/>
      <point x="801.61" y="255.93" type="line"/>
      <point x="796.61" y="-18.020000000000003" type="line"/>
    </contour>
  </outline>
</glyph>
<glyph name="r" format="2">
  <advance width="737.55"/>
  <unicode hex="0072"/>
  <anchor x="202.73" y="0.0" name="bottom"/>
  <anchor x="402.24" y="974.71" name="top"/>
  <outline>
    <contour>
      <point x="256.07" y="603.22" type="line"/>
      <point x="306.77" y="779.7"/>
      <point x="427.52" y="872.62"/>
      <point x="580.39" y="872.62" type="curve" smooth="yes"/>
      <point x="631.15" y="872.62"/>
      <point x="673.5" y="863.74"/>
      <point x="706.91" y="851.86" type="curve"/>
      <point x="699.14" y="970.01" type="line"/>
      <point x="671.26" y="980.36"/>
      <point x="635.15" y="989.24"/>
      <point x="587.63" y="989.24" type="curve" smooth="yes"/>
      <point x="410.7" y="989.24"/>
      <point x="297.9" y="877.79"/>
      <point x="255.49" y="699.82" type="curve"/>
      <point x="224.88" y="695.59" type="line"/>
    </contour>
    <contour>
      <point x="141.86" y="0.0" type="line"/>
      <point x="263.13" y="0.0" type="line"/>
      <point x="263.13" y="672.42" type="line"/>
      <point x="253.36" y="682.19" type="line"/>
      <point x="260.48" y="974.71" type="line"/>
      <point x="141.86" y="974.71" type="line"/>
    </contour>
  </outline>
</glyph>
<glyph name="s" format="2">
  <advance width="870.38"/>
  <unicode hex="0073"/>
  <anchor x="433.72" y="0.0" name="bottom"/>
  <anchor x="433.19" y="974.71" name="top"/>
  <outline>
    <contour>
      <point x="432.95" y="-21.12" type="curve" smooth="yes"/>
      <point x="669.51" y="-21.12"/>
      <point x="796.75" y="70.65"/>
      <point x="796.75" y="246.61" type="curve" smooth="yes"/>
      <point x="796.75" y="264.9" type="line" smooth="yes"/>
      <point x="796.75" y="428.44"/>
      <point x="713.74" y="495.85"/>
      <point x="462.98" y="546.5" type="curve" smooth="yes"/>
      <point x="258.24" y="587.91"/>
      <point x="199.31" y="631.26"/>
      <point x="199.31" y="736.28" type="curve" smooth="yes"/>
      <point x="199.31" y="744.69" type="line" smooth="yes"/>
      <point x="199.31" y="838.07"/>
      <point x="268.23" y="895.11"/>
      <point x="432.38" y="895.11" type="curve" smooth="yes"/>
      <point x="573.26" y="895.11"/>
      <point x="680.15" y="855.29"/>
      <point x="766.39" y="802.59" type="curve"/>
      <point x="754.03" y="908.25" type="line"/>
      <point x="684.67" y="953.6"/>
      <point x="573.9" y="995.89"/>
      <point x="422.25" y="995.89" type="curve" smooth="yes"/>
      <point x="193.7" y="995.89"/>
      <point x="79.63" y="907.65"/>
      <point x="79.63" y="745.75" type="curve" smooth="yes"/>
      <point x="79.63" y="736.28" type="line" smooth="yes"/>
      <point x="79.63" y="579.28"/>
      <point x="158.22" y="508.15"/>
      <point x="404.69" y="457.38" type="curve" smooth="yes"/>
      <point x="621.78" y="411.97"/>
      <point x="677.07" y="366.22"/>
      <point x="677.07" y="261.84" type="curve" smooth="yes"/>
      <point x="677.07" y="248.2" type="line" smooth="yes"/>
      <point x="677.07" y="138.88"/>
      <point x="589.33" y="82.78"/>
      <point x="428.06" y="82.78" type="curve" smooth="yes"/>
      <point x="281.0" y="82.78"/>
      <point x="169.64" y="125.25"/>
      <point x="73.99" y="179.48000000000002" type="curve"/>
      <point x="86.35" y="64.4" type="line"/>
      <point x="161.18" y="22.58"/>
      <point x="275.89" y="-21.12"/>
    </contour>
  </outline>
</glyph>
<glyph name="t" format="2">
  <advance width="791.0"/>
  <unicode hex="0074"/>
  <anchor x="452.35" y="0.0" name="bottom"/>
  <anchor x="398.12" y="488.12" name="center"/>
  <anchor x="247.26" y="1215.58" name="top"/>
  <anchor x="592.5" y="1410.48" name="topright"/>
  <outline>
    <contour>
      <point x="485.18" y="-19.06" type="curve" smooth="yes"/>
      <point x="573.36" y="-19.06"/>
      <point x="660.83" y="1.29"/>
      <point x="723.89" y="34.7" type="curve"/>
      <point x="735.25" y="141.48000000000002" type="line"/>
      <point x="668.2" y="105.9"/>
      <point x="591.97" y="87.49000000000001"/>
      <point x="512.15" y="87.49000000000001" type="curve" smooth="yes"/>
      <point x="361.0" y="87.49000000000001"/>
      <point x="304.01" y="150.89"/>
      <point x="304.01" y="288.75" type="curve" smooth="yes"/>
      <point x="304.01" y="911.22" type="line"/>
      <point x="183.8" y="911.22" type="line"/>
      <point x="183.8" y="275.15" type="line" smooth="yes"/>
      <point x="183.8" y="77.6"/>
      <point x="269.98" y="-19.06"/>
    </contour>
    <contour>
      <point x="16.7" y="858.88" type="line"/>
      <point x="713.01" y="858.88" type="line"/>
      <point x="724.37" y="956.6" type="line"/>
      <point x="16.7" y="956.6" type="line"/>
    </contour>
    <contour>
      <point x="184.86" y="942.89" type="line"/>
      <point x="300.89" y="942.89" type="line"/>
      <point x="306.54" y="1241.94" type="line"/>
      <point x="184.32999999999998" y="1222.7" type="line"/>
    </contour>
  </outline>
</glyph>
<glyph name="u" format="2">
  <advance width="1049.92"/>
  <unicode hex="0075"/>
  <anchor x="523.14" y="0.0" name="bottom"/>
  <anchor x="947.47" y="0.0" name="ogonek"/>
  <anchor x="523.14" y="974.71" name="top"/>
  <anchor x="1026.87" y="974.71" name="topright"/>
  <outline>
    <contour>
      <point x="249.72" y="974.71" type="line"/>
      <point x="128.45" y="974.71" type="line"/>
      <point x="128.45" y="350.59" type="line" smooth="yes"/>
      <point x="128.45" y="115.7"/>
      <point x="219.22" y="-20.59"/>
      <point x="453.86" y="-20.59" type="curve" smooth="yes"/>
      <point x="656.67" y="-20.59"/>
      <point x="765.3" y="97.74"/>
      <point x="791.78" y="239.54" type="curve"/>
      <point x="819.21" y="239.54" type="line"/>
      <point x="793.79" y="329.48" type="line"/>
      <point x="766.79" y="186.99"/>
      <point x="664.93" y="81.31"/>
      <point x="495.61" y="81.31" type="curve" smooth="yes"/>
      <point x="313.94" y="81.31"/>
      <point x="249.72" y="189.29"/>
      <point x="249.72" y="363.19" type="curve" smooth="yes"/>
    </contour>
    <contour>
      <point x="908.06" y="974.71" type="line"/>
      <point x="786.79" y="974.71" type="line"/>
      <point x="786.79" y="247.11" type="line"/>
      <point x="792.91" y="240.75" type="line"/>
      <point x="786.79" y="0.0" type="line"/>
      <point x="908.06" y="0.0" type="line"/>
    </contour>
  </outline>
</glyph>
<glyph name="v" format="2">
  <advance width="971.86"/>
  <unicode hex="0076"/>
  <anchor x="486.43" y="0.0" name="bottom"/>
  <anchor x="486.43" y="974.71" name="top"/>
  <outline>
    <contour>
      <point x="497.9" y="85.47" type="line"/>
      <point x="474.43" y="85.47" type="line"/>
      <point x="178.9" y="974.71" type="line"/>
      <point x="52.04" y="974.71" type="line"/>
      <point x="383.77" y="0.0" type="line"/>
      <point x="588.56" y="0.0" type="line"/>
      <point x="919.82" y="974.71" type="line"/>
      <point x="792.96" y="974.71" type="line"/>
    </contour>
  </outline>
</glyph>
<glyph name="w" format="2">
  <advance width="1479.51"/>
  <unicode hex="0077"/>
  <anchor x="740.02" y="0.0" name="bottom"/>
  <anchor x="740.02" y="974.71" name="top"/>
  <outline>
    <contour>
      <point x="317.48" y="0.0" type="line"/>
      <point x="510.08" y="0.0" type="line"/>
      <point x="696.09" y="714.13" type="line"/>
      <point x="732.96" y="858.47" type="line"/>
      <point x="746.61" y="858.47" type="line"/>
      <point x="784.01" y="714.6" type="line"/>
      <point x="970.49" y="0.0" type="line"/>
      <point x="1162.03" y="0.0" type="line"/>
      <point x="1414.59" y="974.71" type="line"/>
      <point x="1289.32" y="974.71" type="line"/>
      <point x="1072.96" y="90.24000000000001" type="line"/>
      <point x="1053.2" y="90.24000000000001" type="line"/>
      <point x="827.67" y="947.3" type="line"/>
      <point x="652.37" y="947.3" type="line"/>
      <point x="426.84" y="90.24000000000001" type="line"/>
      <point x="406.55" y="90.24000000000001" type="line"/>
      <point x="191.25" y="974.71" type="line"/>
      <point x="64.92" y="974.71" type="line"/>
    </contour>
  </outline>
</glyph>
<glyph name="x" format="2">
  <advance width="953.52"/>
  <unicode hex="0078"/>
  <anchor x="477.26" y="0.0" name="bottom"/>
  <anchor x="477.26" y="974.71" name="top"/>
  <outline>
    <contour>
      <point x="60.8" y="0.0" type="line"/>
      <point x="195.37" y="0.0" type="line"/>
      <point x="471.2" y="441.49" type="line"/>
      <point x="483.85" y="441.49" type="line"/>
      <point x="758.62" y="0.0" type="line"/>
      <point x="892.72" y="0.0" type="line"/>
      <point x="563.74" y="524.31" type="line"/>
      <point x="563.74" y="488.58" type="line"/>
      <point x="886.66" y="974.71" type="line"/>
      <point x="752.56" y="974.71" type="line"/>
      <point x="483.85" y="561.57" type="line"/>
      <point x="471.2" y="561.57" type="line"/>
      <point x="201.43" y="974.71" type="line"/>
      <point x="67.33" y="974.71" type="line"/>
      <point x="390.25" y="488.11" type="line"/>
      <point x="390.25" y="523.84" type="line"/>
    </contour>
  </outline>
</glyph>
<glyph name="y" format="2">
  <advance width="972.39"/>
  <unicode hex="0079"/>
  <anchor x="669.21" y="-48.99" name="bottom"/>
  <anchor x="486.49" y="974.71" name="top"/>
  <outline>
    <contour>
      <point x="546.0" y="125.06" type="line"/>
      <point x="471.78" y="125.06" type="line"/>
      <point x="178.9" y="974.71" type="line"/>
      <point x="52.04" y="974.71" type="line"/>
      <point x="385.36" y="39.59" type="line"/>
      <point x="526.46" y="39.59" type="line"/>
      <point x="475.12" y="85.86" type="line"/>
      <point x="321.06" y="-344.0" type="line"/>
      <point x="445.27" y="-344.0" type="line"/>
      <point x="920.35" y="974.71" type="line"/>
      <point x="794.55" y="974.71" type="line"/>
      <point x="482.89" y="96.98" type="line"/>
    </contour>
  </outline>
</glyph>
<glyph name="z" format="2">
  <advance width="892.26"/>
  <unicode hex="007A"/>
  <anchor x="446.13" y="0.0" name="bottom"/>
  <anchor x="447.13" y="488.12" name="center"/>
  <anchor x="446.13" y="974.71" name="top"/>
  <outline>
    <contour>
      <point x="805.92" y="101.37" type="line"/>
      <point x="231.57" y="101.37" type="line"/>
      <point x="801.86" y="883.23" type="line"/>
      <point x="801.86" y="974.71" type="line"/>
      <point x="88.4" y="974.71" type="line"/>
      <point x="88.4" y="874.34" type="line"/>
      <point x="656.16" y="874.34" type="line"/>
      <point x="85.87" y="92.48" type="line"/>
      <point x="85.87" y="0.0" type="line"/>
      <point x="805.92" y="0.0" type="line"/>
    </contour>
  </outline>
</glyph>
<glyph name="braceleft" format="2">
  <advance width="671.89"/>
  <unicode hex="007B"/>
  <outline>
    <contour>
      <point x="611.84" y="1327.65" type="line"/>
      <point x="570.6" y="1342.12"/>
      <point x="517.95" y="1352.59"/>
      <point x="460.42" y="1352.59" type="curve" smooth="yes"/>
      <point x="295.75" y="1352.59"/>
      <point x="221.09" y="1275.29"/>
      <point x="221.09" y="1101.15" type="curve" smooth="yes"/>
      <point x="221.09" y="1011.34"/>
      <point x="236.03" y="870.58"/>
      <point x="236.03" y="786.77" type="curve" smooth="yes"/>
      <point x="236.03" y="679.02"/>
      <point x="201.56" y="621.03"/>
      <point x="70.46" y="611.21" type="curve"/>
      <point x="70.46" y="504.96" type="line"/>
      <point x="201.56" y="493.67"/>
      <point x="236.03" y="435.21"/>
      <point x="236.03" y="325.99" type="curve" smooth="yes"/>
      <point x="236.03" y="243.65"/>
      <point x="221.09" y="100.95"/>
      <point x="221.09" y="8.14" type="curve" smooth="yes"/>
      <point x="221.09" y="-165.53"/>
      <point x="296.22" y="-243.36"/>
      <point x="460.42" y="-243.36" type="curve" smooth="yes"/>
      <point x="517.95" y="-243.36"/>
      <point x="570.6" y="-232.89"/>
      <point x="611.84" y="-217.95" type="curve"/>
      <point x="611.84" y="-125.12" type="line"/>
      <point x="580.02" y="-137.47"/>
      <point x="538.38" y="-147.82"/>
      <point x="488.45" y="-147.82" type="curve" smooth="yes"/>
      <point x="381.17" y="-147.82"/>
      <point x="337.53" y="-99.24"/>
      <point x="337.53" y="20.150000000000002" type="curve" smooth="yes"/>
      <point x="337.53" y="100.9"/>
      <point x="352.0" y="240.54"/>
      <point x="352.0" y="332.23" type="curve" smooth="yes"/>
      <point x="352.0" y="458.58"/>
      <point x="311.71" y="540.64"/>
      <point x="171.77" y="556.23" type="curve"/>
      <point x="176.95" y="546.23" type="line"/>
      <point x="176.95" y="561.47" type="line"/>
      <point x="311.71" y="579.59"/>
      <point x="352.0" y="656.12"/>
      <point x="352.0" y="781.0" type="curve" smooth="yes"/>
      <point x="352.0" y="871.22"/>
      <point x="337.53" y="1009.86"/>
      <point x="337.53" y="1090.14" type="curve" smooth="yes"/>
      <point x="337.53" y="1208.53"/>
      <point x="381.17" y="1257.11"/>
      <point x="487.39" y="1257.11" type="curve" smooth="yes"/>
      <point x="537.85" y="1257.11"/>
      <point x="580.02" y="1247.23"/>
      <point x="611.84" y="1235.41" type="curve"/>
    </contour>
  </outline>
</glyph>
<glyph name="bar" format="2">
  <advance width="477.08"/>
  <unicode hex="007C"/>
  <outline>
    <contour>
      <point x="290.99" y="-440.93" type="line"/>
      <point x="290.99" y="1421.0" type="line"/>
      <point x="186.09" y="1421.0" type="line"/>
      <point x="186.09" y="-440.93" type="line"/>
    </contour>
  </outline>
</glyph>
<glyph name="braceright" format="2">
  <advance width="671.89"/>
  <unicode hex="007D"/>
  <outline>
    <contour>
      <point x="60.05" y="1327.65" type="curve"/>
      <point x="60.05" y="1235.41" type="line"/>
      <point x="91.87" y="1247.23"/>
      <point x="134.04" y="1257.11"/>
      <point x="184.5" y="1257.11" type="curve" smooth="yes"/>
      <point x="290.72" y="1257.11"/>
      <point x="334.36" y="1208.53"/>
      <point x="334.36" y="1090.14" type="curve" smooth="yes"/>
      <point x="334.36" y="1009.86"/>
      <point x="319.89" y="871.22"/>
      <point x="319.89" y="781.0" type="curve" smooth="yes"/>
      <point x="319.89" y="656.12"/>
      <point x="360.18" y="579.59"/>
      <point x="494.94" y="561.47" type="curve"/>
      <point x="494.94" y="546.23" type="line"/>
      <point x="500.12" y="556.23" type="line"/>
      <point x="360.18" y="540.64"/>
      <point x="319.89" y="458.58"/>
      <point x="319.89" y="332.23" type="curve" smooth="yes"/>
      <point x="319.89" y="240.54"/>
      <point x="334.36" y="100.9"/>
      <point x="334.36" y="20.150000000000002" type="curve" smooth="yes"/>
      <point x="334.36" y="-99.24"/>
      <point x="290.72" y="-147.82"/>
      <point x="183.44" y="-147.82" type="curve" smooth="yes"/>
      <point x="133.51" y="-147.82"/>
      <point x="91.87" y="-137.47"/>
      <point x="60.05" y="-125.12" type="curve"/>
      <point x="60.05" y="-217.95" type="line"/>
      <point x="101.29" y="-232.89"/>
      <point x="153.94" y="-243.36"/>
      <point x="211.47" y="-243.36" type="curve" smooth="yes"/>
      <point x="375.67" y="-243.36"/>
      <point x="450.8" y="-165.53"/>
      <point x="450.8" y="8.14" type="curve" smooth="yes"/>
      <point x="450.8" y="100.95"/>
      <point x="435.86" y="243.65"/>
      <point x="435.86" y="325.99" type="curve" smooth="yes"/>
      <point x="435.86" y="435.21"/>
      <point x="470.33" y="493.67"/>
      <point x="601.43" y="504.96" type="curve"/>
      <point x="601.43" y="611.21" type="line"/>
      <point x="470.33" y="621.03"/>
      <point x="435.86" y="679.02"/>
      <point x="435.86" y="786.77" type="curve" smooth="yes"/>
      <point x="435.86" y="870.58"/>
      <point x="450.8" y="1011.34"/>
      <point x="450.8" y="1101.15" type="curve" smooth="yes"/>
      <point x="450.8" y="1275.29"/>
      <point x="376.14" y="1352.59"/>
      <point x="211.47" y="1352.59" type="curve" smooth="yes"/>
      <point x="153.94" y="1352.59"/>
      <point x="101.29" y="1342.12"/>
    </contour>
  </outline>
</glyph>
<glyph name="asciitilde" format="2">
  <advance width="1075.07"/>
  <unicode hex="007E"/>
  <outline>
    <contour>
      <point x="746.53" y="483.52" type="curve" smooth="yes"/>
      <point x="883.5" y="483.52"/>
      <point x="939.74" y="561.54"/>
      <point x="939.74" y="705.03" type="curve" smooth="yes"/>
      <point x="939.74" y="736.04" type="line"/>
      <point x="846.91" y="736.04" type="line"/>
      <point x="846.91" y="718.1" type="line" smooth="yes"/>
      <point x="846.91" y="630.59"/>
      <point x="815.98" y="585.89"/>
      <point x="739.64" y="585.89" type="curve" smooth="yes"/>
      <point x="616.95" y="585.89"/>
      <point x="478.66" y="714.16"/>
      <point x="329.01" y="714.16" type="curve" smooth="yes"/>
      <point x="191.04" y="714.16"/>
      <point x="135.32999999999998" y="634.55"/>
      <point x="135.32999999999998" y="491.18" type="curve" smooth="yes"/>
      <point x="135.32999999999998" y="461.17" type="line"/>
      <point x="227.16" y="461.17" type="line"/>
      <point x="227.16" y="479.05" type="line" smooth="yes"/>
      <point x="227.16" y="565.5"/>
      <point x="259.62" y="611.73"/>
      <point x="334.9" y="611.73" type="curve" smooth="yes"/>
      <point x="458.18" y="611.73"/>
      <point x="595.06" y="483.52"/>
    </contour>
  </outline>
</glyph>
<glyph name="exclamdown" format="2">
  <advance width="450.5"/>
  <unicode hex="00A1"/>
  <outline>
    <contour>
      <point x="275.76" y="591.51" type="line"/>
      <point x="174.74" y="591.51" type="line"/>
      <point x="159.73" y="-303.29" type="line"/>
      <point x="290.3" y="-303.29" type="line"/>
    </contour>
    <contour>
      <point x="224.78" y="991.48" type="curve" smooth="yes"/>
      <point x="169.22" y="991.48"/>
      <point x="142.56" y="958.7"/>
      <point x="142.56" y="899.5" type="curve" smooth="yes"/>
      <point x="142.56" y="889.5" type="line" smooth="yes"/>
      <point x="142.56" y="831.3"/>
      <point x="169.22" y="798.99"/>
      <point x="224.78" y="798.99" type="curve" smooth="yes"/>
      <point x="280.75" y="798.99"/>
      <point x="307.94" y="831.3"/>
      <point x="307.94" y="889.5" type="curve" smooth="yes"/>
      <point x="307.94" y="899.5" type="line" smooth="yes"/>
      <point x="307.94" y="958.7"/>
      <point x="280.75" y="991.48"/>
    </contour>
  </outline>
</glyph>
<glyph name="cent" format="2">
  <advance width="863.13"/>
  <unicode hex="00A2"/>
  <anchor x="477.6" y="0.0" name="bottom"/>
  <anchor x="477.6" y="974.71" name="top"/>
  <outline>
    <contour>
      <point x="544.47" y="947.15" type="line"/>
      <point x="544.47" y="1191.29" type="line"/>
      <point x="438.98" y="1191.29" type="line"/>
      <point x="438.98" y="947.15" type="line"/>
    </contour>
    <contour>
      <point x="544.47" y="-220.58" type="line"/>
      <point x="544.47" y="41.34" type="line"/>
      <point x="438.98" y="41.34" type="line"/>
      <point x="438.98" y="-220.58" type="line"/>
    </contour>
    <component base="c"/>
  </outline>
</glyph>
<glyph name="sterling" format="2">
  <advance width="1070.42"/>
  <unicode hex="00A3"/>
  <outline>
    <contour>
      <point x="86.46" y="605.38" type="line"/>
      <point x="888.61" y="605.38" type="line"/>
      <point x="897.26" y="701.92" type="line"/>
      <point x="95.58" y="701.92" type="line"/>
    </contour>
    <contour>
      <point x="245.91000000000003" y="106.55000000000001" type="line"/>
      <point x="250.61" y="108.56" type="line"/>
      <point x="358.84000000000003" y="159.32"/>
      <point x="416.72" y="249.54000000000002"/>
      <point x="416.72" y="419.24" type="curve" smooth="yes"/>
      <point x="416.72" y="592.14"/>
      <point x="345.96" y="755.43"/>
      <point x="345.96" y="928.86" type="curve" smooth="yes"/>
      <point x="345.96" y="1105.47"/>
      <point x="444.17" y="1191.63"/>
      <point x="644.57" y="1191.63" type="curve" smooth="yes"/>
      <point x="744.74" y="1191.63"/>
      <point x="840.91" y="1172.22"/>
      <point x="934.73" y="1131.93" type="curve"/>
      <point x="923.9" y="1240.3" type="line"/>
      <point x="842.72" y="1274.3"/>
      <point x="732.13" y="1299.18"/>
      <point x="621.66" y="1299.18" type="curve" smooth="yes"/>
      <point x="348.22" y="1299.18"/>
      <point x="217.39" y="1180.47"/>
      <point x="217.39" y="941.64" type="curve" smooth="yes"/>
      <point x="217.39" y="752.85"/>
      <point x="290.74" y="588.26"/>
      <point x="289.74" y="409.82" type="curve" smooth="yes"/>
      <point x="289.27" y="242.19"/>
      <point x="237.87" y="143.43"/>
      <point x="120.58" y="110.61" type="curve" smooth="yes"/>
      <point x="91.99" y="102.61" type="line"/>
      <point x="91.99" y="0.0" type="line"/>
      <point x="998.96" y="0.0" type="line"/>
      <point x="998.96" y="106.55000000000001" type="line"/>
    </contour>
  </outline>
</glyph>
<glyph name="currency" format="2">
  <advance width="988.47"/>
  <unicode hex="00A4"/>
  <outline>
    <contour>
      <point x="493.97" y="252.04" type="curve" smooth="yes"/>
      <point x="714.64" y="252.04"/>
      <point x="837.12" y="373.46"/>
      <point x="837.12" y="594.59" type="curve" smooth="yes"/>
      <point x="837.12" y="646.52" type="line" smooth="yes"/>
      <point x="837.12" y="866.65"/>
      <point x="715.64" y="987.6"/>
      <point x="494.97" y="987.6" type="curve" smooth="yes"/>
      <point x="274.3" y="987.6"/>
      <point x="151.82" y="866.65"/>
      <point x="151.82" y="646.52" type="curve" smooth="yes"/>
      <point x="151.82" y="594.59" type="line" smooth="yes"/>
      <point x="151.82" y="373.46"/>
      <point x="273.3" y="252.04"/>
    </contour>
    <contour>
      <point x="494.97" y="346.46" type="curve" smooth="yes"/>
      <point x="344.53" y="346.46"/>
      <point x="261.96" y="432.09"/>
      <point x="261.96" y="593.0" type="curve" smooth="yes"/>
      <point x="261.96" y="648.11" type="line" smooth="yes"/>
      <point x="261.96" y="808.55"/>
      <point x="344.53" y="893.18"/>
      <point x="494.97" y="893.18" type="curve" smooth="yes"/>
      <point x="643.94" y="893.18"/>
      <point x="726.45" y="808.55"/>
      <point x="726.45" y="648.11" type="curve" smooth="yes"/>
      <point x="726.98" y="593.0" type="line" smooth="yes"/>
      <point x="726.98" y="432.09"/>
      <point x="643.94" y="346.46"/>
    </contour>
    <contour>
      <point x="736.23" y="395.33" type="line"/>
      <point x="665.77" y="332.58" type="line"/>
      <point x="839.08" y="133.51" type="line"/>
      <point x="910.13" y="193.2" type="line"/>
    </contour>
    <contour>
      <point x="322.7" y="333.05" type="line"/>
      <point x="255.3" y="397.33" type="line"/>
      <point x="78.87" y="193.2" type="line"/>
      <point x="150.39" y="133.51" type="line"/>
    </contour>
    <contour>
      <point x="248.06" y="847.43" type="line"/>
      <point x="320.64" y="906.59" type="line"/>
      <point x="149.39" y="1104.07" type="line"/>
      <point x="78.87" y="1043.85" type="line"/>
    </contour>
    <contour>
      <point x="665.77" y="903.0" type="line"/>
      <point x="736.17" y="840.66" type="line"/>
      <point x="909.6" y="1043.85" type="line"/>
      <point x="839.08" y="1104.07" type="line"/>
    </contour>
  </outline>
</glyph>
<glyph name="yen" format="2">
  <advance width="1108.56"/>
  <unicode hex="00A5"/>
  <anchor x="551.84" y="0.0" name="bottom"/>
  <anchor x="551.84" y="1278.0" name="top"/>
  <anchor x="35.58" y="1278.0" name="topleft"/>
  <outline>
    <contour>
      <point x="642.24" y="571.25" type="line"/>
      <point x="979.04" y="571.25" type="line"/>
      <point x="989.75" y="664.14" type="line"/>
      <point x="668.78" y="664.14" type="line"/>
    </contour>
    <contour>
      <point x="131.58" y="355.39" type="line"/>
      <point x="120.87" y="263.03" type="line"/>
      <point x="979.04" y="263.03" type="line"/>
      <point x="989.75" y="355.39" type="line"/>
    </contour>
    <contour>
      <point x="435.78" y="664.14" type="line"/>
      <point x="131.58" y="664.14" type="line"/>
      <point x="120.87" y="571.25" type="line"/>
      <point x="463.32" y="571.25" type="line"/>
    </contour>
    <component base="Y" xOffset="12.76"/>
  </outline>
</glyph>
<glyph name="brokenbar" format="2">
  <advance width="477.08"/>
  <unicode hex="00A6"/>
  <outline>
    <contour>
      <point x="290.99" y="590.76" type="line"/>
      <point x="290.99" y="1421.0" type="line"/>
      <point x="186.09" y="1421.0" type="line"/>
      <point x="186.09" y="590.76" type="line"/>
    </contour>
    <contour>
      <point x="290.99" y="-440.93" type="line"/>
      <point x="290.99" y="393.43" type="line"/>
      <point x="186.09" y="393.43" type="line"/>
      <point x="186.09" y="-440.93" type="line"/>
    </contour>
  </outline>
</glyph>
<glyph name="section" format="2">
  <advance width="942.19"/>
  <unicode hex="00A7"/>
  <outline>
    <contour>
      <point x="554.35" y="389.1" type="curve"/>
      <point x="642.81" y="347.2" type="line"/>
      <point x="642.28" y="373.15" type="line"/>
      <point x="759.39" y="396.26"/>
      <point x="827.27" y="485.19"/>
      <point x="827.27" y="593.25" type="curve" smooth="yes"/>
      <point x="827.27" y="600.19" type="line" smooth="yes"/>
      <point x="827.27" y="754.61"/>
      <point x="744.32" y="817.72"/>
      <point x="494.62" y="872.43" type="curve" smooth="yes"/>
      <point x="291.41" y="916.37"/>
      <point x="233.01" y="958.18"/>
      <point x="233.01" y="1046.8" type="curve" smooth="yes"/>
      <point x="233.01" y="1055.39" type="line" smooth="yes"/>
      <point x="233.01" y="1146.24"/>
      <point x="301.87" y="1197.4"/>
      <point x="464.49" y="1197.4" type="curve" smooth="yes"/>
      <point x="604.84" y="1197.4"/>
      <point x="711.2" y="1157.58"/>
      <point x="796.91" y="1104.88" type="curve"/>
      <point x="784.55" y="1210.54" type="line"/>
      <point x="715.72" y="1255.89"/>
      <point x="605.48" y="1298.18"/>
      <point x="454.36" y="1298.18" type="curve" smooth="yes"/>
      <point x="227.34" y="1298.18"/>
      <point x="113.33" y="1215.29"/>
      <point x="113.33" y="1057.51" type="curve" smooth="yes"/>
      <point x="113.33" y="1048.39" type="line" smooth="yes"/>
      <point x="113.33" y="913.03"/>
      <point x="191.39" y="835.96"/>
      <point x="436.33" y="785.37" type="curve" smooth="yes"/>
      <point x="654.95" y="740.55"/>
      <point x="710.77" y="694.04"/>
      <point x="710.77" y="580.17" type="curve" smooth="yes"/>
      <point x="710.77" y="573.64" type="line" smooth="yes"/>
      <point x="710.77" y="493.19"/>
      <point x="659.55" y="415.45"/>
    </contour>
    <contour>
      <point x="383.66" y="810.01" type="curve"/>
      <point x="297.32" y="845.2" type="line"/>
      <point x="297.85" y="821.72" type="line"/>
      <point x="179.09" y="793.31"/>
      <point x="113.33" y="711.8"/>
      <point x="113.33" y="602.68" type="curve" smooth="yes"/>
      <point x="113.33" y="595.21" type="line" smooth="yes"/>
      <point x="113.33" y="452.98"/>
      <point x="195.1" y="380.04"/>
      <point x="436.8" y="325.62" type="curve" smooth="yes"/>
      <point x="652.3" y="278.03"/>
      <point x="707.59" y="235.99"/>
      <point x="707.59" y="137.55" type="curve" smooth="yes"/>
      <point x="707.59" y="129.43" type="line" smooth="yes"/>
      <point x="707.59" y="26.410000000000004"/>
      <point x="621.32" y="-25.75"/>
      <point x="460.17" y="-25.75" type="curve" smooth="yes"/>
      <point x="313.64" y="-25.75"/>
      <point x="202.34" y="16.720000000000006"/>
      <point x="107.22" y="70.95" type="curve"/>
      <point x="119.58" y="-44.13" type="line"/>
      <point x="193.88" y="-85.95"/>
      <point x="308.53" y="-129.65"/>
      <point x="465.06" y="-129.65" type="curve" smooth="yes"/>
      <point x="701.5" y="-129.65"/>
      <point x="827.27" y="-41.82"/>
      <point x="827.27" y="126.78" type="curve" smooth="yes"/>
      <point x="827.27" y="138.08" type="line" smooth="yes"/>
      <point x="827.27" y="292.32"/>
      <point x="744.79" y="357.32"/>
      <point x="495.09" y="412.68" type="curve" smooth="yes"/>
      <point x="288.29" y="458.27"/>
      <point x="229.83" y="506.08"/>
      <point x="229.83" y="620.53" type="curve" smooth="yes"/>
      <point x="229.83" y="628.12" type="line"/>
      <point x="229.83" y="711.22"/>
      <point x="282.11" y="783.66"/>
    </contour>
  </outline>
</glyph>
<glyph name="copyright" format="2">
  <advance width="1379.2"/>
  <unicode hex="00A9"/>
  <outline>
    <contour>
      <point x="689.6" y="-22.240000000000002" type="curve" smooth="yes"/>
      <point x="1057.5" y="-22.240000000000002"/>
      <point x="1267.57" y="189.0"/>
      <point x="1267.57" y="552.72" type="curve" smooth="yes"/>
      <point x="1267.57" y="728.46" type="line" smooth="yes"/>
      <point x="1267.57" y="1090.59"/>
      <point x="1057.5" y="1300.24"/>
      <point x="689.6" y="1300.24" type="curve" smooth="yes"/>
      <point x="321.17" y="1300.24"/>
      <point x="111.63" y="1090.59"/>
      <point x="111.63" y="728.46" type="curve" smooth="yes"/>
      <point x="111.63" y="552.72" type="line" smooth="yes"/>
      <point x="111.63" y="189.0"/>
      <point x="321.17" y="-22.240000000000002"/>
    </contour>
    <contour>
      <point x="723.96" y="311.94" type="curve" smooth="yes"/>
      <point x="815.6" y="311.94"/>
      <point x="878.19" y="341.7"/>
      <point x="916.31" y="372.05" type="curve"/>
      <point x="923.49" y="452.33" type="line"/>
      <point x="879.49" y="417.57"/>
      <point x="823.14" y="388.87"/>
      <point x="738.68" y="388.87" type="curve" smooth="yes"/>
      <point x="610.58" y="388.87"/>
      <point x="548.53" y="463.56"/>
      <point x="548.53" y="597.65" type="curve" smooth="yes"/>
      <point x="548.53" y="687.0" type="line" smooth="yes"/>
      <point x="548.53" y="820.56"/>
      <point x="609.46" y="893.78"/>
      <point x="735.62" y="893.78" type="curve" smooth="yes"/>
      <point x="818.67" y="893.78"/>
      <point x="874.49" y="865.55"/>
      <point x="918.49" y="830.79" type="curve"/>
      <point x="910.78" y="910.54" type="line"/>
      <point x="875.13" y="939.42"/>
      <point x="813.07" y="969.12"/>
      <point x="724.43" y="969.12" type="curve" smooth="yes"/>
      <point x="547.3" y="969.12"/>
      <point x="460.59" y="867.53"/>
      <point x="460.59" y="684.94" type="curve" smooth="yes"/>
      <point x="460.59" y="597.18" type="line" smooth="yes"/>
      <point x="460.59" y="414.06"/>
      <point x="546.3" y="311.94"/>
    </contour>
    <contour>
      <point x="689.6" y="52.1" type="curve" smooth="yes"/>
      <point x="380.8" y="52.1"/>
      <point x="198.98" y="232.85"/>
      <point x="198.98" y="547.42" type="curve" smooth="yes"/>
      <point x="198.98" y="734.23" type="line" smooth="yes"/>
      <point x="198.98" y="1046.74"/>
      <point x="380.8" y="1225.9"/>
      <point x="689.6" y="1225.9" type="curve" smooth="yes"/>
      <point x="997.87" y="1225.9"/>
      <point x="1180.22" y="1046.74"/>
      <point x="1180.22" y="734.23" type="curve" smooth="yes"/>
      <point x="1180.22" y="547.42" type="line" smooth="yes"/>
      <point x="1180.22" y="232.85"/>
      <point x="997.87" y="52.1"/>
    </contour>
  </outline>
</glyph>
<glyph name="ordfeminine" format="2">
  <advance width="664.53"/>
  <unicode hex="00AA"/>
  <outline>
    <contour>
      <point x="469.61" y="642.94" type="line"/>
      <point x="559.73" y="642.94" type="line"/>
      <point x="559.73" y="1062.4" type="line" smooth="yes"/>
      <point x="559.73" y="1201.75"/>
      <point x="496.38" y="1292.0"/>
      <point x="328.35" y="1292.0" type="curve" smooth="yes"/>
      <point x="229.0" y="1292.0"/>
      <point x="153.41" y="1258.77"/>
      <point x="105.52" y="1226.83" type="curve"/>
      <point x="97.75" y="1146.31" type="line"/>
      <point x="152.58" y="1182.13"/>
      <point x="227.46" y="1215.48"/>
      <point x="315.22" y="1215.48" type="curve" smooth="yes"/>
      <point x="426.15" y="1215.48"/>
      <point x="471.73" y="1161.2"/>
      <point x="471.73" y="1063.99" type="curve"/>
      <point x="471.73" y="1008.05" type="line"/>
      <point x="471.73" y="801.94" type="line"/>
      <point x="474.2" y="794.23" type="line"/>
    </contour>
    <contour>
      <point x="266.45" y="630.41" type="curve" smooth="yes"/>
      <point x="395.26" y="630.41"/>
      <point x="456.83" y="699.04"/>
      <point x="474.25" y="785.32" type="curve"/>
      <point x="491.2" y="785.32" type="line"/>
      <point x="474.73" y="847.89" type="line"/>
      <point x="458.67" y="768.97"/>
      <point x="393.68" y="707.46"/>
      <point x="295.18" y="707.46" type="curve" smooth="yes"/>
      <point x="207.44" y="707.46"/>
      <point x="165.16" y="749.74"/>
      <point x="165.16" y="818.66" type="curve" smooth="yes"/>
      <point x="165.16" y="831.07" type="line" smooth="yes"/>
      <point x="165.16" y="898.64"/>
      <point x="201.8" y="933.45"/>
      <point x="305.53" y="949.68" type="curve" smooth="yes"/>
      <point x="491.15" y="977.97" type="line"/>
      <point x="485.44" y="1045.54" type="line"/>
      <point x="286.28" y="1014.72" type="line" smooth="yes"/>
      <point x="134.87" y="991.25"/>
      <point x="74.51" y="935.31"/>
      <point x="74.51" y="825.83" type="curve" smooth="yes"/>
      <point x="74.51" y="810.83" type="line" smooth="yes"/>
      <point x="74.51" y="694.59"/>
      <point x="142.92" y="630.41"/>
    </contour>
  </outline>
</glyph>
<glyph name="logicalnot" format="2">
  <advance width="1020.82"/>
  <unicode hex="00AC"/>
  <outline>
    <contour>
      <point x="889.49" y="204.11" type="line"/>
      <point x="889.49" y="632.01" type="line"/>
      <point x="785.06" y="632.01" type="line"/>
      <point x="785.06" y="204.11" type="line"/>
    </contour>
    <contour>
      <point x="108.87" y="573.55" type="line"/>
      <point x="889.49" y="573.55" type="line"/>
      <point x="889.49" y="672.74" type="line"/>
      <point x="108.87" y="672.74" type="line"/>
    </contour>
  </outline>
</glyph>
<glyph name="registered" format="2">
  <advance width="827.83"/>
  <unicode hex="00AE"/>
  <outline>
    <contour>
      <point x="414.18" y="552.39" type="curve" smooth="yes"/>
      <point x="628.9" y="552.39"/>
      <point x="750.79" y="672.28"/>
      <point x="750.79" y="882.58" type="curve" smooth="yes"/>
      <point x="750.79" y="965.4" type="line" smooth="yes"/>
      <point x="750.79" y="1176.17"/>
      <point x="628.9" y="1295.59"/>
      <point x="414.18" y="1295.59" type="curve" smooth="yes"/>
      <point x="198.93" y="1295.59"/>
      <point x="77.03999999999999" y="1176.17"/>
      <point x="77.03999999999999" y="965.4" type="curve" smooth="yes"/>
      <point x="77.03999999999999" y="882.58" type="line" smooth="yes"/>
      <point x="77.03999999999999" y="672.28"/>
      <point x="198.93" y="552.39"/>
    </contour>
    <contour>
      <point x="414.18" y="606.71" type="curve" smooth="yes"/>
      <point x="234.36" y="606.71"/>
      <point x="138.6" y="700.06"/>
      <point x="138.6" y="880.99" type="curve" smooth="yes"/>
      <point x="138.6" y="967.52" type="line" smooth="yes"/>
      <point x="138.6" y="1147.92"/>
      <point x="234.36" y="1240.8"/>
      <point x="414.18" y="1240.8" type="curve" smooth="yes"/>
      <point x="593.47" y="1240.8"/>
      <point x="688.7" y="1147.92"/>
      <point x="688.7" y="967.52" type="curve" smooth="yes"/>
      <point x="688.7" y="880.99" type="line" smooth="yes"/>
      <point x="688.7" y="700.06"/>
      <point x="593.47" y="606.71"/>
    </contour>
    <contour>
      <point x="508.75" y="736.7" type="line"/>
      <point x="568.72" y="736.7" type="line"/>
      <point x="554.78" y="814.11" type="line" smooth="yes"/>
      <point x="543.31" y="878.64"/>
      <point x="525.31" y="910.52"/>
      <point x="461.31" y="915.58" type="curve"/>
      <point x="473.49" y="907.05" type="line"/>
      <point x="475.37" y="914.23" type="line"/>
      <point x="536.13" y="919.29"/>
      <point x="561.66" y="953.58"/>
      <point x="561.66" y="1004.11" type="curve" smooth="yes"/>
      <point x="561.66" y="1013.93" type="line" smooth="yes"/>
      <point x="561.66" y="1083.64"/>
      <point x="524.01" y="1120.17"/>
      <point x="441.12" y="1120.17" type="curve" smooth="yes"/>
      <point x="327.01" y="1120.17" type="line"/>
      <point x="327.01" y="1072.09" type="line"/>
      <point x="434.82" y="1072.09" type="line" smooth="yes"/>
      <point x="484.34" y="1072.09"/>
      <point x="503.22" y="1046.39"/>
      <point x="503.22" y="1007.16" type="curve" smooth="yes"/>
      <point x="503.22" y="996.28" type="line" smooth="yes"/>
      <point x="503.22" y="954.58"/>
      <point x="482.87" y="930.35"/>
      <point x="434.76" y="930.35" type="curve" smooth="yes"/>
      <point x="328.48" y="930.35" type="line"/>
      <point x="328.48" y="882.8" type="line"/>
      <point x="419.82" y="882.8" type="line" smooth="yes"/>
      <point x="467.58" y="882.8"/>
      <point x="487.93" y="864.39"/>
      <point x="497.34" y="807.34" type="curve" smooth="yes"/>
    </contour>
    <contour>
      <point x="289.05" y="736.7" type="line"/>
      <point x="346.96" y="736.7" type="line"/>
      <point x="346.96" y="894.51" type="line"/>
      <point x="346.96" y="914.46" type="line"/>
      <point x="346.96" y="1120.17" type="line"/>
      <point x="289.05" y="1120.17" type="line"/>
    </contour>
  </outline>
</glyph>
<glyph name="degree" format="2">
  <advance width="650.01"/>
  <unicode hex="00B0"/>
  <outline>
    <contour>
      <point x="324.77" y="798.56" type="curve" smooth="yes"/>
      <point x="474.14" y="798.56"/>
      <point x="558.56" y="892.27"/>
      <point x="558.56" y="1044.34" type="curve" smooth="yes"/>
      <point x="558.56" y="1055.46" type="line" smooth="yes"/>
      <point x="558.56" y="1207.0"/>
      <point x="474.14" y="1300.24"/>
      <point x="324.77" y="1300.24" type="curve" smooth="yes"/>
      <point x="175.87" y="1300.24"/>
      <point x="91.45" y="1207.0"/>
      <point x="91.45" y="1055.46" type="curve" smooth="yes"/>
      <point x="91.45" y="1044.34" type="line" smooth="yes"/>
      <point x="91.45" y="892.27"/>
      <point x="175.87" y="798.56"/>
    </contour>
    <contour>
      <point x="324.77" y="881.91" type="curve" smooth="yes"/>
      <point x="234.97" y="881.91"/>
      <point x="185.75" y="943.07"/>
      <point x="185.75" y="1043.34" type="curve" smooth="yes"/>
      <point x="185.75" y="1055.93" type="line" smooth="yes"/>
      <point x="185.75" y="1156.2"/>
      <point x="234.97" y="1216.89"/>
      <point x="324.77" y="1216.89" type="curve" smooth="yes"/>
      <point x="415.57" y="1216.89"/>
      <point x="463.79" y="1156.2"/>
      <point x="463.79" y="1055.93" type="curve" smooth="yes"/>
      <point x="463.79" y="1043.34" type="line" smooth="yes"/>
      <point x="463.79" y="943.07"/>
      <point x="415.57" y="881.91"/>
    </contour>
  </outline>
</glyph>
<glyph name="plusminus" format="2">
  <advance width="1032.41"/>
  <unicode hex="00B1"/>
  <outline>
    <contour>
      <point x="126.16" y="164.31" type="line"/>
      <point x="906.25" y="164.31" type="line"/>
      <point x="906.25" y="262.5" type="line"/>
      <point x="126.16" y="262.5" type="line"/>
    </contour>
    <contour>
      <point x="568.92" y="401.3" type="line"/>
      <point x="568.92" y="1087.19" type="line"/>
      <point x="463.49" y="1087.19" type="line"/>
      <point x="463.49" y="401.3" type="line"/>
    </contour>
    <contour>
      <point x="126.16" y="695.15" type="line"/>
      <point x="906.25" y="695.15" type="line"/>
      <point x="906.25" y="793.34" type="line"/>
      <point x="126.16" y="793.34" type="line"/>
    </contour>
  </outline>
</glyph>
<glyph name="twosuperior" format="2">
  <advance width="589.24"/>
  <unicode hex="00B2"/>
  <outline>
    <contour>
      <point x="45.46" y="725.53" type="line"/>
      <point x="537.37" y="725.53" type="line"/>
      <point x="537.37" y="805.23" type="line"/>
      <point x="128.82" y="805.23" type="line"/>
      <point x="169.85000000000002" y="788.34" type="line"/>
      <point x="169.85000000000002" y="810.35" type="line"/>
      <point x="324.22" y="930.02" type="line" smooth="yes"/>
      <point x="450.03" y="1028.89"/>
      <point x="525.08" y="1101.71"/>
      <point x="525.08" y="1213.94" type="curve" smooth="yes"/>
      <point x="525.08" y="1223.53" type="line" smooth="yes"/>
      <point x="525.08" y="1346.47"/>
      <point x="441.19" y="1416.18"/>
      <point x="285.35" y="1416.18" type="curve" smooth="yes"/>
      <point x="197.94" y="1416.18"/>
      <point x="111.41" y="1387.54"/>
      <point x="60.29" y="1356.25" type="curve"/>
      <point x="52.05" y="1274.08" type="line"/>
      <point x="116.34" y="1309.07"/>
      <point x="189.57" y="1335.95"/>
      <point x="273.16" y="1335.95" type="curve" smooth="yes"/>
      <point x="377.97" y="1335.95"/>
      <point x="429.13" y="1295.02"/>
      <point x="429.13" y="1215.05" type="curve" smooth="yes"/>
      <point x="429.13" y="1208.05" type="line" smooth="yes"/>
      <point x="429.13" y="1122.37"/>
      <point x="365.84" y="1065.02"/>
      <point x="252.69" y="975.16" type="curve" smooth="yes"/>
      <point x="45.46" y="810.52" type="line"/>
    </contour>
  </outline>
</glyph>
<glyph name="threesuperior" format="2">
  <advance width="614.65"/>
  <unicode hex="00B3"/>
  <outline>
    <contour>
      <point x="284.23" y="712.35" type="curve" smooth="yes"/>
      <point x="474.24" y="712.35"/>
      <point x="553.31" y="796.82"/>
      <point x="553.31" y="906.3" type="curve" smooth="yes"/>
      <point x="553.31" y="918.12" type="line" smooth="yes"/>
      <point x="553.31" y="1010.59"/>
      <point x="505.49" y="1066.7"/>
      <point x="392.1" y="1079.06" type="curve"/>
      <point x="391.93" y="1071.82" type="line"/>
      <point x="394.75" y="1080.3" type="line"/>
      <point x="503.49" y="1089.66"/>
      <point x="547.37" y="1151.94"/>
      <point x="547.37" y="1229.53" type="curve" smooth="yes"/>
      <point x="547.37" y="1239.82" type="line" smooth="yes"/>
      <point x="547.37" y="1351.65"/>
      <point x="466.3" y="1415.18"/>
      <point x="293.17" y="1415.18" type="curve" smooth="yes"/>
      <point x="188.94" y="1415.18"/>
      <point x="109.94" y="1389.36"/>
      <point x="62.64" y="1362.83" type="curve"/>
      <point x="53.87" y="1284.9" type="line"/>
      <point x="107.87" y="1311.19"/>
      <point x="183.99" y="1337.6"/>
      <point x="281.16" y="1337.6" type="curve" smooth="yes"/>
      <point x="404.85" y="1337.6"/>
      <point x="451.48" y="1297.26"/>
      <point x="451.48" y="1228.81" type="curve" smooth="yes"/>
      <point x="451.48" y="1219.99" type="line" smooth="yes"/>
      <point x="451.48" y="1152.83"/>
      <point x="404.43" y="1111.67"/>
      <point x="286.98" y="1110.14" type="curve" smooth="yes"/>
      <point x="153.57" y="1108.08" type="line"/>
      <point x="153.57" y="1038.27" type="line"/>
      <point x="288.86" y="1036.21" type="line" smooth="yes"/>
      <point x="410.55" y="1034.68"/>
      <point x="456.36" y="996.63"/>
      <point x="456.36" y="923.36" type="curve" smooth="yes"/>
      <point x="456.36" y="914.6" type="line" smooth="yes"/>
      <point x="456.36" y="842.74"/>
      <point x="409.26" y="791.52"/>
      <point x="274.04" y="791.52" type="curve" smooth="yes"/>
      <point x="185.34" y="791.52"/>
      <point x="103.52" y="816.4"/>
      <point x="49.4" y="841.81" type="curve"/>
      <point x="58.17" y="758.64" type="line"/>
      <point x="100.88" y="738.64"/>
      <point x="183.12" y="712.35"/>
    </contour>
  </outline>
</glyph>
<glyph name="micro" format="2">
  <advance width="1063.86"/>
  <unicode hex="00B5"/>
  <outline>
    <contour>
      <point x="922.0" y="974.71" type="line"/>
      <point x="800.73" y="974.71" type="line"/>
      <point x="800.73" y="247.11" type="line"/>
      <point x="806.85" y="240.75" type="line"/>
      <point x="800.73" y="0.0" type="line"/>
      <point x="922.0" y="0.0" type="line"/>
    </contour>
    <contour>
      <point x="263.13" y="364.32" type="curve" smooth="yes"/>
      <point x="263.13" y="974.71" type="line"/>
      <point x="141.86" y="974.71" type="line"/>
      <point x="141.86" y="-344.0" type="line"/>
      <point x="261.01" y="-344.0" type="line"/>
      <point x="261.01" y="-144.27" type="line"/>
      <point x="251.83" y="164.24" type="line"/>
      <point x="254.66" y="164.71" type="line"/>
      <point x="285.37" y="60.959999999999994"/>
      <point x="359.83" y="-20.06"/>
      <point x="518.66" y="-20.06" type="curve" smooth="yes"/>
      <point x="685.92" y="-20.06"/>
      <point x="782.36" y="89.78999999999999"/>
      <point x="805.72" y="236.89" type="curve"/>
      <point x="832.62" y="236.89" type="line"/>
      <point x="807.2" y="330.54" type="line"/>
      <point x="782.2" y="188.05"/>
      <point x="680.87" y="82.37"/>
      <point x="524.9" y="82.37" type="curve" smooth="yes"/>
      <point x="347.52" y="82.37"/>
      <point x="263.13" y="188.76"/>
    </contour>
  </outline>
</glyph>
<glyph name="paragraph" format="2">
  <advance width="700.53"/>
  <unicode hex="00B6"/>
  <outline>
    <contour>
      <point x="363.36" y="664.87" type="curve"/>
      <point x="451.13" y="664.87" type="line"/>
      <point x="450.13" y="1278.0" type="line"/>
      <point x="362.89" y="1278.0" type="line" smooth="yes"/>
      <point x="177.87" y="1278.0"/>
      <point x="91.98" y="1172.0"/>
      <point x="91.98" y="1000.4" type="curve" smooth="yes"/>
      <point x="91.98" y="943.94" type="line" smooth="yes"/>
      <point x="91.98" y="771.34"/>
      <point x="177.87" y="664.87"/>
    </contour>
    <contour>
      <point x="538.32" y="0.0" type="line"/>
      <point x="538.32" y="1278.0" type="line"/>
      <point x="416.64" y="1278.0" type="line"/>
      <point x="416.64" y="0.0" type="line"/>
    </contour>
  </outline>
</glyph>
<glyph name="onesuperior" format="2">
  <advance width="418.66"/>
  <unicode hex="00B9"/>
  <outline>
    <contour>
      <point x="232.44" y="725.53" type="line"/>
      <point x="323.68" y="725.53" type="line"/>
      <point x="323.68" y="1403.53" type="line"/>
      <point x="229.57" y="1403.53" type="line"/>
      <point x="37.17" y="1285.43" type="line"/>
      <point x="34.05" y="1194.9" type="line"/>
      <point x="225.38" y="1310.11" type="line"/>
      <point x="232.44" y="1310.11" type="line"/>
    </contour>
  </outline>
</glyph>
<glyph name="ordmasculine" format="2">
  <advance width="690.71"/>
  <unicode hex="00BA"/>
  <outline>
    <contour>
      <point x="345.59" y="630.41" type="curve" smooth="yes"/>
      <point x="519.31" y="630.41"/>
      <point x="613.67" y="730.12"/>
      <point x="613.67" y="916.42" type="curve" smooth="yes"/>
      <point x="613.67" y="1008.46" type="line" smooth="yes"/>
      <point x="613.67" y="1194.23"/>
      <point x="519.84" y="1293.47"/>
      <point x="345.59" y="1293.47" type="curve" smooth="yes"/>
      <point x="171.87" y="1293.47"/>
      <point x="77.03999999999999" y="1194.23"/>
      <point x="77.03999999999999" y="1008.46" type="curve" smooth="yes"/>
      <point x="77.03999999999999" y="916.42" type="line" smooth="yes"/>
      <point x="77.03999999999999" y="730.12"/>
      <point x="171.4" y="630.41"/>
    </contour>
    <contour>
      <point x="345.59" y="707.99" type="curve" smooth="yes"/>
      <point x="231.5" y="707.99"/>
      <point x="171.34" y="779.68"/>
      <point x="171.34" y="912.24" type="curve" smooth="yes"/>
      <point x="171.34" y="1013.17" type="line" smooth="yes"/>
      <point x="171.34" y="1145.2"/>
      <point x="231.5" y="1215.89"/>
      <point x="345.59" y="1215.89" type="curve" smooth="yes"/>
      <point x="459.68" y="1215.89"/>
      <point x="519.37" y="1145.67"/>
      <point x="519.37" y="1013.17" type="curve" smooth="yes"/>
      <point x="519.37" y="912.24" type="line" smooth="yes"/>
      <point x="519.37" y="778.68"/>
      <point x="458.68" y="707.99"/>
    </contour>
  </outline>
</glyph>
<glyph name="guillemetright" format="2">
  <advance width="979.73"/>
  <unicode hex="00BB"/>
  <outline>
    <contour>
      <point x="364.89" y="487.18" type="line"/>
      <point x="60.739999999999995" y="94.11" type="line"/>
      <point x="184.12" y="94.11" type="line"/>
      <point x="475.86" y="466.59" type="line"/>
      <point x="475.86" y="507.77" type="line"/>
      <point x="184.12" y="877.07" type="line"/>
      <point x="60.739999999999995" y="877.07" type="line"/>
    </contour>
    <contour>
      <point x="784.02" y="487.18" type="line"/>
      <point x="479.87" y="94.11" type="line"/>
      <point x="603.25" y="94.11" type="line"/>
      <point x="894.99" y="466.59" type="line"/>
      <point x="894.99" y="507.77" type="line"/>
      <point x="603.25" y="877.07" type="line"/>
      <point x="479.87" y="877.07" type="line"/>
    </contour>
  </outline>
</glyph>
<glyph name="questiondown" format="2">
  <advance width="882.26"/>
  <unicode hex="00BF"/>
  <outline>
    <contour>
      <point x="594.93" y="587.47" type="line"/>
      <point x="499.14" y="564.82" type="line" smooth="yes"/>
      <point x="231.76" y="500.47"/>
      <point x="98.39" y="383.06"/>
      <point x="98.39" y="136.51" type="curve" smooth="yes"/>
      <point x="98.39" y="36.83" type="line" smooth="yes"/>
      <point x="98.39" y="-195.35"/>
      <point x="210.35" y="-323.0"/>
      <point x="465.55" y="-323.0" type="curve" smooth="yes"/>
      <point x="617.38" y="-323.0"/>
      <point x="740.91" y="-272.36"/>
      <point x="808.15" y="-227.6" type="curve"/>
      <point x="822.63" y="-114.58" type="line"/>
      <point x="735.15" y="-168.81"/>
      <point x="614.68" y="-216.51"/>
      <point x="482.45" y="-216.51" type="curve" smooth="yes"/>
      <point x="293.18" y="-216.51"/>
      <point x="221.72" y="-123.59"/>
      <point x="221.72" y="46.31" type="curve" smooth="yes"/>
      <point x="221.72" y="138.1" type="line" smooth="yes"/>
      <point x="221.72" y="318.77"/>
      <point x="315.52" y="409.4"/>
      <point x="521.21" y="460.86" type="curve" smooth="yes"/>
      <point x="594.93" y="478.92" type="line"/>
    </contour>
    <contour>
      <point x="537.19" y="991.48" type="curve" smooth="yes"/>
      <point x="481.22" y="991.48"/>
      <point x="454.03" y="958.7"/>
      <point x="454.03" y="899.5" type="curve" smooth="yes"/>
      <point x="454.03" y="889.5" type="line" smooth="yes"/>
      <point x="454.03" y="831.3"/>
      <point x="481.22" y="798.99"/>
      <point x="537.19" y="798.99" type="curve" smooth="yes"/>
      <point x="592.75" y="798.99"/>
      <point x="619.41" y="831.3"/>
      <point x="619.41" y="889.5" type="curve" smooth="yes"/>
      <point x="619.41" y="899.5" type="line" smooth="yes"/>
      <point x="619.41" y="958.7"/>
      <point x="592.75" y="991.48"/>
    </contour>
  </outline>
</glyph>
<glyph name="AE" format="2">
  <advance width="1722.47"/>
  <unicode hex="00C6"/>
  <anchor x="859.56" y="0.0" name="bottom"/>
  <anchor x="859.56" y="1278.0" name="top"/>
  <outline>
    <contour>
      <point x="55.98" y="0.0" type="line"/>
      <point x="188.55" y="0.0" type="line"/>
      <point x="792.37" y="1191.94" type="line"/>
      <point x="871.61" y="1191.94" type="line"/>
      <point x="871.61" y="1278.0" type="line"/>
      <point x="707.54" y="1278.0" type="line"/>
    </contour>
    <contour>
      <point x="345.53" y="401.65" type="line"/>
      <point x="892.69" y="401.65" type="line"/>
      <point x="892.69" y="506.08" type="line"/>
      <point x="345.53" y="506.08" type="line"/>
    </contour>
    <contour>
      <point x="886.33" y="0.0" type="line"/>
      <point x="1618.66" y="0.0" type="line"/>
      <point x="1618.66" y="105.49000000000001" type="line"/>
      <point x="886.33" y="105.49000000000001" type="line"/>
    </contour>
    <contour>
      <point x="848.95" y="0.0" type="line"/>
      <point x="972.22" y="0.0" type="line"/>
      <point x="972.22" y="1278.0" type="line"/>
      <point x="848.95" y="1278.0" type="line"/>
    </contour>
    <contour>
      <point x="918.77" y="600.9" type="line"/>
      <point x="1598.07" y="600.9" type="line"/>
      <point x="1598.07" y="705.33" type="line"/>
      <point x="918.77" y="705.33" type="line"/>
    </contour>
    <contour>
      <point x="884.86" y="1173.04" type="line"/>
      <point x="1612.6" y="1173.04" type="line"/>
      <point x="1612.6" y="1278.0" type="line"/>
      <point x="884.86" y="1278.0" type="line"/>
    </contour>
  </outline>
</glyph>
<glyph name="Eth" format="2">
  <advance width="1167.74"/>
  <unicode hex="00D0"/>
  <anchor x="577.25" y="0.0" name="bottom"/>
  <anchor x="592.37" y="639.0" name="center"/>
  <anchor x="577.25" y="1278.0" name="top"/>
  <outline>
    <contour>
      <point x="9.23" y="612.49" type="line"/>
      <point x="622.25" y="612.49" type="line"/>
      <point x="622.25" y="707.97" type="line"/>
      <point x="9.23" y="707.97" type="line"/>
    </contour>
    <component base="D"/>
  </outline>
</glyph>
<glyph name="multiply" format="2">
  <advance width="963.17"/>
  <unicode hex="00D7"/>
  <outline>
    <contour>
      <point x="845.91" y="311.73" type="line"/>
      <point x="195.31" y="996.84" type="line"/>
      <point x="123.2" y="932.44" type="line"/>
      <point x="773.33" y="246.8" type="line"/>
    </contour>
    <contour>
      <point x="117.25999999999999" y="311.73" type="line"/>
      <point x="189.84" y="246.8" type="line"/>
      <point x="839.97" y="932.44" type="line"/>
      <point x="767.86" y="996.84" type="line"/>
    </contour>
  </outline>
</glyph>
<glyph name="Oslash" format="2">
  <advance width="1175.93"/>
  <unicode hex="00D8"/>
  <anchor x="588.2" y="0.0" name="bottom"/>
  <anchor x="588.2" y="639.53" name="center"/>
  <anchor x="1068.69" y="10.53" name="ogonek"/>
  <anchor x="588.2" y="1278.0" name="top"/>
  <anchor x="6.47" y="1278.53" name="topleft"/>
  <anchor x="1168.93" y="1278.53" name="topright"/>
  <outline>
    <contour>
      <point x="587.73" y="-22.240000000000002" type="curve" smooth="yes"/>
      <point x="897.7" y="-22.240000000000002"/>
      <point x="1064.3" y="159.18"/>
      <point x="1064.3" y="483.02" type="curve" smooth="yes"/>
      <point x="1064.3" y="795.51" type="line" smooth="yes"/>
      <point x="1064.3" y="1113.52"/>
      <point x="892.4" y="1300.24"/>
      <point x="587.73" y="1300.24" type="curve" smooth="yes"/>
      <point x="277.23" y="1300.24"/>
      <point x="111.63" y="1118.82"/>
      <point x="111.63" y="795.51" type="curve" smooth="yes"/>
      <point x="111.63" y="483.02" type="line" smooth="yes"/>
      <point x="111.63" y="164.48"/>
      <point x="282.53" y="-22.240000000000002"/>
    </contour>
    <contour>
      <point x="129.97" y="-67.12" type="line"/>
      <point x="246.64" y="-67.12" type="line"/>
      <point x="336.65" y="88.89" type="line"/>
      <point x="348.36" y="110.78" type="line"/>
      <point x="896.97" y="1103.71" type="line"/>
      <point x="922.93" y="1143.56" type="line"/>
      <point x="1045.96" y="1344.65" type="line"/>
      <point x="929.35" y="1344.65" type="line"/>
      <point x="846.64" y="1204.36" type="line"/>
      <point x="832.4" y="1174.17" type="line"/>
      <point x="281.14" y="176.47" type="line"/>
      <point x="254.0" y="139.09" type="line"/>
    </contour>
    <contour>
      <point x="587.73" y="83.19" type="curve" smooth="yes"/>
      <point x="351.7" y="83.19"/>
      <point x="238.08" y="226.64"/>
      <point x="238.08" y="478.78" type="curve" smooth="yes"/>
      <point x="238.08" y="800.22" type="line" smooth="yes"/>
      <point x="238.08" y="1052.89"/>
      <point x="357.0" y="1194.81"/>
      <point x="587.73" y="1194.81" type="curve" smooth="yes"/>
      <point x="823.7" y="1194.81"/>
      <point x="937.85" y="1052.89"/>
      <point x="937.85" y="800.22" type="curve" smooth="yes"/>
      <point x="937.85" y="478.78" type="line" smooth="yes"/>
      <point x="937.85" y="226.64"/>
      <point x="818.4" y="83.19"/>
    </contour>
  </outline>
</glyph>
<glyph name="Thorn" format="2">
  <advance width="1105.33"/>
  <unicode hex="00DE"/>
  <anchor x="550.43" y="0.0" name="bottom"/>
  <anchor x="550.43" y="1278.0" name="top"/>
  <outline>
    <contour>
      <point x="241.57" y="224.51" type="line"/>
      <point x="618.84" y="224.51" type="line" smooth="yes"/>
      <point x="892.57" y="224.51"/>
      <point x="1012.29" y="367.04"/>
      <point x="1012.29" y="596.41" type="curve" smooth="yes"/>
      <point x="1012.29" y="691.06" type="line" smooth="yes"/>
      <point x="1012.29" y="918.49"/>
      <point x="893.57" y="1059.61"/>
      <point x="620.78" y="1059.61" type="curve" smooth="yes"/>
      <point x="240.1" y="1059.61" type="line"/>
      <point x="240.1" y="956.18" type="line"/>
      <point x="617.72" y="956.18" type="line" smooth="yes"/>
      <point x="809.09" y="956.18"/>
      <point x="887.96" y="855.5"/>
      <point x="887.96" y="687.47" type="curve" smooth="yes"/>
      <point x="887.96" y="600.0" type="line" smooth="yes"/>
      <point x="887.96" y="432.15"/>
      <point x="808.62" y="328.94"/>
      <point x="615.25" y="328.94" type="curve" smooth="yes"/>
      <point x="241.57" y="328.94" type="line"/>
    </contour>
    <contour>
      <point x="162.21" y="0.0" type="line"/>
      <point x="284.95" y="0.0" type="line"/>
      <point x="284.95" y="257.71" type="line"/>
      <point x="284.95" y="291.85" type="line"/>
      <point x="284.95" y="986.85" type="line"/>
      <point x="284.95" y="1033.71" type="line"/>
      <point x="284.95" y="1278.0" type="line"/>
      <point x="162.21" y="1278.0" type="line"/>
    </contour>
  </outline>
</glyph>
<glyph name="germandbls" format="2">
  <advance width="1115.81"/>
  <unicode hex="00DF"/>
  <anchor x="533.2" y="0.0" name="bottom"/>
  <anchor x="533.2" y="974.71" name="top"/>
  <outline>
    <contour>
      <point x="141.86" y="993.1" type="curve" smooth="yes"/>
      <point x="141.86" y="0.0" type="line"/>
      <point x="261.54" y="0.0" type="line"/>
      <point x="261.54" y="988.45" type="line" smooth="yes"/>
      <point x="261.54" y="1155.89"/>
      <point x="321.94" y="1252.4"/>
      <point x="506.96" y="1252.4" type="curve" smooth="yes"/>
      <point x="661.69" y="1252.4"/>
      <point x="731.03" y="1184.95"/>
      <point x="731.03" y="1096.09" type="curve" smooth="yes"/>
      <point x="731.03" y="943.54"/>
      <point x="481.3" y="889.58"/>
      <point x="481.3" y="697.88" type="curve" smooth="yes"/>
      <point x="481.3" y="691.88" type="line" smooth="yes"/>
      <point x="481.3" y="565.58"/>
      <point x="547.48" y="516.4"/>
      <point x="718.59" y="456.57" type="curve" smooth="yes"/>
      <point x="864.57" y="406.04"/>
      <point x="910.15" y="363.23"/>
      <point x="910.15" y="260.32" type="curve" smooth="yes"/>
      <point x="910.15" y="248.91" type="line" smooth="yes"/>
      <point x="910.15" y="142.53"/>
      <point x="840.87" y="84.37"/>
      <point x="704.89" y="84.37" type="curve" smooth="yes"/>
      <point x="610.55" y="84.37"/>
      <point x="539.19" y="107.37"/>
      <point x="462.37" y="142.66" type="curve"/>
      <point x="474.2" y="29.64" type="line"/>
      <point x="534.2" y="4.29"/>
      <point x="608.85" y="-19.0"/>
      <point x="714.96" y="-19.0" type="curve" smooth="yes"/>
      <point x="913.16" y="-19.0"/>
      <point x="1029.3" y="73.3"/>
      <point x="1029.3" y="247.79" type="curve" smooth="yes"/>
      <point x="1029.3" y="261.85" type="line" smooth="yes"/>
      <point x="1029.3" y="418.68"/>
      <point x="956.41" y="478.56"/>
      <point x="785.3" y="537.74" type="curve" smooth="yes"/>
      <point x="649.56" y="584.56"/>
      <point x="600.51" y="615.91"/>
      <point x="600.51" y="698.3" type="curve" smooth="yes"/>
      <point x="600.51" y="703.71" type="line" smooth="yes"/>
      <point x="600.51" y="849.97"/>
      <point x="851.77" y="901.04"/>
      <point x="851.77" y="1098.74" type="curve"/>
      <point x="851.77" y="1254.59"/>
      <point x="726.39" y="1351.06"/>
      <point x="508.02" y="1351.06" type="curve" smooth="yes"/>
      <point x="242.05" y="1351.06"/>
      <point x="141.86" y="1221.53"/>
    </contour>
  </outline>
</glyph>
<glyph name="ae" format="2">
  <advance width="1607.67"/>
  <unicode hex="00E6"/>
  <anchor x="804.6" y="0.0" name="bottom"/>
  <anchor x="804.6" y="974.71" name="top"/>
  <outline>
    <contour>
      <point x="1154.31" y="-21.12" type="curve" smooth="yes"/>
      <point x="1290.14" y="-21.12"/>
      <point x="1405.32" y="16.17"/>
      <point x="1489.09" y="73.81" type="curve"/>
      <point x="1500.98" y="183.0" type="line"/>
      <point x="1405.33" y="119.6"/>
      <point x="1297.74" y="82.78"/>
      <point x="1172.27" y="82.78" type="curve" smooth="yes"/>
      <point x="951.74" y="82.78"/>
      <point x="846.59" y="197.53"/>
      <point x="846.59" y="380.55" type="curve" smooth="yes"/>
      <point x="846.59" y="472.53" type="line"/>
      <point x="846.59" y="488.48" type="line"/>
      <point x="846.59" y="586.65" type="line" smooth="yes"/>
      <point x="846.59" y="786.54"/>
      <point x="940.92" y="899.52"/>
      <point x="1124.65" y="899.52" type="curve" smooth="yes"/>
      <point x="1306.5" y="899.52"/>
      <point x="1400.89" y="789.78"/>
      <point x="1400.89" y="592.53" type="curve" smooth="yes"/>
      <point x="1400.89" y="547.52"/>
      <point x="1400.36" y="495.51"/>
      <point x="1399.3" y="436.85" type="curve"/>
      <point x="1510.68" y="436.85" type="line"/>
      <point x="1515.8" y="476.56"/>
      <point x="1517.92" y="514.16"/>
      <point x="1517.92" y="552.64" type="curve" smooth="yes"/>
      <point x="1517.92" y="588.23" type="line" smooth="yes"/>
      <point x="1517.92" y="844.29"/>
      <point x="1386.27" y="999.3"/>
      <point x="1136.84" y="999.3" type="curve" smooth="yes"/>
      <point x="941.9" y="999.3"/>
      <point x="819.67" y="901.78"/>
      <point x="784.78" y="742.11" type="curve"/>
      <point x="786.3" y="742.11" type="line"/>
      <point x="760.76" y="899.55"/>
      <point x="660.35" y="995.83"/>
      <point x="468.71" y="995.83" type="curve" smooth="yes"/>
      <point x="312.42" y="995.83"/>
      <point x="198.77" y="941.66"/>
      <point x="129.35" y="894.72" type="curve"/>
      <point x="117.46" y="788.06" type="line"/>
      <point x="203.88" y="842.76"/>
      <point x="320.0" y="893.46"/>
      <point x="461.82" y="893.46" type="curve" smooth="yes"/>
      <point x="638.68" y="893.46"/>
      <point x="726.38" y="803.31"/>
      <point x="726.38" y="625.58" type="curve"/>
      <point x="725.85" y="466.43" type="line"/>
      <point x="725.32" y="405.52"/>
      <point x="726.85" y="349.15"/>
      <point x="731.85" y="289.66" type="curve"/>
      <point x="743.86" y="264.23" type="line"/>
      <point x="782.22" y="85.7"/>
      <point x="920.23" y="-21.12"/>
    </contour>
    <contour>
      <point x="389.28" y="-20.59" type="curve" smooth="yes"/>
      <point x="610.45" y="-20.59"/>
      <point x="720.26" y="96.8"/>
      <point x="754.86" y="242.66" type="curve"/>
      <point x="778.05" y="242.66" type="line"/>
      <point x="734.91" y="326.3" type="line"/>
      <point x="706.85" y="187.34"/>
      <point x="601.22" y="81.31"/>
      <point x="420.25" y="81.31" type="curve" smooth="yes"/>
      <point x="277.64" y="81.31"/>
      <point x="203.37" y="145.41"/>
      <point x="203.37" y="264.96" type="curve" smooth="yes"/>
      <point x="203.37" y="283.19" type="line" smooth="yes"/>
      <point x="203.37" y="395.69"/>
      <point x="269.94" y="448.97"/>
      <point x="435.49" y="472.67" type="curve" smooth="yes"/>
      <point x="752.27" y="518.31" type="line"/>
      <point x="745.97" y="609.55" type="line"/>
      <point x="420.01" y="561.91" type="line" smooth="yes"/>
      <point x="183.41" y="527.38"/>
      <point x="82.63" y="447.85"/>
      <point x="82.63" y="276.42" type="curve" smooth="yes"/>
      <point x="82.63" y="249.71" type="line" smooth="yes"/>
      <point x="82.63" y="76.24"/>
      <point x="189.51" y="-20.59"/>
    </contour>
    <contour>
      <point x="788.96" y="436.85" type="line"/>
      <point x="1482.9" y="436.85" type="line"/>
      <point x="1482.9" y="530.8" type="line"/>
      <point x="788.96" y="530.8" type="line"/>
    </contour>
  </outline>
</glyph>
<glyph name="eth" format="2">
  <advance width="1026.09"/>
  <unicode hex="00F0"/>
  <outline>
    <contour>
      <point x="513.31" y="-24.06" type="curve" smooth="yes"/>
      <point x="782.51" y="-24.06"/>
      <point x="925.05" y="129.24"/>
      <point x="925.05" y="409.25" type="curve"/>
      <point x="925.05" y="540.39" type="line"/>
      <point x="925.05" y="892.79"/>
      <point x="742.22" y="1054.06"/>
      <point x="405.03" y="1326.35" type="curve"/>
      <point x="247.86" y="1326.35" type="line"/>
      <point x="247.86" y="1325.82" type="line"/>
      <point x="592.19" y="1060.87"/>
      <point x="772.31" y="911.15"/>
      <point x="802.72" y="675.78" type="curve"/>
      <point x="801.84" y="639.75"/>
      <point x="802.31" y="618.62"/>
      <point x="803.31" y="579.94" type="curve"/>
      <point x="803.31" y="515.31"/>
      <point x="803.31" y="461.75"/>
      <point x="803.31" y="402.42" type="curve" smooth="yes"/>
      <point x="803.31" y="190.58"/>
      <point x="702.39" y="75.72"/>
      <point x="513.31" y="75.72" type="curve" smooth="yes"/>
      <point x="323.76" y="75.72"/>
      <point x="222.84" y="190.58"/>
      <point x="222.84" y="402.42" type="curve" smooth="yes"/>
      <point x="222.84" y="499.63" type="line" smooth="yes"/>
      <point x="222.84" y="709.0"/>
      <point x="321.76" y="823.86"/>
      <point x="507.9" y="823.86" type="curve" smooth="yes"/>
      <point x="678.83" y="823.86"/>
      <point x="797.67" y="718.87"/>
      <point x="803.31" y="519.37" type="curve"/>
      <point x="820.6" y="686.88" type="line"/>
      <point x="787.99" y="682.28" type="line"/>
      <point x="763.08" y="828.86"/>
      <point x="647.42" y="922.05"/>
      <point x="477.22" y="922.05" type="curve" smooth="yes"/>
      <point x="241.93" y="922.05"/>
      <point x="101.03999999999999" y="767.63"/>
      <point x="101.03999999999999" y="497.98" type="curve" smooth="yes"/>
      <point x="101.03999999999999" y="408.78" type="line" smooth="yes"/>
      <point x="101.03999999999999" y="129.71"/>
      <point x="243.64" y="-24.06"/>
    </contour>
    <contour>
      <point x="209.75" y="1010.26" type="line"/>
      <point x="874.4" y="1187.9" type="line"/>
      <point x="874.4" y="1271.13" type="line"/>
      <point x="209.75" y="1093.49" type="line"/>
    </contour>
  </outline>
</glyph>
<glyph name="divide" format="2">
  <advance width="998.36"/>
  <unicode hex="00F7"/>
  <outline>
    <contour>
      <point x="108.87" y="572.96" type="line"/>
      <point x="889.49" y="572.96" type="line"/>
      <point x="889.49" y="673.27" type="line"/>
      <point x="108.87" y="673.27" type="line"/>
    </contour>
    <contour>
      <point x="502.77" y="190.96" type="curve" smooth="yes"/>
      <point x="554.5" y="190.96"/>
      <point x="579.57" y="221.62"/>
      <point x="579.57" y="276.58" type="curve" smooth="yes"/>
      <point x="579.57" y="286.05" type="line" smooth="yes"/>
      <point x="579.57" y="340.01"/>
      <point x="554.5" y="370.2"/>
      <point x="502.77" y="370.2" type="curve" smooth="yes"/>
      <point x="451.45" y="370.2"/>
      <point x="426.91" y="340.01"/>
      <point x="426.91" y="286.05" type="curve" smooth="yes"/>
      <point x="426.91" y="276.58" type="line" smooth="yes"/>
      <point x="426.91" y="221.62"/>
      <point x="451.45" y="190.96"/>
    </contour>
    <contour>
      <point x="502.77" y="876.56" type="curve" smooth="yes"/>
      <point x="554.5" y="876.56"/>
      <point x="579.57" y="907.22"/>
      <point x="579.57" y="962.18" type="curve" smooth="yes"/>
      <point x="579.57" y="971.65" type="line" smooth="yes"/>
      <point x="579.57" y="1025.61"/>
      <point x="554.5" y="1055.8"/>
      <point x="502.77" y="1055.8" type="curve" smooth="yes"/>
      <point x="451.45" y="1055.8"/>
      <point x="426.91" y="1025.61"/>
      <point x="426.91" y="971.65" type="curve" smooth="yes"/>
      <point x="426.91" y="962.18" type="line" smooth="yes"/>
      <point x="426.91" y="907.22"/>
      <point x="451.45" y="876.56"/>
    </contour>
  </outline>
</glyph>
<glyph name="oslash" format="2">
  <advance width="1026.09"/>
  <unicode hex="00F8"/>
  <anchor x="512.78" y="0.0" name="bottom"/>
  <anchor x="512.78" y="488.12" name="center"/>
  <anchor x="925.09" y="10.0" name="ogonek"/>
  <anchor x="512.78" y="974.71" name="top"/>
  <anchor x="1007.8" y="974.71" name="topright"/>
  <outline>
    <contour>
      <point x="513.31" y="-24.06" type="curve" smooth="yes"/>
      <point x="782.51" y="-24.06"/>
      <point x="925.05" y="129.24"/>
      <point x="925.05" y="408.78" type="curve"/>
      <point x="925.05" y="568.46" type="line"/>
      <point x="925.05" y="847.0"/>
      <point x="782.51" y="999.3"/>
      <point x="513.31" y="999.3" type="curve" smooth="yes"/>
      <point x="244.11" y="999.3"/>
      <point x="101.03999999999999" y="847.0"/>
      <point x="101.03999999999999" y="568.46" type="curve"/>
      <point x="101.03999999999999" y="408.78" type="line"/>
      <point x="101.03999999999999" y="130.24"/>
      <point x="243.64" y="-24.06"/>
    </contour>
    <contour>
      <point x="126.44" y="-67.12" type="line"/>
      <point x="234.75" y="-67.12" type="line"/>
      <point x="309.58" y="55.71" type="line"/>
      <point x="328.65" y="89.2" type="line"/>
      <point x="768.9" y="840.66" type="line"/>
      <point x="795.98" y="879.04" type="line"/>
      <point x="899.65" y="1041.83" type="line"/>
      <point x="792.34" y="1041.83" type="line"/>
      <point x="721.81" y="924.95" type="line"/>
      <point x="704.74" y="896.46" type="line"/>
      <point x="261.84" y="142.88" type="line"/>
      <point x="234.82" y="105.62" type="line"/>
    </contour>
    <contour>
      <point x="513.31" y="75.72" type="curve" smooth="yes"/>
      <point x="323.76" y="75.72"/>
      <point x="222.84" y="191.11"/>
      <point x="222.84" y="402.42" type="curve" smooth="yes"/>
      <point x="222.84" y="574.82" type="line" smooth="yes"/>
      <point x="222.84" y="784.66"/>
      <point x="323.76" y="899.52"/>
      <point x="513.31" y="899.52" type="curve" smooth="yes"/>
      <point x="702.86" y="899.52"/>
      <point x="803.78" y="784.66"/>
      <point x="803.78" y="574.82" type="curve" smooth="yes"/>
      <point x="803.78" y="402.42" type="line" smooth="yes"/>
      <point x="803.78" y="190.58"/>
      <point x="702.39" y="75.72"/>
    </contour>
  </outline>
</glyph>
<glyph name="thorn" format="2">
  <advance width="1059.21"/>
  <unicode hex="00FE"/>
  <anchor x="536.9" y="0.0" name="bottom"/>
  <anchor x="536.9" y="974.71" name="top"/>
  <outline>
    <contour>
      <point x="589.29" y="-20.59" type="curve" smooth="yes"/>
      <point x="830.35" y="-20.59"/>
      <point x="957.64" y="127.65"/>
      <point x="957.64" y="403.66" type="curve" smooth="yes"/>
      <point x="957.64" y="572.76" type="line" smooth="yes"/>
      <point x="957.64" y="847.18"/>
      <point x="830.29" y="995.3"/>
      <point x="594.94" y="995.3" type="curve" smooth="yes"/>
      <point x="394.24" y="995.3"/>
      <point x="285.62" y="877.91"/>
      <point x="259.2" y="732.82" type="curve"/>
      <point x="222.76" y="732.82" type="line"/>
      <point x="255.6" y="644.41" type="line"/>
      <point x="283.54" y="791.25"/>
      <point x="395.34000000000003" y="895.52"/>
      <point x="554.9" y="895.52" type="curve" smooth="yes"/>
      <point x="737.92" y="895.52"/>
      <point x="835.84" y="786.37"/>
      <point x="835.84" y="581.77" type="curve" smooth="yes"/>
      <point x="835.84" y="395.71" type="line" smooth="yes"/>
      <point x="835.84" y="189.99"/>
      <point x="736.45" y="81.31"/>
      <point x="556.31" y="81.31" type="curve" smooth="yes"/>
      <point x="392.27" y="81.31"/>
      <point x="267.89" y="176.41"/>
      <point x="259.07" y="366.26" type="curve"/>
      <point x="219.58" y="252.7" type="line"/>
      <point x="259.67" y="252.7" type="line"/>
      <point x="279.16" y="87.15"/>
      <point x="403.07" y="-20.59"/>
    </contour>
    <contour>
      <point x="141.86" y="-344.0" type="line"/>
      <point x="262.6" y="-344.0" type="line"/>
      <point x="262.6" y="-18.020000000000003" type="line"/>
      <point x="257.6" y="251.46" type="line"/>
      <point x="259.07" y="279.71" type="line"/>
      <point x="259.07" y="688.76" type="line"/>
      <point x="258.07" y="731.61" type="line"/>
      <point x="262.6" y="984.11" type="line"/>
      <point x="262.6" y="1326.35" type="line"/>
      <point x="141.86" y="1326.35" type="line"/>
    </contour>
  </outline>
</glyph>
<glyph name="idotless" format="2">
  <advance width="412.81"/>
  <unicode hex="0131"/>
  <anchor x="206.67000000000002" y="0.0" name="bottom"/>
  <anchor x="309.77" y="0.0" name="ogonek"/>
  <anchor x="206.67000000000002" y="974.71" name="top"/>
  <outline>
    <contour>
      <point x="145.8" y="0.0" type="line"/>
      <point x="267.54" y="0.0" type="line"/>
      <point x="267.54" y="974.71" type="line"/>
      <point x="145.8" y="974.71" type="line"/>
    </contour>
  </outline>
</glyph>
<glyph name="OE" format="2">
  <advance width="1683.24"/>
  <unicode hex="0152"/>
  <anchor x="833.2" y="0.0" name="bottom"/>
  <anchor x="833.2" y="1278.0" name="top"/>
  <outline>
    <contour>
      <point x="587.73" y="-22.240000000000002" type="curve" smooth="yes"/>
      <point x="897.7" y="-22.240000000000002"/>
      <point x="1064.3" y="159.18"/>
      <point x="1064.3" y="483.02" type="curve" smooth="yes"/>
      <point x="1064.3" y="795.51" type="line" smooth="yes"/>
      <point x="1064.3" y="1118.82"/>
      <point x="897.7" y="1300.24"/>
      <point x="587.73" y="1300.24" type="curve" smooth="yes"/>
      <point x="277.23" y="1300.24"/>
      <point x="111.63" y="1118.82"/>
      <point x="111.63" y="795.51" type="curve" smooth="yes"/>
      <point x="111.63" y="483.02" type="line" smooth="yes"/>
      <point x="111.63" y="159.18"/>
      <point x="277.23" y="-22.240000000000002"/>
    </contour>
    <contour>
      <point x="587.73" y="83.19" type="curve" smooth="yes"/>
      <point x="357.0" y="83.19"/>
      <point x="238.08" y="226.64"/>
      <point x="238.08" y="478.78" type="curve" smooth="yes"/>
      <point x="238.08" y="800.22" type="line" smooth="yes"/>
      <point x="238.08" y="1052.89"/>
      <point x="357.0" y="1194.81"/>
      <point x="587.73" y="1194.81" type="curve" smooth="yes"/>
      <point x="818.4" y="1194.81"/>
      <point x="937.85" y="1052.89"/>
      <point x="937.85" y="800.22" type="curve" smooth="yes"/>
      <point x="937.85" y="478.78" type="line" smooth="yes"/>
      <point x="937.85" y="226.64"/>
      <point x="818.4" y="83.19"/>
    </contour>
    <contour>
      <point x="740.39" y="0.0" type="line"/>
      <point x="1579.43" y="0.0" type="line"/>
      <point x="1579.43" y="105.49000000000001" type="line"/>
      <point x="740.39" y="105.49000000000001" type="line"/>
    </contour>
    <contour>
      <point x="959.44" y="600.9" type="line"/>
      <point x="1558.84" y="600.9" type="line"/>
      <point x="1558.84" y="705.33" type="line"/>
      <point x="959.44" y="705.33" type="line"/>
    </contour>
    <contour>
      <point x="738.92" y="1173.04" type="line"/>
      <point x="1573.37" y="1173.04" type="line"/>
      <point x="1573.37" y="1278.0" type="line"/>
      <point x="738.92" y="1278.0" type="line"/>
    </contour>
  </outline>
</glyph>
<glyph name="oe" format="2">
  <advance width="1686.13"/>
  <unicode hex="0153"/>
  <anchor x="841.42" y="0.0" name="bottom"/>
  <anchor x="841.42" y="974.71" name="top"/>
  <outline>
    <contour>
      <point x="497.53" y="-24.06" type="curve" smooth="yes"/>
      <point x="697.7" y="-24.06"/>
      <point x="819.52" y="67.22"/>
      <point x="863.47" y="236.66" type="curve"/>
      <point x="863.83" y="236.66" type="line"/>
      <point x="909.96" y="66.1"/>
      <point x="1038.08" y="-21.12"/>
      <point x="1240.42" y="-21.12" type="curve" smooth="yes"/>
      <point x="1372.25" y="-21.12"/>
      <point x="1485.37" y="16.17"/>
      <point x="1567.55" y="73.81" type="curve"/>
      <point x="1579.44" y="183.0" type="line"/>
      <point x="1484.73" y="119.6"/>
      <point x="1376.67" y="82.78"/>
      <point x="1254.14" y="82.78" type="curve" smooth="yes"/>
      <point x="1032.68" y="82.78"/>
      <point x="925.05" y="194.35"/>
      <point x="925.05" y="391.83" type="curve" smooth="yes"/>
      <point x="925.05" y="471.47" type="line"/>
      <point x="925.05" y="487.42" type="line"/>
      <point x="925.05" y="587.12" type="line" smooth="yes"/>
      <point x="925.05" y="789.19"/>
      <point x="1018.85" y="899.52"/>
      <point x="1202.05" y="899.52" type="curve" smooth="yes"/>
      <point x="1384.43" y="899.52"/>
      <point x="1479.35" y="789.78"/>
      <point x="1479.35" y="592.53" type="curve" smooth="yes"/>
      <point x="1479.35" y="548.58"/>
      <point x="1478.82" y="495.51"/>
      <point x="1477.76" y="436.85" type="curve"/>
      <point x="1589.14" y="436.85" type="line"/>
      <point x="1594.26" y="476.56"/>
      <point x="1596.38" y="514.16"/>
      <point x="1596.38" y="552.64" type="curve" smooth="yes"/>
      <point x="1596.38" y="588.23" type="line" smooth="yes"/>
      <point x="1596.38" y="844.29"/>
      <point x="1464.2" y="999.3"/>
      <point x="1212.65" y="999.3" type="curve" smooth="yes"/>
      <point x="1026.19" y="999.3"/>
      <point x="905.02" y="906.55"/>
      <point x="864.3" y="742.11" type="curve"/>
      <point x="863.0" y="742.11" type="line"/>
      <point x="817.87" y="907.02"/>
      <point x="698.7" y="999.3"/>
      <point x="497.53" y="999.3" type="curve" smooth="yes"/>
      <point x="242.58" y="999.3"/>
      <point x="101.03999999999999" y="847.0"/>
      <point x="101.03999999999999" y="568.46" type="curve" smooth="yes"/>
      <point x="101.03999999999999" y="408.78" type="line" smooth="yes"/>
      <point x="101.03999999999999" y="129.71"/>
      <point x="242.11" y="-24.06"/>
    </contour>
    <contour>
      <point x="867.42" y="436.85" type="line"/>
      <point x="1561.83" y="436.85" type="line"/>
      <point x="1561.83" y="530.8" type="line"/>
      <point x="867.42" y="530.8" type="line"/>
    </contour>
    <contour>
      <point x="511.31" y="75.72" type="curve" smooth="yes"/>
      <point x="322.76" y="75.72"/>
      <point x="222.84" y="190.58"/>
      <point x="222.84" y="402.42" type="curve" smooth="yes"/>
      <point x="222.84" y="574.82" type="line" smooth="yes"/>
      <point x="222.84" y="784.66"/>
      <point x="322.76" y="899.52"/>
      <point x="511.31" y="899.52" type="curve" smooth="yes"/>
      <point x="701.39" y="899.52"/>
      <point x="803.78" y="784.19"/>
      <point x="803.78" y="573.88" type="curve" smooth="yes"/>
      <point x="803.78" y="402.42" type="line" smooth="yes"/>
      <point x="803.78" y="190.58"/>
      <point x="701.39" y="75.72"/>
    </contour>
  </outline>
</glyph>
<glyph name="gravecomb" format="2">
  <unicode hex="0300"/>
  <anchor x="385.45" y="974.71" name="_top"/>
  <anchor x="272.04" y="1315.14" name="top"/>
  <outline>
    <contour>
      <point x="239.15" y="1364.24" type="line"/>
      <point x="102.11" y="1364.24" type="line"/>
      <point x="102.11" y="1361.71" type="line"/>
      <point x="329.47" y="1101.46" type="line"/>
      <point x="438.96" y="1101.46" type="line"/>
      <point x="438.96" y="1103.52" type="line"/>
    </contour>
  </outline>
</glyph>
<glyph name="acutecomb" format="2">
  <unicode hex="0301"/>
  <anchor x="151.74" y="974.71" name="_top"/>
  <anchor x="155.68" y="1315.14" name="top"/>
  <outline>
    <contour>
      <point x="298.51" y="1364.24" type="line"/>
      <point x="98.7" y="1103.52" type="line"/>
      <point x="98.7" y="1101.46" type="line"/>
      <point x="208.19" y="1101.46" type="line"/>
      <point x="435.55" y="1361.71" type="line"/>
      <point x="435.55" y="1364.24" type="line"/>
    </contour>
  </outline>
</glyph>
<glyph name="circumflexcomb" format="2">
  <unicode hex="0302"/>
  <anchor x="364.74" y="974.71" name="_top"/>
  <anchor x="364.74" y="1311.96" name="top"/>
  <outline>
    <contour>
      <point x="297.34" y="1364.24" type="line"/>
      <point x="102.35" y="1103.52" type="line"/>
      <point x="102.35" y="1101.46" type="line"/>
      <point x="202.3" y="1101.46" type="line"/>
      <point x="361.21" y="1292.49" type="line"/>
      <point x="368.27" y="1292.49" type="line"/>
      <point x="527.18" y="1101.46" type="line"/>
      <point x="627.13" y="1101.46" type="line"/>
      <point x="627.13" y="1103.52" type="line"/>
      <point x="432.14" y="1364.24" type="line"/>
    </contour>
  </outline>
</glyph>
<glyph name="tildecomb" format="2">
  <unicode hex="0303"/>
  <anchor x="365.5" y="974.71" name="_top"/>
  <anchor x="365.5" y="1305.9" name="top"/>
  <outline>
    <contour>
      <point x="496.97" y="1132.98" type="curve" smooth="yes"/>
      <point x="588.76" y="1132.98"/>
      <point x="626.12" y="1189.29"/>
      <point x="626.12" y="1291.25" type="curve" smooth="yes"/>
      <point x="626.12" y="1323.43" type="line"/>
      <point x="545.89" y="1323.43" type="line"/>
      <point x="545.89" y="1303.32" type="line" smooth="yes"/>
      <point x="545.89" y="1247.45"/>
      <point x="529.6" y="1221.63"/>
      <point x="487.43" y="1221.63" type="curve" smooth="yes"/>
      <point x="415.44" y="1221.63"/>
      <point x="334.26" y="1313.84"/>
      <point x="237.2" y="1313.84" type="curve" smooth="yes"/>
      <point x="144.88" y="1313.84"/>
      <point x="107.52" y="1256.0"/>
      <point x="107.52" y="1154.57" type="curve" smooth="yes"/>
      <point x="107.52" y="1122.92" type="line"/>
      <point x="187.28" y="1122.92" type="line"/>
      <point x="187.28" y="1143.5" type="line" smooth="yes"/>
      <point x="187.28" y="1198.84"/>
      <point x="204.57" y="1224.66"/>
      <point x="246.21" y="1224.66" type="curve" smooth="yes"/>
      <point x="317.73" y="1224.66"/>
      <point x="400.56" y="1132.98"/>
    </contour>
  </outline>
</glyph>
<glyph name="macroncomb" format="2">
  <unicode hex="0304"/>
  <anchor x="377.72" y="974.71" name="_top"/>
  <anchor x="378.19" y="1284.01" name="top"/>
  <outline>
    <contour>
      <point x="114.4" y="1177.55" type="line"/>
      <point x="641.04" y="1177.55" type="line"/>
      <point x="641.04" y="1263.08" type="line"/>
      <point x="114.4" y="1263.08" type="line"/>
    </contour>
  </outline>
</glyph>
<glyph name="dotaccentcomb" format="2">
  <unicode hex="0307"/>
  <anchor x="181.8" y="974.71" name="_top"/>
  <anchor x="181.33" y="1310.6" name="top"/>
  <outline>
    <contour>
      <point x="180.8" y="1150.2" type="curve" smooth="yes"/>
      <point x="233.65" y="1150.2"/>
      <point x="259.78" y="1179.33"/>
      <point x="259.78" y="1232.76" type="curve" smooth="yes"/>
      <point x="259.78" y="1238.76" type="line" smooth="yes"/>
      <point x="259.78" y="1290.72"/>
      <point x="233.65" y="1320.91"/>
      <point x="180.8" y="1320.91" type="curve" smooth="yes"/>
      <point x="128.95" y="1320.91"/>
      <point x="102.82" y="1290.72"/>
      <point x="102.82" y="1238.76" type="curve" smooth="yes"/>
      <point x="102.82" y="1232.76" type="line" smooth="yes"/>
      <point x="102.82" y="1179.33"/>
      <point x="128.95" y="1150.2"/>
    </contour>
  </outline>
</glyph>
<glyph name="dieresiscomb" format="2">
  <unicode hex="0308"/>
  <anchor x="321.75" y="974.71" name="_top"/>
  <anchor x="321.75" y="1310.6" name="top"/>
  <outline>
    <contour>
      <point x="175.5" y="1150.2" type="curve" smooth="yes"/>
      <point x="225.17000000000002" y="1150.2"/>
      <point x="248.71" y="1178.8"/>
      <point x="248.71" y="1231.7" type="curve" smooth="yes"/>
      <point x="248.71" y="1238.23" type="line" smooth="yes"/>
      <point x="248.71" y="1289.66"/>
      <point x="225.17000000000002" y="1318.26"/>
      <point x="175.5" y="1318.26" type="curve" smooth="yes"/>
      <point x="126.89" y="1318.26"/>
      <point x="102.82" y="1289.66"/>
      <point x="102.82" y="1238.23" type="curve" smooth="yes"/>
      <point x="102.82" y="1231.7" type="line" smooth="yes"/>
      <point x="102.82" y="1178.8"/>
      <point x="126.89" y="1150.2"/>
    </contour>
    <contour>
      <point x="468.47" y="1150.2" type="curve" smooth="yes"/>
      <point x="516.61" y="1150.2"/>
      <point x="540.6800000000001" y="1178.8"/>
      <point x="540.6800000000001" y="1231.7" type="curve" smooth="yes"/>
      <point x="540.6800000000001" y="1238.23" type="line" smooth="yes"/>
      <point x="540.6800000000001" y="1289.66"/>
      <point x="516.61" y="1318.26"/>
      <point x="468.47" y="1318.26" type="curve" smooth="yes"/>
      <point x="419.33" y="1318.26"/>
      <point x="395.79" y="1289.66"/>
      <point x="395.79" y="1238.23" type="curve" smooth="yes"/>
      <point x="395.79" y="1231.7" type="line" smooth="yes"/>
      <point x="395.79" y="1178.8"/>
      <point x="419.33" y="1150.2"/>
    </contour>
  </outline>
</glyph>
<glyph name="ringcomb" format="2">
  <unicode hex="030A"/>
  <anchor x="281.61" y="974.71" name="_top"/>
  <anchor x="282.08" y="1376.61" name="top"/>
  <outline>
    <contour>
      <point x="105.17" y="1249.29" type="line" smooth="yes"/>
      <point x="105.17" y="1154.46"/>
      <point x="166.88" y="1092.1"/>
      <point x="282.08" y="1092.1" type="curve" smooth="yes"/>
      <point x="395.75" y="1092.1"/>
      <point x="457.99" y="1154.46"/>
      <point x="457.99" y="1249.29" type="curve" smooth="yes"/>
      <point x="457.99" y="1252.35" type="line" smooth="yes"/>
      <point x="457.99" y="1349.18"/>
      <point x="395.75" y="1410.54"/>
      <point x="282.08" y="1410.54" type="curve" smooth="yes"/>
      <point x="166.88" y="1410.54"/>
      <point x="105.17" y="1349.18"/>
      <point x="105.17" y="1252.35" type="curve" smooth="yes"/>
    </contour>
    <contour>
      <point x="181.63" y="1249.82" type="curve" smooth="yes"/>
      <point x="181.63" y="1252.35" type="line" smooth="yes"/>
      <point x="181.63" y="1311.57"/>
      <point x="217.21" y="1345.56"/>
      <point x="282.08" y="1345.56" type="curve" smooth="yes"/>
      <point x="346.42" y="1345.56"/>
      <point x="382.0" y="1311.57"/>
      <point x="382.0" y="1252.35" type="curve" smooth="yes"/>
      <point x="382.0" y="1249.82" type="line" smooth="yes"/>
      <point x="382.0" y="1191.07"/>
      <point x="346.42" y="1157.55"/>
      <point x="282.08" y="1157.55" type="curve" smooth="yes"/>
      <point x="217.21" y="1157.55"/>
      <point x="181.63" y="1191.07"/>
    </contour>
  </outline>
</glyph>
<glyph name="cedillacomb" format="2">
  <unicode hex="0327"/>
  <anchor x="282.31" y="0.0" name="_bottom"/>
  <anchor x="330.07" y="-383.36" name="bottom"/>
  <outline>
    <contour>
      <point x="328.46" y="12.07" type="line"/>
      <point x="242.46" y="12.07" type="line"/>
      <point x="222.81" y="-149.42" type="line"/>
      <point x="230.32999999999998" y="-149.89"/>
      <point x="240.03" y="-150.36"/>
      <point x="252.56" y="-151.36" type="curve" smooth="yes"/>
      <point x="369.32" y="-159.3"/>
      <point x="413.08" y="-177.94"/>
      <point x="413.08" y="-232.98" type="curve" smooth="yes"/>
      <point x="413.08" y="-235.45" type="line" smooth="yes"/>
      <point x="413.08" y="-281.2"/>
      <point x="372.38" y="-304.78"/>
      <point x="292.81" y="-304.78" type="curve" smooth="yes"/>
      <point x="238.87" y="-304.78"/>
      <point x="188.87" y="-294.84"/>
      <point x="147.87" y="-279.96" type="curve"/>
      <point x="163.29" y="-360.95" type="line"/>
      <point x="198.94" y="-371.89"/>
      <point x="252.47" y="-382.3"/>
      <point x="306.53" y="-382.3" type="curve" smooth="yes"/>
      <point x="435.43" y="-382.3"/>
      <point x="506.38" y="-336.59"/>
      <point x="506.38" y="-242.4" type="curve" smooth="yes"/>
      <point x="506.38" y="-237.81" type="line" smooth="yes"/>
      <point x="506.38" y="-147.63"/>
      <point x="445.2" y="-104.74"/>
      <point x="312.67" y="-96.86" type="curve" smooth="yes"/>
      <point x="293.9" y="-95.86"/>
      <point x="271.43" y="-95.92"/>
      <point x="255.48" y="-95.98" type="curve"/>
      <point x="309.28" y="-134.06" type="line"/>
    </contour>
  </outline>
</glyph>
<glyph name="Anusvara.tm" format="2">
  <unicode hex="0B82"/>
  <note>
Anusvara.tm
</note>
  <outline>
    <contour>
      <point x="249.99" y="1747.2" type="curve" smooth="yes"/>
      <point x="79.19" y="1747.2"/>
      <point x="2.4699999999999998" y="1661.95"/>
      <point x="2.4699999999999998" y="1517.81" type="curve" smooth="yes"/>
      <point x="2.4699999999999998" y="1465.75" type="line"/>
      <point x="2.4699999999999998" y="1320.14"/>
      <point x="79.19" y="1236.89"/>
      <point x="249.99" y="1236.89" type="curve" smooth="yes"/>
      <point x="421.85" y="1236.89"/>
      <point x="497.04" y="1320.14"/>
      <point x="497.04" y="1465.75" type="curve" smooth="yes"/>
      <point x="497.04" y="1517.81" type="line"/>
      <point x="497.04" y="1661.95"/>
      <point x="421.85" y="1747.2"/>
    </contour>
    <contour>
      <point x="249.99" y="1663.26" type="curve" smooth="yes"/>
      <point x="352.74" y="1663.26"/>
      <point x="396.79" y="1613.62"/>
      <point x="396.79" y="1518.4" type="curve" smooth="yes"/>
      <point x="396.79" y="1465.69" type="line"/>
      <point x="396.79" y="1370.94"/>
      <point x="353.27" y="1319.36"/>
      <point x="249.99" y="1319.36" type="curve" smooth="yes"/>
      <point x="148.24" y="1319.36"/>
      <point x="102.19" y="1370.94"/>
      <point x="102.19" y="1465.69" type="curve" smooth="yes"/>
      <point x="102.19" y="1518.4" type="line"/>
      <point x="102.19" y="1613.62"/>
      <point x="148.77" y="1663.26"/>
    </contour>
  </outline>
</glyph>
